<svg xmlns="http://www.w3.org/2000/svg" width="25.057" height="17.045" viewBox="0 0 25.057 17.045">
  <g id="cash" transform="translate(0 -81.857)">
    <path id="Path_823" data-name="Path 823" d="M99.021,188.611v8.873a1.51,1.51,0,0,1-1.511,1.511H79.281a1.51,1.51,0,0,1-1.511-1.511v-8.873a1.51,1.51,0,0,1,1.511-1.511H97.51A1.51,1.51,0,0,1,99.021,188.611Z" transform="translate(-73.964 -100.092)" fill="#38c183"/>
    <path id="Path_824" data-name="Path 824" d="M95.983,187.1v6a1.511,1.511,0,0,1-1.511,1.511H77.77v-6a1.51,1.51,0,0,1,1.511-1.511Z" transform="translate(-73.964 -100.092)" fill="#2fad71"/>
    <path id="Path_825" data-name="Path 825" d="M127.338,220.705V225.1a1.639,1.639,0,0,0-2.216,2.215H111.375a1.638,1.638,0,0,0-2.215-2.215v-4.392a1.638,1.638,0,0,0,2.215-2.215h13.748a1.638,1.638,0,0,0,2.216,2.215Z" transform="translate(-103.818 -129.946)" fill="#49e298"/>
    <path id="Path_826" data-name="Path 826" d="M125.837,220.724v2.231a1.511,1.511,0,0,1-1.511,1.511H109.16v-3.761a1.638,1.638,0,0,0,2.215-2.215h13.748a1.64,1.64,0,0,0,.714,2.234Z" transform="translate(-103.818 -129.946)" fill="#38c183"/>
    <g id="Group_597" data-name="Group 597" transform="translate(7.032 91.931)">
      <path id="Path_827" data-name="Path 827" d="M164.827,314.237a.384.384,0,0,1-.384.384h-1.536a.384.384,0,1,1,0-.768h1.536A.384.384,0,0,1,164.827,314.237Z" transform="translate(-161.601 -312.573)" fill="#2fad71"/>
      <path id="Path_828" data-name="Path 828" d="M146.915,288.079a.384.384,0,0,1-.384.384h-2.458a.384.384,0,0,1,0-.768h2.458A.384.384,0,0,1,146.915,288.079Z" transform="translate(-143.689 -287.695)" fill="#2fad71"/>
    </g>
    <path id="Path_829" data-name="Path 829" d="M239.665,250.407a3,3,0,1,1-3-3A2.983,2.983,0,0,1,239.665,250.407Z" transform="translate(-222.238 -157.452)" fill="#38c183"/>
    <g id="Group_598" data-name="Group 598" transform="translate(11.436 89.959)">
      <path id="Path_830" data-name="Path 830" d="M239.665,250.407a2.983,2.983,0,0,1-.441,1.565h-5.109a3,3,0,1,1,5.55-1.565Z" transform="translate(-233.674 -247.411)" fill="#2fad71"/>
      <path id="Path_831" data-name="Path 831" d="M382.465,314.237a.384.384,0,0,1-.384.384h-1.536a.384.384,0,1,1,0-.768h1.536A.384.384,0,0,1,382.465,314.237Z" transform="translate(-372.992 -310.601)" fill="#2fad71"/>
      <path id="Path_832" data-name="Path 832" d="M383.387,288.079a.384.384,0,0,1-.384.384h-2.458a.384.384,0,1,1,0-.768H383A.384.384,0,0,1,383.387,288.079Z" transform="translate(-372.992 -285.724)" fill="#2fad71"/>
    </g>
    <path id="Path_833" data-name="Path 833" d="M255.835,267.453a2.118,2.118,0,0,1-4.237,0c0-.035,0-.069,0-.1a2.118,2.118,0,0,1,4.232,0C255.834,267.384,255.835,267.419,255.835,267.453Z" transform="translate(-239.285 -174.499)" fill="#49e298"/>
    <path id="Path_834" data-name="Path 834" d="M255.835,306.611a2.112,2.112,0,0,1-.692,1.565H252.29a2.112,2.112,0,0,1-.692-1.565c0-.035,0-.069,0-.1h4.232C255.834,306.542,255.835,306.577,255.835,306.611Z" transform="translate(-239.285 -213.657)" fill="#38c183"/>
    <g id="Group_599" data-name="Group 599" transform="translate(5.804 88.949)">
      <path id="Path_835" data-name="Path 835" d="M457.522,227.57a.384.384,0,1,1,.38-.328A.387.387,0,0,1,457.522,227.57Z" transform="translate(-440.573 -226.803)" fill="#49e298"/>
      <path id="Path_836" data-name="Path 836" d="M457.463,375.621a.384.384,0,1,1,.378-.318A.387.387,0,0,1,457.463,375.621Z" transform="translate(-440.513 -367.608)" fill="#49e298"/>
      <path id="Path_837" data-name="Path 837" d="M119.033,227.53a.384.384,0,1,1,.377-.313A.387.387,0,0,1,119.033,227.53Z" transform="translate(-118.65 -226.763)" fill="#49e298"/>
      <path id="Path_838" data-name="Path 838" d="M118.973,375.616a.384.384,0,1,1,.378-.318A.388.388,0,0,1,118.973,375.616Z" transform="translate(-118.589 -367.603)" fill="#49e298"/>
    </g>
    <path id="Path_839" data-name="Path 839" d="M19.74,93.752H1.511A1.511,1.511,0,0,1,0,92.241V83.368a1.511,1.511,0,0,1,1.511-1.511H19.74a1.511,1.511,0,0,1,1.511,1.511v8.873A1.511,1.511,0,0,1,19.74,93.752Z" fill="#38c183"/>
    <path id="Path_840" data-name="Path 840" d="M48.8,115.654a1.639,1.639,0,0,1-1.447-2.407H33.606a1.639,1.639,0,0,1-2.216,2.216v4.391a1.639,1.639,0,0,1,2.216,2.216H47.353a1.639,1.639,0,0,1,2.216-2.216v-4.391A1.632,1.632,0,0,1,48.8,115.654Z" transform="translate(-29.854 -29.854)" fill="#49e298"/>
    <circle id="Ellipse_63" data-name="Ellipse 63" cx="2.996" cy="2.996" r="2.996" transform="translate(7.63 84.809)" fill="#38c183"/>
    <circle id="Ellipse_64" data-name="Ellipse 64" cx="2.118" cy="2.118" r="2.118" transform="translate(8.507 85.686)" fill="#49e298"/>
    <g id="Group_600" data-name="Group 600" transform="translate(3.226 86.78)">
      <path id="Path_841" data-name="Path 841" d="M305.234,183.223h-2.458a.384.384,0,1,1,0-.768h2.458a.384.384,0,1,1,0,.768Z" transform="translate(-290.819 -182.455)" fill="#38c183"/>
      <path id="Path_842" data-name="Path 842" d="M304.312,209.381h-1.536a.384.384,0,1,1,0-.768h1.536a.384.384,0,0,1,0,.768Z" transform="translate(-290.819 -207.333)" fill="#38c183"/>
      <path id="Path_843" data-name="Path 843" d="M68.762,183.223H66.3a.384.384,0,1,1,0-.768h2.458a.384.384,0,1,1,0,.768Z" transform="translate(-65.92 -182.455)" fill="#38c183"/>
      <path id="Path_844" data-name="Path 844" d="M86.674,209.381H85.138a.384.384,0,0,1,0-.768h1.536a.384.384,0,1,1,0,.768Z" transform="translate(-83.832 -207.333)" fill="#38c183"/>
    </g>
    <g id="Group_601" data-name="Group 601" transform="translate(1.998 83.798)">
      <path id="Path_845" data-name="Path 845" d="M379.754,122.331a.384.384,0,1,1,.38-.328A.387.387,0,0,1,379.754,122.331Z" transform="translate(-362.805 -121.564)" fill="#49e298"/>
      <path id="Path_846" data-name="Path 846" d="M379.695,270.382a.384.384,0,1,1,.378-.318A.388.388,0,0,1,379.695,270.382Z" transform="translate(-362.745 -262.369)" fill="#49e298"/>
      <path id="Path_847" data-name="Path 847" d="M41.265,122.292a.384.384,0,1,1,.377-.313A.387.387,0,0,1,41.265,122.292Z" transform="translate(-40.882 -121.524)" fill="#49e298"/>
      <path id="Path_848" data-name="Path 848" d="M41.2,270.378a.384.384,0,1,1,.378-.318A.388.388,0,0,1,41.2,270.378Z" transform="translate(-40.821 -262.365)" fill="#49e298"/>
    </g>
    <path id="Path_849" data-name="Path 849" d="M196.336,166.055v-.845a.444.444,0,0,1,.314.385.256.256,0,1,0,.512,0,.982.982,0,0,0-.826-.917v-.047a.256.256,0,1,0-.512,0v.047a.922.922,0,0,0,0,1.834v.845a.444.444,0,0,1-.314-.385.256.256,0,1,0-.512,0,.982.982,0,0,0,.826.917v.047a.256.256,0,0,0,.512,0v-.047a.922.922,0,0,0,0-1.834Zm-.827-.461a.444.444,0,0,1,.314-.385v.769A.444.444,0,0,1,195.509,165.594Zm.827,1.762v-.769a.392.392,0,0,1,0,.769Z" transform="translate(-185.454 -78.479)" fill="#38c183"/>
  </g>
</svg>
