<svg id="search_11_" data-name="search (11)" xmlns="http://www.w3.org/2000/svg" width="66" height="66" viewBox="0 0 66 66">
  <path id="Path_450" data-name="Path 450" d="M14.627,160.329l-2.3,8.576-8.4.178a33.058,33.058,0,0,1-.243-30.815h0l7.476,1.371,3.275,7.431a19.695,19.695,0,0,0,.185,13.26Z" transform="translate(0 -120.444)" fill="#fbbb00"/>
  <path id="Path_451" data-name="Path 451" d="M293.326,208.176a32.987,32.987,0,0,1-11.764,31.9l0,0-9.416-.48-1.333-8.319a19.668,19.668,0,0,0,8.462-10.043H261.628V208.176h31.7Z" transform="translate(-227.903 -181.341)" fill="#518ef8"/>
  <path id="Path_452" data-name="Path 452" d="M80.234,328.257l0,0a33.011,33.011,0,0,1-49.727-10.1L41.2,309.409a19.626,19.626,0,0,0,28.282,10.049Z" transform="translate(-26.576 -269.524)" fill="#28b446"/>
  <path id="Path_453" data-name="Path 453" d="M79,7.6,68.307,16.349A19.624,19.624,0,0,0,39.376,26.625l-10.75-8.8h0A33.007,33.007,0,0,1,79,7.6Z" transform="translate(-24.934)" fill="#f14336"/>
</svg>
