<svg xmlns="http://www.w3.org/2000/svg" width="45.607" height="45.611" viewBox="0 0 45.607 45.611">
  <path id="home" d="M44.381,19.838l0,0L25.772,1.23a4.2,4.2,0,0,0-5.938,0l-18.6,18.6-.019.019A4.2,4.2,0,0,0,4.014,27q.064.006.129.006h.742V40.7A4.92,4.92,0,0,0,9.8,45.611h7.279a1.336,1.336,0,0,0,1.336-1.336V33.54A2.244,2.244,0,0,1,20.657,31.3H24.95a2.244,2.244,0,0,1,2.242,2.242V44.274a1.336,1.336,0,0,0,1.336,1.336h7.279A4.92,4.92,0,0,0,40.722,40.7V27h.688a4.2,4.2,0,0,0,2.971-7.166Zm0,0" transform="translate(0 0.001)" fill="#fff"/>
</svg>
