<svg xmlns="http://www.w3.org/2000/svg" width="107.967" height="43.218" viewBox="0 0 107.967 43.218">
  <g id="Group_625" data-name="Group 625" transform="translate(0 0)">
    <path id="Path_769" data-name="Path 769" d="M1408.509,749.91h-21.632l-31.919-6.136-11.019,5.973-19.68-.813-2.762-5.16,10.894-11.593,71.822,3.135,9.583,9.227-5.286,5.367Z" transform="translate(-1316.977 -717.047)" fill="#2b2a25"/>
    <g id="Group_584" data-name="Group 584" transform="translate(70.88 21.24)">
      <g id="Group_583" data-name="Group 583" transform="translate(0 0)">
        <ellipse id="Ellipse_54" data-name="Ellipse 54" cx="8.763" cy="8.763" rx="8.763" ry="8.763" transform="translate(1.727 19.168) rotate(-95.655)" fill="#777464"/>
        <path id="Path_770" data-name="Path 770" d="M1421.218,792.857c-2.547,1.533-4.795,4.063-4.916,7.25-.166,4.364,1.789,9.315,9.171,9.116a10.929,10.929,0,0,0,3.552-.73,10.039,10.039,0,0,1-4.877,1.172,8.392,8.392,0,0,1-8.4-8.686A8.766,8.766,0,0,1,1421.218,792.857Z" transform="translate(-1414.93 -791.339)" fill="#424038"/>
        <circle id="Ellipse_55" data-name="Ellipse 55" cx="5.345" cy="5.345" r="5.345" transform="translate(4.239 4.239)" fill="#b7b29e"/>
        <ellipse id="Ellipse_56" data-name="Ellipse 56" cx="4.91" cy="4.91" rx="4.91" ry="4.91" transform="matrix(-0.257, -0.966, 0.966, -0.257, 6.099, 15.59)" fill="#969283"/>
        <path id="Path_771" data-name="Path 771" d="M1423.955,832.839a3.48,3.48,0,1,0,3.48-3.481A3.48,3.48,0,0,0,1423.955,832.839Z" transform="translate(-1417.851 -823.254)" fill="#777464"/>
        <g id="Group_582" data-name="Group 582" transform="translate(6.738 6.738)">
          <g id="Group_580" data-name="Group 580" transform="translate(0.028 0.028)">
            <path id="Path_772" data-name="Path 772" d="M1447.652,839.766a.5.5,0,0,0,.5.5h0a.5.5,0,0,0,.5-.5v-4.629a.5.5,0,0,0-.5-.5h0a.5.5,0,0,0-.5.5Z" transform="translate(-1445.338 -834.634)" fill="#969283"/>
            <path id="Path_773" data-name="Path 773" d="M1429.733,852.655a.5.5,0,0,0-.5.5h0a.5.5,0,0,0,.5.5h4.629a.5.5,0,0,0,.5-.5h0a.5.5,0,0,0-.5-.5Z" transform="translate(-1429.23 -850.391)" fill="#969283"/>
          </g>
          <g id="Group_581" data-name="Group 581" transform="translate(0.688 0.688)">
            <path id="Path_774" data-name="Path 774" d="M1434.915,843.592a.5.5,0,0,0,0,.712h0a.5.5,0,0,0,.712,0l3.273-3.273a.5.5,0,0,0,0-.711h0a.5.5,0,0,0-.712,0Z" transform="translate(-1434.768 -840.135)" fill="#969283"/>
            <path id="Path_775" data-name="Path 775" d="M1435.344,840.035a.5.5,0,0,0-.711,0h0a.5.5,0,0,0,0,.712l3.273,3.273a.5.5,0,0,0,.712,0h0a.5.5,0,0,0,0-.711Z" transform="translate(-1434.449 -839.888)" fill="#969283"/>
          </g>
          <circle id="Ellipse_57" data-name="Ellipse 57" cx="2.012" cy="2.012" r="2.012" transform="translate(2.846 5.692) rotate(-135)" fill="#969283"/>
        </g>
        <path id="Path_776" data-name="Path 776" d="M1397.749,801.444l-.746-.58a6.724,6.724,0,0,0-2.776-4.765,8.495,8.495,0,0,0-5.469-1.533l-.29-.58s3.771-.455,6.381,1.658A7.3,7.3,0,0,1,1397.749,801.444Z" transform="translate(-1380.23 -792.289)" fill="#969283" opacity="0.4"/>
        <path id="Path_777" data-name="Path 777" d="M1449.762,836.479a.238.238,0,1,0,.238-.238A.238.238,0,0,0,1449.762,836.479Z" transform="translate(-1440.416 -829.273)" fill="#b7b29e"/>
        <path id="Path_778" data-name="Path 778" d="M1462.954,841.756a.238.238,0,1,0,.238-.238A.238.238,0,0,0,1462.954,841.756Z" transform="translate(-1455.266 -833.887)" fill="#b7b29e"/>
        <path id="Path_779" data-name="Path 779" d="M1469.22,855.112a.238.238,0,1,0,.239-.238A.238.238,0,0,0,1469.22,855.112Z" transform="translate(-1462.319 -845.565)" fill="#b7b29e"/>
        <path id="Path_780" data-name="Path 780" d="M1463.614,869.459a.238.238,0,1,0,.238-.238A.238.238,0,0,0,1463.614,869.459Z" transform="translate(-1456.009 -858.109)" fill="#b7b29e"/>
        <path id="Path_781" data-name="Path 781" d="M1449.6,874.405a.238.238,0,1,0,.238-.238A.238.238,0,0,0,1449.6,874.405Z" transform="translate(-1440.23 -862.434)" fill="#b7b29e"/>
        <path id="Path_782" data-name="Path 782" d="M1436.405,868.634a.238.238,0,1,0,.238-.238A.238.238,0,0,0,1436.405,868.634Z" transform="translate(-1425.381 -857.388)" fill="#b7b29e"/>
        <path id="Path_783" data-name="Path 783" d="M1431.128,855.277a.238.238,0,1,0,.238-.238A.238.238,0,0,0,1431.128,855.277Z" transform="translate(-1419.441 -845.709)" fill="#b7b29e"/>
        <path id="Path_784" data-name="Path 784" d="M1436.405,841.756a.238.238,0,1,0,.238-.238A.238.238,0,0,0,1436.405,841.756Z" transform="translate(-1425.381 -833.887)" fill="#b7b29e"/>
      </g>
      <path id="Path_785" data-name="Path 785" d="M1442.862,849.371a1.1,1.1,0,1,0,1.1-1.1A1.1,1.1,0,0,0,1442.862,849.371Z" transform="translate(-1434.383 -839.787)" fill="#b7b29e"/>
    </g>
    <g id="Group_589" data-name="Group 589" transform="translate(4.766 18.431)">
      <g id="Group_588" data-name="Group 588" transform="translate(0 0)">
        <circle id="Ellipse_58" data-name="Ellipse 58" cx="8.763" cy="8.763" r="8.763" transform="translate(12.393 24.786) rotate(-135)" fill="#777464"/>
        <path id="Path_786" data-name="Path 786" d="M1925.083,792.857c-2.548,1.533-4.795,4.063-4.916,7.25-.165,4.364,1.789,9.315,9.171,9.116a10.929,10.929,0,0,0,3.552-.73,10.039,10.039,0,0,1-4.877,1.172,8.392,8.392,0,0,1-8.4-8.686A8.766,8.766,0,0,1,1925.083,792.857Z" transform="translate(-1915.985 -788.53)" fill="#424038"/>
        <circle id="Ellipse_59" data-name="Ellipse 59" cx="5.345" cy="5.345" r="5.345" transform="translate(7.048 7.048)" fill="#b7b29e"/>
        <path id="Path_787" data-name="Path 787" d="M1916.442,822.891a4.91,4.91,0,1,0,4.91-4.91A4.91,4.91,0,0,0,1916.442,822.891Z" transform="translate(-1908.959 -810.498)" fill="#969283"/>
        <path id="Path_788" data-name="Path 788" d="M1927.82,832.839a3.48,3.48,0,1,0,3.481-3.481A3.481,3.481,0,0,0,1927.82,832.839Z" transform="translate(-1918.907 -820.445)" fill="#777464"/>
        <g id="Group_587" data-name="Group 587" transform="translate(9.576 9.576)">
          <g id="Group_585" data-name="Group 585">
            <path id="Path_789" data-name="Path 789" d="M1951.518,839.766a.5.5,0,0,0,.5.5h0a.5.5,0,0,0,.5-.5v-4.629a.5.5,0,0,0-.5-.5h0a.5.5,0,0,0-.5.5Z" transform="translate(-1949.203 -834.634)" fill="#969283"/>
            <path id="Path_790" data-name="Path 790" d="M1933.6,852.655a.5.5,0,0,0-.5.5h0a.5.5,0,0,0,.5.5h4.629a.5.5,0,0,0,.5-.5h0a.5.5,0,0,0-.5-.5Z" transform="translate(-1933.096 -850.391)" fill="#969283"/>
          </g>
          <g id="Group_586" data-name="Group 586" transform="translate(0.66 0.66)">
            <path id="Path_791" data-name="Path 791" d="M1938.78,843.592a.5.5,0,0,0,0,.712h0a.5.5,0,0,0,.711,0l3.273-3.273a.5.5,0,0,0,0-.711h0a.5.5,0,0,0-.712,0Z" transform="translate(-1938.632 -840.135)" fill="#969283"/>
            <path id="Path_792" data-name="Path 792" d="M1939.208,840.035a.5.5,0,0,0-.712,0h0a.5.5,0,0,0,0,.712l3.273,3.273a.5.5,0,0,0,.712,0h0a.5.5,0,0,0,0-.711Z" transform="translate(-1938.314 -839.888)" fill="#969283"/>
          </g>
          <ellipse id="Ellipse_60" data-name="Ellipse 60" cx="2.012" cy="2.012" rx="2.012" ry="2.012" transform="translate(1.153 5.126) rotate(-99.217)" fill="#969283"/>
        </g>
        <path id="Path_793" data-name="Path 793" d="M1901.614,801.444l-.746-.58a6.725,6.725,0,0,0-2.776-4.765,8.5,8.5,0,0,0-5.47-1.533l-.29-.58s3.771-.455,6.381,1.658A7.3,7.3,0,0,1,1901.614,801.444Z" transform="translate(-1881.286 -789.481)" fill="#969283" opacity="0.4"/>
        <path id="Path_794" data-name="Path 794" d="M1953.627,836.479a.238.238,0,1,0,.239-.238A.238.238,0,0,0,1953.627,836.479Z" transform="translate(-1941.472 -826.464)" fill="#b7b29e"/>
        <path id="Path_795" data-name="Path 795" d="M1966.819,841.756a.238.238,0,1,0,.238-.238A.238.238,0,0,0,1966.819,841.756Z" transform="translate(-1956.322 -831.078)" fill="#b7b29e"/>
        <path id="Path_796" data-name="Path 796" d="M1973.085,855.112a.238.238,0,1,0,.238-.238A.238.238,0,0,0,1973.085,855.112Z" transform="translate(-1963.375 -842.756)" fill="#b7b29e"/>
        <path id="Path_797" data-name="Path 797" d="M1967.479,869.459a.238.238,0,1,0,.239-.238A.238.238,0,0,0,1967.479,869.459Z" transform="translate(-1957.065 -855.3)" fill="#b7b29e"/>
        <path id="Path_798" data-name="Path 798" d="M1953.462,874.405a.238.238,0,1,0,.238-.238A.238.238,0,0,0,1953.462,874.405Z" transform="translate(-1941.287 -859.625)" fill="#b7b29e"/>
        <circle id="Ellipse_61" data-name="Ellipse 61" cx="0.238" cy="0.238" r="0.238" transform="translate(13.833 13.817)" fill="#b7b29e"/>
        <path id="Path_799" data-name="Path 799" d="M1934.993,855.277a.238.238,0,1,0,.238-.238A.238.238,0,0,0,1934.993,855.277Z" transform="translate(-1920.497 -842.9)" fill="#b7b29e"/>
        <path id="Path_800" data-name="Path 800" d="M1940.27,841.756a.238.238,0,1,0,.238-.238A.238.238,0,0,0,1940.27,841.756Z" transform="translate(-1926.438 -831.078)" fill="#b7b29e"/>
      </g>
      <path id="Path_801" data-name="Path 801" d="M1946.728,849.371a1.1,1.1,0,1,0,1.105-1.1A1.105,1.105,0,0,0,1946.728,849.371Z" transform="translate(-1935.44 -836.978)" fill="#b7b29e"/>
    </g>
    <path id="Path_802" data-name="Path 802" d="M1242.057,631.247a35.9,35.9,0,0,1,8.3-10.409c5.2-4.229,16.427-8.946,35.132-9.108s17.891,1.952,24.559,6.018a40.456,40.456,0,0,1,6.343,5.042s12.687-.325,21.957,5.042c2.959,1.713,4.879,5.855,4.879,5.855a5.511,5.511,0,0,1,2.6,5.042c0,3.741-1.626,4.229-5.042,5.2s-11.86.732-11.86.732a14.657,14.657,0,0,0-.867-5.783c-1.1-2.811-3.515-5.563-8.417-6.009a8.7,8.7,0,0,0-9.15,5.5,13.878,13.878,0,0,0-1.012,6.145l-43.837-.1a19.186,19.186,0,0,0-.912-6.334c-1.222-2.967-4.416-5.114-8.964-5.349-4.193-.217-7.79,2.6-8.675,5.06a11.353,11.353,0,0,0-.723,6l-3.823-.515-3.253-4.066v-5.855Z" transform="translate(-1238.68 -611.72)" fill="#f9cc3d"/>
    <path id="Path_803" data-name="Path 803" d="M1552,632.585l-48.724-1.743a21,21,0,0,1,4.326-3.36c3.181-2.024,10.049-5.332,21.9-5.278,5.717.026,8.811.462,12.29,2.169A32.785,32.785,0,0,1,1552,632.585Z" transform="translate(-1478.023 -620.886)" fill="#97c1bf"/>
    <path id="Path_804" data-name="Path 804" d="M1506.491,627.417c3.181-2.024,10.282-5.268,22.137-5.214,5.717.026,8.811.462,12.29,2.169a32.782,32.782,0,0,1,10.2,8.212l-49-1.725A20.248,20.248,0,0,1,1506.491,627.417Zm42.823,4.373a29.7,29.7,0,0,0-9.341-7.183c-3.184-1.493-6.017-1.875-11.25-1.9-10.853-.048-17.14,2.846-20.052,4.617a19.061,19.061,0,0,0-3.96,2.939Z" transform="translate(-1476.999 -620.886)" fill="#2b2a25"/>
    <path id="Path_805" data-name="Path 805" d="M1242.823,814.652s-8.292-.348-9.329.149c-.9.429-1.115,4.363.187,4.851s7.855.224,7.855.224a2.624,2.624,0,0,0,2.25-2.678C1243.889,815.1,1242.823,814.652,1242.823,814.652Z" transform="translate(-1135.826 -789.052)" fill="#72726f"/>
    <path id="Path_806" data-name="Path 806" d="M2047.606,808.139s-4.746-.233-5.339.1c-.512.287-.638,2.921.107,3.248s4.5.15,4.5.15,1.218-.137,1.288-1.793C2048.217,808.441,2047.606,808.139,2047.606,808.139Z" transform="translate(-2041.849 -783.392)" fill="#72726f"/>
    <path id="Path_807" data-name="Path 807" d="M1293.641,749.981a6.448,6.448,0,0,1,4.138,2.589c1.193,1.518,1.908,3.4.17,3.363-1.662-.038-2.419-1.187-3.86-2.574S1291.7,749.755,1293.641,749.981Z" transform="translate(-1198.532 -732.596)" fill="#97c1bf"/>
    <path id="Path_808" data-name="Path 808" d="M1512.931,704.176l-61.439-3.145-4.313,2.711,69.833,2.386Z" transform="translate(-1435.984 -689.81)" fill="#fff35a"/>
    <path id="Path_809" data-name="Path 809" d="M1585.8,853.261h-35.814l-.1-1.193,36.109.217Z" transform="translate(-1517.87 -821.871)" fill="#fff35a"/>
    <path id="Path_810" data-name="Path 810" d="M1345.125,771.777s-.938-5.974-2.647-8.452c-3.643-5.283-12.39-4.343-12.39-4.343l.434.8a19.065,19.065,0,0,1,6.506,1.59,8.4,8.4,0,0,1,4.415,4.988,19.447,19.447,0,0,1,1.07,4.057Z" transform="translate(-1249.387 -740.423)" fill="#fff35a"/>
    <path id="Path_811" data-name="Path 811" d="M1857.141,755.319s-1.32-5.9-3.184-8.265c-3.974-5.038-12.643-3.538-12.643-3.538l.484.766a19.066,19.066,0,0,1,6.6,1.169,8.4,8.4,0,0,1,4.726,4.694,19.456,19.456,0,0,1,1.328,3.98Z" transform="translate(-1825.633 -726.774)" fill="#fff35a"/>
    <path id="Path_812" data-name="Path 812" d="M2025.188,732.965s1.524.036,1.872.036.872.289.872.651-.262,2.675-.349,2.964a1.3,1.3,0,0,1-1.221.578c-.61,0-3.786.064-3.786.064Z" transform="translate(-2019.198 -717.732)" fill="#b52c1a"/>
    <path id="Path_813" data-name="Path 813" d="M2030.909,736.665l-.313,3.207h-1.25l.312-3.239Z" transform="translate(-2023.025 -720.939)" fill="#f23325"/>
    <path id="Path_814" data-name="Path 814" d="M1299.461,758.492c.94,1.028,1.922,1.659,2.2,1.409s-.268-1.285-1.207-2.312-1.922-1.659-2.2-1.409S1298.522,757.465,1299.461,758.492Z" transform="translate(-1201.98 -737.983)" fill="#fff" opacity="0.5"/>
    <g id="Group_590" data-name="Group 590" transform="translate(36.924 10.175)">
      <path id="Path_815" data-name="Path 815" d="M1524.659,714.141v-.109c0-.042.02-4.286,1.666-7.047a10.733,10.733,0,0,1,2.017-2.175c1.133-1.026,2.3-2.087,2.5-3.34,1.031-6.733-1.512-7.763-1.621-7.8l-.075.2.038-.1-.039.1c.025.01,2.484,1.034,1.483,7.567-.18,1.177-1.323,2.212-2.428,3.213a10.869,10.869,0,0,0-2.058,2.224c-1.527,2.561-1.679,6.359-1.695,7.049l-27.48-.216a35.727,35.727,0,0,1-3.1-8.374c-1.021-4.49-1.331-6.938-.336-8.706a30.54,30.54,0,0,1,2.7-3.779l-.166-.14a30.792,30.792,0,0,0-2.722,3.812c-1.03,1.83-.719,4.315.314,8.861a35.775,35.775,0,0,0,3.156,8.487l.031.055h.063Z" transform="translate(-1492.701 -692.708)" fill="#2b2a25"/>
    </g>
    <g id="Group_591" data-name="Group 591" transform="translate(77.334 11.329)">
      <path id="Path_816" data-name="Path 816" d="M1285.77,712.66q.283,0,.59-.022a.108.108,0,1,0-.015-.216c-1.56.11-2.6-.191-3.258-.949l-.121-.139c-.859-.992-3.143-3.626-6.444-4.341a49.19,49.19,0,0,0-9-1.061,36.424,36.424,0,0,1-4.995-.457c-3.439-.625-3.168-3.432-3.165-3.46a.108.108,0,1,0-.216-.024c0,.03-.294,3.036,3.342,3.7a36.545,36.545,0,0,0,5.024.461,48.984,48.984,0,0,1,8.961,1.057c3.231.7,5.479,3.295,6.326,4.271l.122.14A3.566,3.566,0,0,0,1285.77,712.66Z" transform="translate(-1259.142 -701.894)" fill="#2b2a25"/>
    </g>
    <path id="Path_817" data-name="Path 817" d="M1735.372,627.239a34.435,34.435,0,0,0-2.657,3.524,16.678,16.678,0,0,0-2.115,4.717h-2.494s1.355-2.386,2.819-4.771a10.652,10.652,0,0,1,3.362-3.47Z" transform="translate(-1689.64 -625.289)" fill="#2b2a25"/>
    <path id="Path_818" data-name="Path 818" d="M1244.282,819.638l.695.894-10.127.364.232-1.191Z" transform="translate(-1137.272 -793.515)" fill="#97c1bf" opacity="0.5"/>
    <path id="Path_819" data-name="Path 819" d="M1293.127,750.792l.4-.166s-.893.761,1.82,3.707c2.35,2.551,4.17,1.754,4.17,1.754l-.066.3s-.2.6-1.886.232-3.607-2.846-4.4-4.269S1293.127,750.792,1293.127,750.792Z" transform="translate(-1199.09 -733.174)" fill="#72726f"/>
    <circle id="Ellipse_62" data-name="Ellipse 62" cx="2.494" cy="2.494" r="2.494" transform="translate(38.773 15.667)" fill="#c9a232"/>
    <path id="Path_820" data-name="Path 820" d="M1738.464,751.469a.521.521,0,0,0,.519.524h5.252a.522.522,0,0,0,.519-.524h0a.522.522,0,0,0-.519-.524h-5.252a.521.521,0,0,0-.519.524Z" transform="translate(-1700.324 -733.453)" fill="#fff35a"/>
    <path id="Path_821" data-name="Path 821" d="M1541.838,669.953c-.184-.624,2.1-2.1,3.325-2.024s3.109,1.3,3.109,1.807-.723,1.518-2.241,1.518S1542.2,671.182,1541.838,669.953Z" transform="translate(-1479.137 -660.865)" fill="#f9cc3d"/>
    <path id="Path_822" data-name="Path 822" d="M1517.567,675.886s-1.247-2.6-2.817-3.335a5.914,5.914,0,0,0-2.513-.753,2.387,2.387,0,0,0-.714,1.574,1.649,1.649,0,0,0,.573,1.158,4.9,4.9,0,0,0,1.663-.108c.976-.217,1.156-.362,1.663-.036s.649,1.461.649,1.461Z" transform="translate(-1444.623 -664.25)" fill="#777464"/>
  </g>
</svg>
