<svg xmlns="http://www.w3.org/2000/svg" width="371.856" height="322.008" viewBox="0 0 371.856 322.008">
  <g id="Group_614" data-name="Group 614" transform="translate(-23.609 -63.758)">
    <g id="Group_404" data-name="Group 404" transform="translate(41.151 102.545)">
      <g id="Group_393" data-name="Group 393" transform="translate(204.475 24.499)">
        <path id="Path_363" data-name="Path 363" d="M333.154,168.21a15.049,15.049,0,1,0-25.675,0Z" transform="translate(-295.967 -145.306)" fill="#fff"/>
        <path id="Path_364" data-name="Path 364" d="M311.905,170.641a9.167,9.167,0,1,0-17.59,0Z" transform="translate(-293.943 -147.736)" fill="#fff"/>
        <path id="Path_365" data-name="Path 365" d="M349.108,170.958a7.708,7.708,0,1,0-14.52,0Z" transform="translate(-301.127 -148.054)" fill="#fff"/>
      </g>
      <g id="Group_398" data-name="Group 398" transform="translate(48.61 0)">
        <g id="Group_396" data-name="Group 396">
          <path id="Path_366" data-name="Path 366" d="M300.788,272.411H276.946V147.852l23.842-16.1Z" transform="translate(-135.04 -118.385)" fill="#77c99d"/>
          <path id="Path_367" data-name="Path 367" d="M336.161,287.7V181.128l-13.5,10.028v42.671H307.249V207.07H262.391v84.843h73.77Z" transform="translate(-132.439 -127.21)" fill="#77c99d"/>
          <rect id="Rectangle_271" data-name="Rectangle 271" width="31.824" height="145.788" fill="#77c99d"/>
          <rect id="Rectangle_272" data-name="Rectangle 272" width="18.834" height="3.157" transform="translate(9.019 6.748)" fill="#efefef"/>
          <rect id="Rectangle_273" data-name="Rectangle 273" width="18.834" height="3.157" transform="translate(9.019 14.052)" fill="#efefef"/>
          <rect id="Rectangle_274" data-name="Rectangle 274" width="18.834" height="3.157" transform="translate(9.019 21.357)" fill="#efefef"/>
          <rect id="Rectangle_275" data-name="Rectangle 275" width="18.834" height="3.157" transform="translate(9.019 28.662)" fill="#efefef"/>
          <rect id="Rectangle_276" data-name="Rectangle 276" width="18.834" height="3.157" transform="translate(9.019 35.966)" fill="#efefef"/>
          <rect id="Rectangle_277" data-name="Rectangle 277" width="18.834" height="3.157" transform="translate(9.019 43.271)" fill="#efefef"/>
          <rect id="Rectangle_278" data-name="Rectangle 278" width="18.834" height="3.157" transform="translate(9.019 50.576)" fill="#efefef"/>
          <rect id="Rectangle_279" data-name="Rectangle 279" width="18.834" height="3.157" transform="translate(9.019 57.881)" fill="#efefef"/>
          <rect id="Rectangle_280" data-name="Rectangle 280" width="18.834" height="3.157" transform="translate(9.019 65.185)" fill="#efefef"/>
          <rect id="Rectangle_281" data-name="Rectangle 281" width="18.834" height="3.157" transform="translate(9.019 72.49)" fill="#efefef"/>
          <rect id="Rectangle_282" data-name="Rectangle 282" width="18.834" height="3.157" transform="translate(9.019 79.795)" fill="#efefef"/>
          <rect id="Rectangle_283" data-name="Rectangle 283" width="18.834" height="3.157" transform="translate(9.019 87.099)" fill="#efefef"/>
          <rect id="Rectangle_284" data-name="Rectangle 284" width="18.834" height="3.157" transform="translate(9.019 94.404)" fill="#efefef"/>
          <rect id="Rectangle_285" data-name="Rectangle 285" width="42.955" height="114.762" transform="translate(35.74 55.662)" fill="#77c99d"/>
          <path id="Path_445" data-name="Path 445" d="M0,0H31.75V132.417H0Z" transform="translate(68.829 23.554)" fill="#77c99d"/>
          <g id="Group_395" data-name="Group 395" transform="translate(104.697 38.429)">
            <g id="Group_394" data-name="Group 394">
              <rect id="Rectangle_287" data-name="Rectangle 287" width="31.75" height="107.359" fill="#77c99d"/>
            </g>
          </g>
          <rect id="Rectangle_288" data-name="Rectangle 288" width="4.318" height="4.318" transform="translate(107.431 42.219)" fill="#efefef"/>
          <rect id="Rectangle_289" data-name="Rectangle 289" width="4.318" height="4.318" transform="translate(111.748 46.722)" fill="#efefef"/>
          <rect id="Rectangle_290" data-name="Rectangle 290" width="4.318" height="4.318" transform="translate(124.377 41.847)" fill="#efefef"/>
          <rect id="Rectangle_291" data-name="Rectangle 291" width="4.318" height="4.318" transform="translate(120.688 53.64)" fill="#efefef"/>
          <rect id="Rectangle_292" data-name="Rectangle 292" width="4.318" height="4.318" transform="translate(116.066 62.879)" fill="#efefef"/>
          <rect id="Rectangle_293" data-name="Rectangle 293" width="4.318" height="4.318" transform="translate(108.173 71.26)" fill="#efefef"/>
          <rect id="Rectangle_294" data-name="Rectangle 294" width="4.318" height="4.318" transform="translate(127.794 84.445)" fill="#efefef"/>
          <rect id="Rectangle_295" data-name="Rectangle 295" width="4.318" height="4.318" transform="translate(117.022 90.671)" fill="#efefef"/>
          <rect id="Rectangle_296" data-name="Rectangle 296" width="4.318" height="4.318" transform="translate(44.368 68.205)" fill="#efefef"/>
          <rect id="Rectangle_297" data-name="Rectangle 297" width="4.318" height="4.318" transform="translate(48.686 72.708)" fill="#efefef"/>
          <rect id="Rectangle_298" data-name="Rectangle 298" width="4.318" height="4.318" transform="translate(61.315 67.833)" fill="#efefef"/>
          <rect id="Rectangle_299" data-name="Rectangle 299" width="4.318" height="4.318" transform="translate(57.626 79.626)" fill="#efefef"/>
          <rect id="Rectangle_300" data-name="Rectangle 300" width="4.318" height="4.318" transform="translate(53.004 88.865)" fill="#efefef"/>
          <rect id="Rectangle_301" data-name="Rectangle 301" width="4.318" height="4.318" transform="translate(45.111 97.246)" fill="#efefef"/>
          <rect id="Rectangle_302" data-name="Rectangle 302" width="4.318" height="4.318" transform="translate(64.731 110.431)" fill="#efefef"/>
          <rect id="Rectangle_303" data-name="Rectangle 303" width="4.318" height="4.318" transform="translate(53.96 116.657)" fill="#efefef"/>
          <rect id="Rectangle_304" data-name="Rectangle 304" width="4.318" height="4.318" transform="translate(78.593 39.342)" fill="#efefef"/>
          <rect id="Rectangle_305" data-name="Rectangle 305" width="4.318" height="4.318" transform="translate(91.222 34.467)" fill="#efefef"/>
          <rect id="Rectangle_306" data-name="Rectangle 306" width="4.318" height="4.318" transform="translate(87.533 46.26)" fill="#efefef"/>
          <rect id="Rectangle_307" data-name="Rectangle 307" width="4.318" height="4.318" transform="translate(75.018 63.879)" fill="#efefef"/>
          <rect id="Rectangle_308" data-name="Rectangle 308" width="4.318" height="4.318" transform="translate(94.639 77.065)" fill="#efefef"/>
          <rect id="Rectangle_309" data-name="Rectangle 309" width="4.318" height="4.318" transform="translate(83.867 83.29)" fill="#efefef"/>
          <rect id="Rectangle_310" data-name="Rectangle 310" width="18.529" height="6.593" transform="translate(111.423 33.862)" fill="#77c9bd"/>
          <rect id="Rectangle_311" data-name="Rectangle 311" width="6.732" height="6.732" transform="translate(117.738 29.219)" fill="#77c99d"/>
        </g>
        <rect id="Rectangle_312" data-name="Rectangle 312" width="32.328" height="61.617" transform="translate(90.657 98.681)" fill="#77c99d"/>
        <g id="Group_397" data-name="Group 397" transform="translate(145.966 31.262)">
          <rect id="Rectangle_313" data-name="Rectangle 313" width="16.157" height="2.6" fill="#efefef"/>
          <rect id="Rectangle_314" data-name="Rectangle 314" width="16.157" height="2.6" transform="translate(0 6.593)" fill="#efefef"/>
          <rect id="Rectangle_315" data-name="Rectangle 315" width="16.157" height="2.6" transform="translate(0 13.186)" fill="#efefef"/>
          <rect id="Rectangle_316" data-name="Rectangle 316" width="16.157" height="2.6" transform="translate(0 19.778)" fill="#efefef"/>
          <rect id="Rectangle_317" data-name="Rectangle 317" width="16.157" height="2.6" transform="translate(0 26.371)" fill="#efefef"/>
          <rect id="Rectangle_318" data-name="Rectangle 318" width="16.157" height="2.6" transform="translate(0 32.964)" fill="#efefef"/>
          <rect id="Rectangle_319" data-name="Rectangle 319" width="16.157" height="2.6" transform="translate(0 39.557)" fill="#efefef"/>
          <rect id="Rectangle_320" data-name="Rectangle 320" width="16.157" height="2.6" transform="translate(0 46.15)" fill="#efefef"/>
          <rect id="Rectangle_321" data-name="Rectangle 321" width="16.157" height="2.6" transform="translate(0 52.742)" fill="#efefef"/>
          <rect id="Rectangle_322" data-name="Rectangle 322" width="16.157" height="2.6" transform="translate(0 59.335)" fill="#efefef"/>
        </g>
      </g>
      <g id="Group_403" data-name="Group 403" transform="translate(0 41.668)">
        <path id="Path_368" data-name="Path 368" d="M414.773,335.513c-2.114-21.821-21.14-38.04-40.446-48.428-9.858-5.3-20.431-9.948-28.048-18.151-11.966-12.887-14-33.928-4.731-48.872,3.457-5.57,8.2-10.2,12.82-14.853,9.468-9.526,18.925-20.155,25.56-31.808-1.92-3.87-6.582-6.772-11.129-7.138a10.477,10.477,0,0,0-7.216,1.681c-2.01,1.532-3.073,4.472-1.9,6.708-4.917-2.178-10.36-3.907-15.614-2.761s-9.992,6.1-9.153,11.411a29.88,29.88,0,0,0-19.3-12.064c-2.557-.42-5.311-.471-7.6.751-5.723,3.063-5.057,11.351-3.575,17.67-5.947-.128-12.257,1.689-16.08,6.246s-4.159,12.183.309,16.109c-5.72-1.232-10.883,5.213-10.208,11.026s5.328,10.408,10.368,13.382c-5.2,3.233-11.1,5.377-15.815,9.277s-8.112,10.428-5.894,16.134c-2.557.982-4.926-1.588-7.246-3.044a9.684,9.684,0,0,0-14.729,9.635c.356,2.376,1.595,4.661,1.3,7.045-.524,4.283-5.411,6.4-7.965,9.877-6.21,8.452,3.037,21.031-1.142,30.65-1.047,2.41-2.867,4.4-4.1,6.72-4.54,8.512.045,19.6,7.725,25.439s17.583,7.691,27.105,9.238c24.841,4.036,49.88,7.158,75.039,7.768,13.724.333,27.641-.108,40.838-3.893,8.3-2.378,16.158-6.036,23.981-9.679l5.466-2.545A34.426,34.426,0,0,0,414.773,335.513Z" transform="translate(-78.299 -166.211)" fill="#00c353"/>
        <path id="Path_369" data-name="Path 369" d="M410.094,356.978l5.466-2.545a34.429,34.429,0,0,0,1.368-13.531c-2.114-21.821-21.14-38.04-40.446-48.428-9.858-5.3-20.431-9.948-28.048-18.151-11.966-12.887-14-33.928-4.731-48.872,3.457-5.57,8.2-10.2,12.82-14.853,3.828-3.852,7.651-7.887,11.29-12.093-3.83-1.335-7.85-2.08-11.766-1.226-5.254,1.146-9.992,6.1-9.153,11.412a29.88,29.88,0,0,0-19.3-12.064c-2.557-.42-5.311-.471-7.6.751-5.723,3.063-5.057,11.351-3.575,17.67-5.947-.127-12.257,1.689-16.08,6.247s-4.159,12.182.309,16.108c-5.72-1.231-10.883,5.213-10.208,11.026s5.328,10.407,10.368,13.382c-5.2,3.233-11.1,5.377-15.815,9.276s-8.112,10.428-5.894,16.134c-2.557.982-4.926-1.587-7.246-3.044a9.684,9.684,0,0,0-14.729,9.636c.356,2.375,1.595,4.66,1.3,7.045-.523,4.282-5.411,6.4-7.965,9.877-6.21,8.452,3.037,21.031-1.142,30.65-1.047,2.41-2.867,4.4-4.1,6.719a15.3,15.3,0,0,0-1.713,5.712c7.625,5.618,17.358,7.445,26.725,8.967,24.841,4.036,49.88,7.158,75.039,7.768,13.724.333,27.641-.108,40.838-3.893C394.409,364.278,402.272,360.62,410.094,356.978Z" transform="translate(-80.454 -171.599)" fill="#09a84d"/>
        <g id="Group_402" data-name="Group 402" transform="translate(210.255 79.95)">
          <g id="Group_401" data-name="Group 401">
            <g id="Group_399" data-name="Group 399" transform="translate(0 19.292)">
              <path id="Path_370" data-name="Path 370" d="M425.832,370.642a34.427,34.427,0,0,0,1.368-13.531c-2.114-21.821-21.14-38.04-40.446-48.428-9.858-5.3-20.431-9.948-28.048-18.151a37.045,37.045,0,0,1-2.847-3.482c-4.548,2.514-9.391,4.562-13.389,7.867-4.718,3.9-8.112,10.428-5.894,16.134-2.557.982-4.926-1.587-7.245-3.045a9.684,9.684,0,0,0-14.729,9.636c.356,2.376,1.595,4.661,1.3,7.045-.524,4.283-5.411,6.4-7.966,9.877-6.209,8.452,3.037,21.031-1.142,30.65-1.047,2.41-2.867,4.4-4.1,6.72a15.293,15.293,0,0,0-1.713,5.712,40.664,40.664,0,0,0,12.818,6.049c13.87,1.612,27.791,2.726,41.748,3.064,13.724.333,27.641-.108,40.838-3.893,8.3-2.378,16.158-6.036,23.981-9.679Z" transform="translate(-300.981 -287.05)" fill="#31a35f"/>
            </g>
            <g id="Group_400" data-name="Group 400" transform="translate(46.878)">
              <path id="Path_371" data-name="Path 371" d="M358.12,268.06a15.29,15.29,0,0,0,4.281,8.586,42.3,42.3,0,0,1-3.719-13.085A10.012,10.012,0,0,0,358.12,268.06Z" transform="translate(-358.061 -263.56)" fill="#41b771"/>
            </g>
          </g>
        </g>
        <path id="Path_372" data-name="Path 372" d="M113.23,343.98a280.908,280.908,0,0,0,47.785-4.042,24.279,24.279,0,0,0,6.652-1.836,13,13,0,0,0,6.991-12.914c-.548-4.444-3.4-8.36-3.893-12.81-.283-2.591.258-5.205.158-7.81s-1.062-5.449-3.376-6.648c-3.177-1.647-7.233.535-10.569-.757a9.995,9.995,0,0,0-4.8-13.067c-3.122-1.35-7.259-1.275-9.069-4.156,3.594.7,7.679-1.44,8.686-4.96s-1.784-7.751-5.446-7.782a5.583,5.583,0,0,0-5.108,3.446,5.864,5.864,0,0,0-9.355-6.838c1.383-2.521,2.626-5.424,1.864-8.2-.8-2.926-3.716-4.882-6.695-5.46s-6.049-.039-9.035.5a9.075,9.075,0,0,0-2.622-9.036c-5.682,1.036-11.477,1.67-17.139,2.829-16.771,3.436-33.176,12.313-41.916,27.032-6.615,11.141-11.508,26.139-11.376,39.095.129,12.806,2.2,25.418,8.115,36.535,12.528.324,25.123-2.357,37.718-3.036C98.269,343.665,105.754,343.972,113.23,343.98Z" transform="translate(-44.969 -179.688)" fill="#00c353"/>
        <path id="Path_373" data-name="Path 373" d="M150.678,331.075c-.548-4.444-3.4-8.36-3.892-12.81-.284-2.591.257-5.205.158-7.81s-1.062-5.449-3.376-6.648c-3.177-1.647-7.233.535-10.569-.757a9.995,9.995,0,0,0-4.8-13.067c-3.122-1.351-7.258-1.275-9.069-4.156,3.594.7,7.68-1.44,8.686-4.96s-1.784-7.751-5.446-7.782a5.584,5.584,0,0,0-5.108,3.446,5.864,5.864,0,0,0-9.355-6.838c1.383-2.521,2.626-5.424,1.864-8.2-.8-2.926-3.716-4.882-6.695-5.461s-6.049-.038-9.035.5a9.075,9.075,0,0,0-2.622-9.036q-1.024.187-2.054.357c-13.482,4.428-25.839,12.574-33.021,24.669-6.615,11.141-11.508,26.139-11.376,39.095.129,12.806,2.2,25.417,8.115,36.535,12.528.324,25.123-2.357,37.718-3.036,7.465-.4,14.95-.1,22.426-.088a280.745,280.745,0,0,0,31.719-1.776A13.049,13.049,0,0,0,150.678,331.075Z" transform="translate(-44.969 -180.74)" fill="#41b771"/>
        <path id="Path_374" data-name="Path 374" d="M115.1,347.55c-.284-2.592.257-5.206.158-7.81s-1.062-5.45-3.376-6.649c-3.177-1.647-7.233.535-10.569-.757a9.995,9.995,0,0,0-4.8-13.067c-3.122-1.35-7.258-1.275-9.069-4.156,3.594.7,7.68-1.44,8.686-4.96s-1.784-7.751-5.446-7.782a5.584,5.584,0,0,0-5.108,3.446,5.864,5.864,0,0,0-9.355-6.837c1.383-2.521,2.626-5.425,1.864-8.2-.8-2.927-3.716-4.883-6.7-5.461s-6.049-.039-9.035.5a9.075,9.075,0,0,0-2.622-9.036q-1.024.186-2.054.356c-.407.134-.808.282-1.213.422-.04.067-.085.131-.125.2C49.732,288.9,44.84,303.9,44.971,316.856c.129,12.806,2.2,25.418,8.115,36.535,12.528.324,25.123-2.357,37.718-3.036,7.465-.4,14.95-.1,22.426-.088.814,0,1.628-.008,2.442-.015A15.361,15.361,0,0,1,115.1,347.55Z" transform="translate(-44.969 -185.974)" fill="#31a35f"/>
        <path id="Path_375" data-name="Path 375" d="M57.1,373.329c10.115,15.016,29.944,30.24,39.911,36.583C145.291,440.644,216.589,446.684,290.2,439.9c30.72-2.829,52.895-9.72,77.146-28.669,11.418-8.921,16.739-23.936,15.079-41.081a42.133,42.133,0,0,0-2.281-10.124H50.456A59.009,59.009,0,0,0,57.1,373.329Z" transform="translate(-45.95 -200.853)" fill="#00c353"/>
      </g>
    </g>
    <g id="Group_418" data-name="Group 418" transform="translate(23.609 227.231)">
      <g id="Group_416" data-name="Group 416" transform="translate(0 0)">
        <path id="Path_376" data-name="Path 376" d="M208.762,287.875l6.282-20.578H220.2l4.442,22.536Z" transform="translate(-56.701 -267.297)" fill="#f4c500"/>
        <g id="Group_415" data-name="Group 415" transform="translate(0 19.548)">
          <g id="Group_412" data-name="Group 412">
            <rect id="Rectangle_323" data-name="Rectangle 323" width="318.706" height="33.294" transform="translate(26.344 53.409)" fill="#070707"/>
            <g id="Group_406" data-name="Group 406" transform="translate(38.96 51.333)">
              <circle id="Ellipse_35" data-name="Ellipse 35" cx="29.47" cy="29.47" r="29.47" fill="#3f3d38"/>
              <circle id="Ellipse_36" data-name="Ellipse 36" cx="18.479" cy="18.479" r="18.479" transform="translate(10.99 10.99)" fill="#dbdbdb"/>
              <g id="Group_405" data-name="Group 405" transform="translate(14.467 14.467)">
                <path id="Path_377" data-name="Path 377" d="M105.094,383.715h2.814l3.989-11.073a14.857,14.857,0,0,0-12.694,0l3.989,11.073Z" transform="translate(-90.547 -371.218)" fill="#efefef"/>
                <path id="Path_378" data-name="Path 378" d="M106,392.537h-2.814L99.2,403.61a14.858,14.858,0,0,0,12.694,0l-3.989-11.073Z" transform="translate(-90.547 -375.028)" fill="#efefef"/>
                <path id="Path_379" data-name="Path 379" d="M121.055,381.758l-11.074,3.989v4.716l11.074,3.989a14.863,14.863,0,0,0,0-12.694Z" transform="translate(-92.473 -373.102)" fill="#efefef"/>
                <path id="Path_380" data-name="Path 380" d="M101.159,388.561v-2.814l-11.073-3.989a14.863,14.863,0,0,0,0,12.694l11.073-3.989Z" transform="translate(-88.663 -373.102)" fill="#efefef"/>
              </g>
              <circle id="Ellipse_37" data-name="Ellipse 37" cx="4.866" cy="4.866" r="4.866" transform="translate(24.604 24.604)" fill="#3f3d38"/>
            </g>
            <g id="Group_408" data-name="Group 408" transform="translate(274.692 55.738)">
              <circle id="Ellipse_38" data-name="Ellipse 38" cx="27.394" cy="27.394" r="27.394" fill="#3f3d38"/>
              <circle id="Ellipse_39" data-name="Ellipse 39" cx="17.178" cy="17.178" r="17.178" transform="translate(10.216 10.216)" fill="#dbdbdb"/>
              <g id="Group_407" data-name="Group 407" transform="translate(13.448 13.448)">
                <path id="Path_381" data-name="Path 381" d="M389.728,386.958h2.616l3.708-10.294a13.817,13.817,0,0,0-11.8,0l3.708,10.294Z" transform="translate(-376.206 -375.341)" fill="#efefef"/>
                <path id="Path_382" data-name="Path 382" d="M390.576,395.158H387.96l-3.708,10.294a13.816,13.816,0,0,0,11.8,0l-3.708-10.294Z" transform="translate(-376.206 -378.883)" fill="#efefef"/>
                <path id="Path_383" data-name="Path 383" d="M404.566,385.138l-10.294,3.708v4.384l10.294,3.708a13.817,13.817,0,0,0,0-11.8Z" transform="translate(-377.997 -377.092)" fill="#efefef"/>
                <path id="Path_384" data-name="Path 384" d="M386.072,391.462v-2.616l-10.294-3.708a13.816,13.816,0,0,0,0,11.8l10.294-3.708Z" transform="translate(-374.455 -377.092)" fill="#efefef"/>
              </g>
              <circle id="Ellipse_40" data-name="Ellipse 40" cx="4.523" cy="4.523" r="4.523" transform="translate(22.871 22.871)" fill="#3f3d38"/>
            </g>
            <g id="Group_411" data-name="Group 411">
              <g id="Group_410" data-name="Group 410">
                <g id="Group_409" data-name="Group 409" transform="translate(14.593)">
                  <path id="Path_385" data-name="Path 385" d="M334.52,342.126s12.253-1.935,14.4-9.028c38.692,3.44,84.477,9.243,92.215,13.328,2.364,8.6-5.158,10.552-5.158,10.552Z" transform="translate(-93.771 -298.605)" fill="#ffe41f"/>
                  <path id="Path_386" data-name="Path 386" d="M41.378,321.436s72.8-24.361,91.714-28.661,82.72.931,90.99,1.762c24.512,2.465,72.447,31.054,72.447,31.054l11.4,8.832-20.647,15.048H70.325Z" transform="translate(-41.378 -291.099)" fill="#ffe41f"/>
                  <path id="Path_387" data-name="Path 387" d="M164.261,296.186c-4.729.214-53.523,25-53.523,25l80.173,4.062,5.632-28.585C180.919,296.173,166.467,296.086,164.261,296.186Z" transform="translate(-53.775 -292.002)" fill="#232323"/>
                  <path id="Path_388" data-name="Path 388" d="M175.771,296.19c-3.091.14-25.008,10.778-39.82,18.131l61.011,3.091,4.087-20.744c-9.474-.3-18.511-.448-24.654-.5C176.135,296.177,175.921,296.183,175.771,296.19Z" transform="translate(-58.281 -292.006)" fill="#353535"/>
                  <path id="Path_389" data-name="Path 389" d="M253.972,300.027c-3.908-1.748-14.482-2.411-30.638-3.017L222.714,326l80.645,4.087S262.14,303.682,253.972,300.027Z" transform="translate(-73.788 -292.155)" fill="#232323"/>
                  <path id="Path_390" data-name="Path 390" d="M256.4,300.137c-2.99-1.338-8.13-1.876-19.613-2.512l-.467,21.894,57.215,2.9C281.955,314.44,261.662,302.489,256.4,300.137Z" transform="translate(-76.221 -292.265)" fill="#353535"/>
                  <path id="Path_391" data-name="Path 391" d="M340.279,329.112l-2.84-2.2s-34.811-20.76-60.273-28.423c-4.282.155-8.025.517-6.577,1.339,0,0,61.619,34.991,63.9,35.118C335.767,335.018,338.291,331.894,340.279,329.112Z" transform="translate(-82.288 -292.42)" fill="#232323"/>
                </g>
                <path id="Path_392" data-name="Path 392" d="M393.952,360.243a30,30,0,0,0-8.384-15.262L26.732,325.021a2.959,2.959,0,0,0-3.079,3.459l8.531,49.174s10.747,8.6,25.364,8.6H58.94a33.191,33.191,0,0,1,66.2,0H292.6a33.191,33.191,0,0,1,66.2,0h36.663S395.671,369.485,393.952,360.243Z" transform="translate(-23.609 -297.161)" fill="#ffc52e"/>
                <path id="Path_393" data-name="Path 393" d="M37.59,337.286l305.767,13.006-305.767-6.5Z" transform="translate(-26.108 -299.354)" fill="#ef9f20"/>
                <path id="Path_394" data-name="Path 394" d="M37.377,335.107c-1.641-.432-9.82-1.28-12.972-1.6l2.667,15.379c3.4.44,14.463,1.7,14.281-.671C41.139,345.424,39.419,335.644,37.377,335.107Z" transform="translate(-23.751 -298.679)" fill="#e27217"/>
                <path id="Path_395" data-name="Path 395" d="M37.377,335.107c-1.641-.432-9.82-1.28-12.972-1.6l.329,1.893c3.5.356,10.783,1.126,12.322,1.53,1.828.481,3.4,8.369,3.86,12.021a.791.791,0,0,0,.439-.736C41.139,345.424,39.419,335.644,37.377,335.107Z" transform="translate(-23.751 -298.679)" fill="#c96317"/>
                <path id="Path_396" data-name="Path 396" d="M470.2,366.113a27.069,27.069,0,0,0-2.966-8.1,79.762,79.762,0,0,1-15.3-.139c-4.873-.43,1.863,10.891,4.156,11.751,1.937.726,11.755.941,14.755.99C470.66,369,470.449,367.475,470.2,366.113Z" transform="translate(-99.853 -303.031)" fill="#fffae9"/>
                <path id="Path_397" data-name="Path 397" d="M451.925,357.873c-4.873-.43,1.863,10.891,4.156,11.751a31,31,0,0,0,6.134.7,67.516,67.516,0,0,1-3.4-12.014A54.32,54.32,0,0,1,451.925,357.873Z" transform="translate(-99.853 -303.031)" fill="#ef9f20"/>
              </g>
              <path id="Path_398" data-name="Path 398" d="M315.941,378.989s-4.657,6.018-4.657,12.037H154.8Z" transform="translate(-47.056 -306.807)" fill="#ef9f20"/>
            </g>
          </g>
          <g id="Group_413" data-name="Group 413" transform="translate(60.131 1.701)">
            <path id="Path_399" data-name="Path 399" d="M281.29,373.644H145.69l-.053-.37c-.044-.314-4.7-31.486-24.375-35.393-16.338-3.243-23.386-6.067-24.328-9.743-.457-1.781.54-3.671,3.049-5.776l.078-.052c2.182-1.134,53.511-27.761,58.529-28.764,5.137-1.026,45.029.333,50.414.709,1.289.09,2.877.162,4.717.245,6.873.311,16.287.737,20.439,2.649,3.511,1.617,27.991,16.994,44.19,27.169,7.5,4.708,13.417,8.427,13.879,8.655a1.09,1.09,0,0,1,.621.836c.137.872-.416,2.745-6.766,8.907-4.758,4.617-4.794,30.24-4.794,30.5Zm-134.859-.86h134c.02-3.531.331-26.1,5.052-30.684,5.887-5.714,6.609-7.563,6.516-8.158a.237.237,0,0,0-.153-.2c-.479-.237-5.115-3.145-13.955-8.7-16.18-10.163-40.632-25.523-44.092-27.117-4-1.841-13.316-2.263-20.118-2.571-1.846-.083-3.439-.155-4.739-.246-6.587-.46-45.305-1.7-50.185-.724-4.84.968-56.5,27.748-58.259,28.662-2.2,1.859-3.1,3.453-2.732,4.874,1.051,4.1,12.551,6.908,23.662,9.115C140.51,340.828,145.833,369.2,146.431,372.784Z" transform="translate(-96.826 -293.171)" fill="#db8b16"/>
          </g>
          <g id="Group_414" data-name="Group 414" transform="translate(153.041 2.702)">
            <rect id="Rectangle_324" data-name="Rectangle 324" width="79.409" height="0.86" transform="translate(0 78.999) rotate(-84.173)" fill="#db8b16"/>
          </g>
        </g>
      </g>
      <g id="Group_417" data-name="Group 417" transform="translate(119.051 73.937)">
        <rect id="Rectangle_325" data-name="Rectangle 325" width="6.112" height="6.112" fill="#353535"/>
        <rect id="Rectangle_326" data-name="Rectangle 326" width="6.112" height="6.112" transform="translate(6.112 6.112)" fill="#353535"/>
        <rect id="Rectangle_327" data-name="Rectangle 327" width="6.112" height="6.112" transform="translate(12.223)" fill="#353535"/>
        <rect id="Rectangle_328" data-name="Rectangle 328" width="6.112" height="6.112" transform="translate(18.335 6.112)" fill="#353535"/>
        <rect id="Rectangle_329" data-name="Rectangle 329" width="6.112" height="6.112" transform="translate(24.446)" fill="#353535"/>
        <rect id="Rectangle_330" data-name="Rectangle 330" width="6.112" height="6.112" transform="translate(30.558 6.112)" fill="#353535"/>
        <rect id="Rectangle_331" data-name="Rectangle 331" width="6.112" height="6.112" transform="translate(36.669)" fill="#353535"/>
        <rect id="Rectangle_332" data-name="Rectangle 332" width="6.112" height="6.112" transform="translate(42.781 6.112)" fill="#353535"/>
        <rect id="Rectangle_333" data-name="Rectangle 333" width="6.112" height="6.112" transform="translate(48.892)" fill="#353535"/>
        <rect id="Rectangle_334" data-name="Rectangle 334" width="6.112" height="6.112" transform="translate(55.004 6.112)" fill="#353535"/>
        <rect id="Rectangle_335" data-name="Rectangle 335" width="6.112" height="6.112" transform="translate(61.116)" fill="#353535"/>
        <rect id="Rectangle_336" data-name="Rectangle 336" width="6.112" height="6.112" transform="translate(67.227 6.112)" fill="#353535"/>
        <rect id="Rectangle_337" data-name="Rectangle 337" width="6.112" height="6.112" transform="translate(73.339)" fill="#353535"/>
        <rect id="Rectangle_338" data-name="Rectangle 338" width="6.112" height="6.112" transform="translate(79.45 6.112)" fill="#353535"/>
        <rect id="Rectangle_339" data-name="Rectangle 339" width="6.112" height="6.112" transform="translate(85.562)" fill="#353535"/>
        <rect id="Rectangle_340" data-name="Rectangle 340" width="6.112" height="6.112" transform="translate(91.673 6.112)" fill="#353535"/>
      </g>
    </g>
    <g id="Group_424" data-name="Group 424" transform="translate(231.804 201.971)">
      <path id="Path_400" data-name="Path 400" d="M319.993,420.557a8.477,8.477,0,0,1-5.914,5.063c-4.468.979-4.809,2.468-4.766,3.7s4.893.425,8.467,0,8.212-1.319,9.7-1.362c1.149-1.148-1.234-7.4-1.234-7.4Z" transform="translate(-282.868 -269.429)" fill="#232323"/>
      <path id="Path_401" data-name="Path 401" d="M330.379,430.046a13.038,13.038,0,0,0,.108-2.258l-6.117,1.47v1.391S330.144,430.36,330.379,430.046Z" transform="translate(-285.559 -270.722)" fill="#232323"/>
      <path id="Path_402" data-name="Path 402" d="M343.328,420.557a8.477,8.477,0,0,0,5.914,5.063c4.468.979,4.808,2.468,4.766,3.7s-4.893.425-8.467,0-8.213-1.319-9.7-1.362c-1.149-1.148,1.234-7.4,1.234-7.4Z" transform="translate(-287.553 -269.429)" fill="#232323"/>
      <path id="Path_403" data-name="Path 403" d="M335.532,427.788a8.633,8.633,0,0,0,.118,2.362c1.863.263,5.275.5,5.275.5l.1-1.431Z" transform="translate(-287.549 -270.722)" fill="#232323"/>
      <path id="Path_404" data-name="Path 404" d="M287.178,280.4s-2.212-2.425-2.171-3.7.426-4.382,1.362-5.4-.978-1.743-2-.595a7.18,7.18,0,0,0-1.4,2.424s-2.936-.723-4.553.213-1.574,1.872-.638,2.489c-1.4.872-.213,2.021.3,2.319-.979.808-.213,1.574.51,1.787-.765.724.511,1.4,1.149,1.276s3.149-.3,4,1.064S287.178,280.4,287.178,280.4Z" transform="translate(-277.113 -242.541)" fill="#e8bb80"/>
      <path id="Path_405" data-name="Path 405" d="M280.609,281.834c.729-.177,1.457-.315,1.536-.768s0-.649-.729-.885c.688-.158,1.043-.59,1.043-1.082s-.788-.433-.788-.433a.923.923,0,0,0,.473-.3c.454-.492.512-1.181-.63-1.574.787-.079,1.22-.472,1-1.24s-.788-.315-2.874-.315c-2.033,0-1.638-.855-1.617-.9-1.214.852-1.108,1.68-.254,2.242-1.4.872-.213,2.021.3,2.319-.979.808-.213,1.574.51,1.787-.682.645.258,1.255.922,1.289A4.11,4.11,0,0,0,280.609,281.834Z" transform="translate(-277.113 -243.296)" fill="#f2c58f"/>
      <g id="Group_423" data-name="Group 423" transform="translate(4.994 0)">
        <path id="Path_406" data-name="Path 406" d="M289.669,283.117l-2.042-2.609s-4.652,3.517-4.426,3.574,2.723,4.425,2.723,4.425Z" transform="translate(-283.193 -244.398)" fill="#3dd8d8"/>
        <path id="Path_407" data-name="Path 407" d="M314.427,331.852s1.266,22.53,1.266,37c0,10.5,2.025,22.884,3.485,36.365,1.858.76,8.964-.177,8.964-.177s-1.642-26.811-1.49-36.358c.136-8.61,2.886-23.488,1.788-25.48,7.345,22.87,3.928,61.732,3.928,61.732h8.6S343.315,379.863,344.1,368c.333-5.049-.727-28.763-1.806-36.742C341.585,326.035,314.427,331.852,314.427,331.852Z" transform="translate(-288.776 -253.08)" fill="#5b5953"/>
        <path id="Path_408" data-name="Path 408" d="M314.427,331.933s1.266,22.53,1.266,37c0,10.5,2.025,22.884,3.485,36.365,1.858.76,8.964-.177,8.964-.177s-1.642-26.811-1.49-36.358c.136-8.61,2.886-23.488,1.788-25.48,7.345,22.87,3.928,61.732,3.928,61.732h7.522s1.24-24.953,2.023-36.819c.333-5.049-4.481-28.386-5.56-36.365C335.647,326.606,314.427,331.933,314.427,331.933Z" transform="translate(-288.776 -253.161)" fill="#3f3d38"/>
        <path id="Path_409" data-name="Path 409" d="M337.217,331.827c-.242-1.79-2.9-2.34-6.282-2.29a51.649,51.649,0,0,0-9.83,2.119s-1.844,22.892-1.844,37.359c0,10.414,2.217,23.213,3.678,36.575a60.773,60.773,0,0,0,6.066-.473s-1.642-26.811-1.49-36.358c.128-8.068,2.55-21.639,1.951-24.955,7.129,22.935,3.766,61.207,3.766,61.207h7.522s1.24-24.953,2.023-36.819C343.11,363.143,338.3,339.806,337.217,331.827Z" transform="translate(-289.64 -253.161)" fill="#4a4841"/>
        <path id="Path_410" data-name="Path 410" d="M309.641,276.709s-7.262,10.438-9.3,13.5-10.438-8.963-10.438-8.963l-6.7,6.24s7.6,12.367,13.219,15.2,10.155-3.858,12.424-8.509S309.641,276.709,309.641,276.709Z" transform="translate(-283.195 -243.719)" fill="#605e58"/>
        <path id="Path_411" data-name="Path 411" d="M309.641,276.709s-7.07,10.575-9.3,13.5c-3.49,4.574-11.338-8.125-11.338-8.125l-5.795,5.4s7.6,12.367,13.219,15.2,10.155-3.858,12.424-8.509S309.641,276.709,309.641,276.709Z" transform="translate(-283.195 -243.719)" fill="#54524b"/>
        <path id="Path_412" data-name="Path 412" d="M323.81,270.83s-7.744,3.041-9.616,4.828c-.425,7.744-1.7,16.764-2.213,18.211.341,6.552-3.3,33.262-3.3,34.764,5.616,2.693,13.673-1.135,14.183-7.6,3.063,8.85,18.906,7.632,21.282,6.581-.008-14.5-2.489-35.5-4.758-37.658-.17-1.7,3.064-14.3,3.064-14.3l-12.255-4.828Z" transform="translate(-287.748 -242.669)" fill="#54524b"/>
        <path id="Path_413" data-name="Path 413" d="M323.81,270.83s-7.744,3.041-9.616,4.828c-.425,7.744-1.7,16.764-2.213,18.211.341,6.552-3.3,33.262-3.3,34.764,5.616,2.693,13.673-1.135,14.183-7.6,3.063,8.85,18.906,7.632,21.282,6.581-.008-14.5-2.489-35.5-4.758-37.658-.17-1.7,3.064-14.3,3.064-14.3l-12.255-4.828Z" transform="translate(-287.748 -242.669)" fill="#54524b"/>
        <path id="Path_414" data-name="Path 414" d="M345.068,297.62s3.531,10.222,3.7,30.063c-1.192-8.922-6.127-22.569-8.54-24.459,2.309.735,5.249,5.564,5.249,5.564S345.392,299.365,345.068,297.62Z" transform="translate(-293.388 -247.457)" fill="#494742"/>
        <path id="Path_415" data-name="Path 415" d="M345.883,275.658l-12.254-4.828h-5.721l17.284,6.9A10.723,10.723,0,0,1,345.883,275.658Z" transform="translate(-291.185 -242.669)" fill="#605e58"/>
        <path id="Path_416" data-name="Path 416" d="M335.869,271.827a25.064,25.064,0,0,1-7.51,13.585c-3.914-5.02-4.253-12.675-3.318-14.039S334.188,269.391,335.869,271.827Z" transform="translate(-290.595 -242.551)" fill="#3dd8d8"/>
        <path id="Path_417" data-name="Path 417" d="M330.646,281.241l1.684-1.616-2.255-2.553-2.468,1.955.894,2.258-1.44,2.52a15.654,15.654,0,0,0,1.737,2.842,22.664,22.664,0,0,0,2.461-2.622Z" transform="translate(-291.034 -243.784)" fill="#cd0008"/>
        <g id="Group_421" data-name="Group 421" transform="translate(29.915 8.481)">
          <path id="Path_418" data-name="Path 418" d="M334.7,267.279s.085,2.106,0,3.467c-.51,2.546-3.97,4.62-4.679,4.322-2.323-.976-3.746-4.244-3.746-4.244v-3.545Z" transform="translate(-320.808 -250.515)" fill="#e2ad6d"/>
          <g id="Group_420" data-name="Group 420">
            <g id="Group_419" data-name="Group 419" transform="translate(0 5.89)">
              <path id="Path_419" data-name="Path 419" d="M341.509,255.633s1.81-2.62,2.763-1.143-1.524,7.24-2.953,5.24A3.586,3.586,0,0,1,341.509,255.633Z" transform="translate(-323.392 -254.039)" fill="#e8bb80"/>
              <path id="Path_420" data-name="Path 420" d="M322.594,255.633s-1.81-2.62-2.763-1.143,1.524,7.24,2.953,5.24A3.586,3.586,0,0,0,322.594,255.633Z" transform="translate(-319.618 -254.039)" fill="#e8bb80"/>
            </g>
            <path id="Path_421" data-name="Path 421" d="M322.776,249.016s-1.143,8.86,0,11.242,2.953,6.192,6.573,6.288,7.812-4,8.955-7.336,0-10.765,0-10.765S325.539,244.539,322.776,249.016Z" transform="translate(-320.092 -246.866)" fill="#e8bb80"/>
            <path id="Path_422" data-name="Path 422" d="M329.328,261.476s-.122,1.092,1.711,1.132,2.108-.847,2.108-1.132c.354.462-.433,1.742-2.028,1.663S329.034,262.135,329.328,261.476Z" transform="translate(-321.339 -249.477)" fill="#d19c5d"/>
          </g>
        </g>
        <path id="Path_423" data-name="Path 423" d="M321.144,254.381s.537-2.213.82-3.857c.284-.794,2.269-2.269,2.468-3.461.6-1.305,3.224,1.022,8.462.227,1.608,1.248,1.778,2.817,3.14,3.621,1.05.677,1.276,3.485,1.276,3.485l.029.465s.56-3.139,1.645-3.95c.539-3.791,1.588-8.046-2.156-9.293-2.043-6.014-11.423-5.673-14.108-4.085s-5.374,3.29-6.753,3.29c1.458,3.518,3.444,3.291,3.444,3.291s-1.872.283-2.553-.454c.113,1.362,1.873,2.95,2.723,2.95-.283,1.532-.564,3.871-.165,4.482C320.157,250.951,321.123,253.244,321.144,254.381Z" transform="translate(-289.051 -236.54)" fill="#704c22"/>
        <ellipse id="Ellipse_41" data-name="Ellipse 41" cx="0.652" cy="0.78" rx="0.652" ry="0.78" transform="translate(35.156 15.913)" fill="#704c22"/>
        <ellipse id="Ellipse_42" data-name="Ellipse 42" cx="0.255" cy="0.312" rx="0.255" ry="0.312" transform="translate(35.553 16.225)" fill="#fffefd"/>
        <ellipse id="Ellipse_43" data-name="Ellipse 43" cx="0.652" cy="0.78" rx="0.652" ry="0.78" transform="translate(43.687 15.913)" fill="#704c22"/>
        <ellipse id="Ellipse_44" data-name="Ellipse 44" cx="0.255" cy="0.312" rx="0.255" ry="0.312" transform="translate(44.084 16.225)" fill="#fffefd"/>
        <g id="Group_422" data-name="Group 422" transform="translate(33.626 13.954)">
          <path id="Path_424" data-name="Path 424" d="M338.284,255.007a4.859,4.859,0,0,0-3.319-.623c-.908.17-.581-.894.383-.852S337.873,253.873,338.284,255.007Z" transform="translate(-325.977 -253.531)" fill="#704c22"/>
          <path id="Path_425" data-name="Path 425" d="M324.137,255.007a4.859,4.859,0,0,1,3.319-.623c.907.17.581-.894-.383-.852S324.548,253.873,324.137,255.007Z" transform="translate(-324.137 -253.531)" fill="#704c22"/>
        </g>
        <path id="Path_426" data-name="Path 426" d="M356.155,341.728s.443,5.549.283,6.467-5.389,3.12-6.524,1.248,2.043-8,2.043-8Z" transform="translate(-295.074 -255.289)" fill="#e8bb80"/>
        <path id="Path_427" data-name="Path 427" d="M356.88,338.465l-.34,3.574h-5.5l-.408-3.574Z" transform="translate(-295.246 -254.757)" fill="#3dd8d8"/>
        <path id="Path_428" data-name="Path 428" d="M349.475,328.385h7.386s.782-21.913-.013-29.742-7.3-21.746-7.828-21.955-3.858,7.488-3.745,14.3c.041,2.439,3.466,8.165,3.745,14.722C349.518,317.449,349.475,328.385,349.475,328.385Z" transform="translate(-294.289 -243.715)" fill="#605e58"/>
        <path id="Path_429" data-name="Path 429" d="M349.436,328.817h5.7s-.619-20.487-1.413-28.316-5.332-21.276-5.861-21.484-2.738,5.592-2.625,12.4c.041,2.439,3.466,8.166,3.745,14.722C349.479,317.882,349.436,328.817,349.436,328.817Z" transform="translate(-294.281 -244.131)" fill="#54524b"/>
      </g>
      <path id="Path_430" data-name="Path 430" d="M322.823,254.715s-.295,4.57,0,5.208,1.448,2.3,2.424,2.3,7.86-.17,9.184.468c1.494.383,3.851-3.54,3.693-6.961a1.269,1.269,0,0,1,.812.26,21.43,21.43,0,0,0-.717,4.6,6.811,6.811,0,0,1-2.854,5.677c-2.291,1.659-2.764,3.063-4.91,3.319a5.582,5.582,0,0,1-5.636-2.638c-1.574-2.255-2.936-3.064-2.936-4.6s.468-5.007,0-6.673S322.823,254.715,322.823,254.715Z" transform="translate(-285.098 -239.762)" fill="#704c22"/>
      <path id="Path_431" data-name="Path 431" d="M328.012,265.163a10.141,10.141,0,0,0,6.013.231C331.909,267.973,329.159,268.121,328.012,265.163Z" transform="translate(-286.21 -241.656)" fill="#efefef"/>
      <path id="Path_432" data-name="Path 432" d="M333.931,269.826s3.463.554,3.861,9.971c-1.759.681-2.815,1.135-2.815,1.135l1.4,3.744-9.862,15.312-6.894-18.318,2.516-1.759-2.516-3.233s3.4-5.679,5.466-6.183c-.632,3.261.623,8.623,2.325,13.474,2.893-2.383,7.668-7.93,6.1-12.766.031-.793.038-1.031.038-1.031Z" transform="translate(-284.71 -242.489)" fill="#44423d"/>
    </g>
    <g id="Group_425" data-name="Group 425" transform="translate(297.475 75.211)">
      <path id="Path_433" data-name="Path 433" d="M413.775,115.313a21.762,21.762,0,1,0-37.127,0Z" transform="translate(-360.003 -82.193)" fill="#fff"/>
      <path id="Path_434" data-name="Path 434" d="M383.05,118.828a13.256,13.256,0,1,0-25.436,0Z" transform="translate(-357.076 -85.708)" fill="#fff"/>
      <path id="Path_435" data-name="Path 435" d="M436.845,119.287a11.146,11.146,0,1,0-21,0Z" transform="translate(-367.465 -86.167)" fill="#fff"/>
    </g>
    <g id="Group_426" data-name="Group 426" transform="translate(203.236 99.419)">
      <path id="Path_436" data-name="Path 436" d="M281.539,134.573a15.05,15.05,0,1,0-25.675,0Z" transform="translate(-244.352 -111.669)" fill="#fff"/>
      <path id="Path_437" data-name="Path 437" d="M260.29,137a9.167,9.167,0,1,0-17.59,0Z" transform="translate(-242.328 -114.1)" fill="#fff"/>
      <path id="Path_438" data-name="Path 438" d="M297.492,137.321a7.709,7.709,0,1,0-14.52,0Z" transform="translate(-249.512 -114.417)" fill="#fff"/>
    </g>
    <g id="Group_427" data-name="Group 427" transform="translate(175.137 63.758)">
      <path id="Path_439" data-name="Path 439" d="M247.323,91.152a15.049,15.049,0,1,0-25.675,0Z" transform="translate(-210.137 -68.248)" fill="#fff"/>
      <path id="Path_440" data-name="Path 440" d="M226.075,93.583a9.167,9.167,0,1,0-17.59,0Z" transform="translate(-208.113 -70.679)" fill="#fff"/>
      <path id="Path_441" data-name="Path 441" d="M263.277,93.9a7.708,7.708,0,1,0-14.521,0Z" transform="translate(-215.297 -70.996)" fill="#fff"/>
    </g>
    <g id="Group_428" data-name="Group 428" transform="translate(124.558 91.093)">
      <path id="Path_442" data-name="Path 442" d="M185.737,124.435a15.049,15.049,0,1,0-25.675,0Z" transform="translate(-148.551 -101.531)" fill="#fff"/>
      <path id="Path_443" data-name="Path 443" d="M164.489,126.866a9.167,9.167,0,1,0-17.59,0Z" transform="translate(-146.527 -103.962)" fill="#fff"/>
      <path id="Path_444" data-name="Path 444" d="M201.691,127.183a7.708,7.708,0,1,0-14.521,0Z" transform="translate(-153.711 -104.279)" fill="#fff"/>
    </g>
  </g>
</svg>
