<svg xmlns="http://www.w3.org/2000/svg" width="413.105" height="255.888" viewBox="0 0 413.105 255.888">
  <g id="Group_612" data-name="Group 612" transform="translate(-18.634 -271.485)">
    <g id="Group_56" data-name="Group 56" transform="translate(18.634 271.485)">
      <g id="Group_54" data-name="Group 54" transform="translate(13.903 0)">
        <path id="Path_51" data-name="Path 51" d="M310.728,96.751c95.976-32.556,190-11.127,210.013,47.866S479.171,277.827,383.2,310.384s-190,11.127-210.014-47.866,41.57-133.209,137.545-165.766Z" transform="translate(-125.313 -70.99)" fill="#00c353" fill-rule="evenodd"/>
        <g id="Group_50" data-name="Group 50" transform="translate(0.785 37.513)">
          <path id="Path_52" data-name="Path 52" d="M621.062,139.838c11.728-3.979,23.075-1.776,25.347,4.919s-5.394,15.348-17.122,19.326-23.076,1.776-25.348-4.919,5.4-15.348,17.123-19.326Z" transform="translate(-248.391 -124.367)" fill="#ffc52e" fill-rule="evenodd"/>
          <path id="Path_53" data-name="Path 53" d="M598.615,119.929c5.962,2.045,9.623,7.121,8.177,11.337s-7.452,5.976-13.414,3.931-9.623-7.121-8.176-11.337,7.451-5.976,13.413-3.931Z" transform="translate(-243.136 -119.076)" fill="#ffc52e" fill-rule="evenodd"/>
          <path id="Path_54" data-name="Path 54" d="M628.214,119.958c3.2-1.085,6.437-.062,7.233,2.283s-1.152,5.129-4.351,6.213-6.437.063-7.233-2.284,1.152-5.128,4.351-6.213Z" transform="translate(-254.066 -119.202)" fill="#ffc52e" fill-rule="evenodd"/>
          <path id="Path_55" data-name="Path 55" d="M143.156,230.286c-4.656,8.92-12.558,14-17.65,11.338s-5.446-12.044-.789-20.964,12.558-14,17.651-11.337,5.445,12.044.789,20.963Z" transform="translate(-112.586 -144.299)" fill="#e6e6e6" fill-rule="evenodd"/>
          <path id="Path_56" data-name="Path 56" d="M120.338,188.878c4.711,1.85,7.47,6.05,6.162,9.383s-6.188,4.533-10.9,2.684-7.471-6.051-6.163-9.382,6.188-4.533,10.9-2.684Z" transform="translate(-109.113 -138.494)" fill="#e6e6e6" fill-rule="evenodd"/>
          <path id="Path_57" data-name="Path 57" d="M139.156,174.426c1.272-2.654,3.882-4.049,5.828-3.115s2.494,3.841,1.222,6.495-3.882,4.048-5.828,3.115-2.494-3.841-1.222-6.495Z" transform="translate(-117.382 -133.709)" fill="#e6e6e6" fill-rule="evenodd"/>
        </g>
        <g id="Group_51" data-name="Group 51" transform="translate(38.047 10.552)">
          <path id="Path_58" data-name="Path 58" d="M269,88.244c81.405,27.388,163.291-32.12,188.882,63.385,14.95,55.794-98.352,75.058-164.706,83.623s-125.2-21.241-131.434-66.573S187.6,60.856,269,88.244Z" transform="translate(-160.988 -81.543)" fill="#e6e6e6" fill-rule="evenodd"/>
          <path id="Path_59" data-name="Path 59" d="M188.395,97.185l-6.039,24.578,72.412,18.608-4.159-56.464q2.485.448,5.039,1.017l.422,5.736,38.578,9.056.794-4.777c1.645.239,3.288.462,4.928.653l-.809,4.869,38.5,3.061.852-6.8q2.52-.084,5.018-.19l-.949,7.572,21.084,3.227,1.283-11.844q2.516-.114,4.99-.205l-8.523,78.7,20.948,2.719,7.486-81.493q2.5.107,4.938.293l-7.1,77.275,3.268.681,2.13-22.219,36.558,11.253.6-55.973a53.455,53.455,0,0,1,4.887,3.8l-.392,36.294,21.018-2.748c.612,1.816,1.19,3.722,1.753,5.672l-22.835,2.985-.5,46.152q-2.393,1.49-4.958,2.908l.153-14.161-42.226-8.79-.52,5.666-7.35,26.911,4.112,7.962q-2.527.7-5.083,1.368l-4.427-8.572,7.9-28.915.047-.516L361.186,179.8l-3.04,28.068-23.8-3.879-3.053,26.464q-2.551.429-5.074.833l3.992-34.613-.43-24.08-38.851-9.458-1.88,65.407,6.988,2.251,16.171,2.635c-6.346.921-12.458,1.746-18.212,2.489-.228.029-.455.054-.682.082l-25.561-8.234.93,9.593q-2.506-.039-4.986-.147l-1.024-10.559-36.3-1.261-1.1,5.291q-2.411-.746-4.756-1.571l.811-3.9-11.481-.4a110.8,110.8,0,0,1-11.792-6.27l24.484.85,4.11-19.742-28.282-1.229-5.154,16.963q-2.2-1.535-4.275-3.166l6.96-22.91L191,184.5l9.722-25.165L174.632,153.2l-7.737,31.491a58.965,58.965,0,0,1-3-8.669L181.683,103.6a64.983,64.983,0,0,1,6.712-6.42Zm11.723,95.455,29.735,1.292,29.648.046-2.069-21.319L205.7,160.5l-8.632,22.343,4.64,4.573-1.587,5.224Zm59.95,7.195-28.371-.044-4.119,19.783,34.521,1.2-2.031-20.938Zm-57.223-45.992,7.312-18.927-29.191-7.5-4.945,20.125,26.824,6.3Zm12.246-17.659-7.274,18.827,49.021,11.52-.583-6.006-.01-.08L255.219,146.5l-40.127-10.312Zm41.427-39.433,4.654,63.189h0l2.217,22.854,22.016.894.985-34.269,7.3-43.942-37.171-8.726Zm42.077,9.514-7.3,43.914-.2,7.017,39.042,9.5,7.19-57.357L298.6,106.265Zm43.659,3.635-2.059,16.428,21.334,4.425,1.908-17.611L342.254,109.9Zm-2.788,22.24-4.8,38.282.475,26.622-.132,1.136,18.883,3.077,7-64.673-21.431-4.445Zm56.763,42.33,33.611,7,.139-12.944L397.75,158.6l-1.521,15.869ZM263.959,188.679l3.183,32.808,17.018,5.482,1.075-37.426-21.276-.864Z" transform="translate(-161.805 -82.208)" fill="#fff" fill-rule="evenodd"/>
        </g>
        <g id="Group_52" data-name="Group 52" transform="translate(0 86.292)">
          <path id="Path_60" data-name="Path 60" d="M179.63,380.487c-43.638,1.243-71.61,3.159-71.61,5.308,0,2.406,35.05,4.52,87.9,5.724a101.591,101.591,0,0,1-16.295-11.032Z" transform="translate(-108.02 -241.494)" fill="#e6e6e6" fill-rule="evenodd"/>
          <path id="Path_61" data-name="Path 61" d="M326.079,378.429c-44.763,0-85.9.553-118.372,1.478A101.577,101.577,0,0,0,224,390.94c29.484.672,64.507,1.062,102.079,1.062,26.691,0,52.092-.2,75.14-.552a294.461,294.461,0,0,0,27.961-11.935c-29.7-.687-65.092-1.085-103.1-1.085Z" transform="translate(-136.101 -240.914)" fill="#00c353" fill-rule="evenodd"/>
          <path id="Path_62" data-name="Path 62" d="M205.7,233.5c-17.386,5.707-46.849,8.759-68.217,15.263S108.02,267.346,108.02,270.8v21.1c0,5.574,7.1,11.083,17.784,17.253s20.173,4.911,25.614,4.911h2.336a34.886,34.886,0,1,1,65.649,0H403.944a34.89,34.89,0,0,1,60.9-32.551,180.982,180.982,0,0,0,17.514-19.653,33.4,33.4,0,0,1-.339-4.466c0-13.4-25.88-40.08-29.994-44.327s-9.29-9.29-8.759-11.281,6.211-.936,6.636-2.521-12.608-4.247-27.074-6.636-58.527-6.9-87.858-5.308-45.788,5.707-69.145,16.59-37.294,20.306-60.121,29.6Z" transform="translate(-108.02 -186.985)" fill="#ffc52e" fill-rule="evenodd"/>
          <path id="Path_63" data-name="Path 63" d="M365.343,326.1c-37.095,0-67.166.84-67.166,1.875s30.071,1.875,67.166,1.875,67.165-.84,67.165-1.875-30.071-1.875-67.165-1.875Z" transform="translate(-161.586 -226.172)" fill="#ffb900" fill-rule="evenodd"/>
          <path id="Path_64" data-name="Path 64" d="M617.211,285.2c0-.146-.006-.294-.006-.44,0-.2-.007-.4-.018-.607a47.359,47.359,0,0,0-14.538,5.417c-1.335.792-2.727,1.793-4.214,2.863a45.584,45.584,0,0,1-10.5,6.14q.6.311,1.192.646a49.349,49.349,0,0,0,9.909-5.952c1.459-1.049,2.823-2.031,4.138-2.811a46.185,46.185,0,0,1,14.038-5.256Z" transform="translate(-243.21 -214.358)" fill="#ea8e00" fill-rule="evenodd"/>
          <path id="Path_65" data-name="Path 65" d="M618.577,268.611c-2.27-6.164-7.345-13.554-12.647-20.236-5.735-.8-8.194-.913-8.681.659-.644,2.074,10.19,16.979,15.942,18.8a18.944,18.944,0,0,0,5.387.776Z" transform="translate(-245.826 -204.117)" fill="#ff4646" fill-rule="evenodd"/>
          <path id="Path_66" data-name="Path 66" d="M140.894,271.921q-1.33.377-2.624.77c-15.4,4.687-23.906,12.269-27.456,17.431,8.661,3.637,29.629-1.916,34.809-3.212,6.176-1.544,4.751-10.214,2.969-12.409-1.95-1.894-4.632-2.63-7.7-2.581Z" transform="translate(-108.807 -210.91)" fill="#fff" fill-rule="evenodd"/>
          <path id="Path_67" data-name="Path 67" d="M507.29,254.5c-4.545,4.971-63,4.779-78.838,4.782-33.138.005-107.8,6.066-107.8,5.051,0-1.868,10.854-2.369,35.82-4.908,12.693-1.292,29.034-2.627,49.45-3.718,60.572-3.237,107.978-8.441,101.364-1.207Z" transform="translate(-167.919 -204.975)" fill="#ffe45f" fill-rule="evenodd"/>
          <path id="Path_68" data-name="Path 68" d="M140.625,277.006c-2.918,0-7.711,3.111-10.7,6.948s-3.053,6.947-.134,6.947,7.712-3.11,10.7-6.947,3.053-6.948.134-6.948Z" transform="translate(-113.546 -212.343)" fill="#f1f1f1" fill-rule="evenodd"/>
          <path id="Path_69" data-name="Path 69" d="M553.067,302.6a32.2,32.2,0,0,0-26.312,50.748,244.093,244.093,0,0,0,52.428-37.38A32.151,32.151,0,0,0,553.067,302.6Z" transform="translate(-224.319 -219.552)" fill-rule="evenodd"/>
          <path id="Path_70" data-name="Path 70" d="M204.76,302.6a32.194,32.194,0,1,0,32.194,32.194A32.195,32.195,0,0,0,204.76,302.6Z" transform="translate(-126.202 -219.552)" fill-rule="evenodd"/>
          <path id="Path_71" data-name="Path 71" d="M510.7,204.434c4.458,3.678,10.7,21.065,11.815,27.418,0,0-72.336,3.566-83.147,4.9l1.671-39.9s64.311,3.344,69.661,7.58Z" transform="translate(-201.359 -189.765)" fill="#fff" fill-rule="evenodd"/>
          <path id="Path_72" data-name="Path 72" d="M510.788,205.387c2.785,2.3,6.265,9.943,8.758,16.908-5.7,2.125-13.339,2.23-17.226,4.89-2.475,1.694-2.08,4.156-.47,6.678-15.52.81-36.313,1.937-49.867,2.842,7.892-6.906,2.809-14.83,8.431-18.946,7.822-5.726,26.426,0,31.751-6.106,1.86-2.132,2.444-5.781,2.417-9.627,8.306,1.008,14.674,2.148,16.206,3.361ZM439.68,232.328l.087-2.067a8.017,8.017,0,0,0,2.426-.542A5.419,5.419,0,0,0,445.116,227c.843-1.748,1.05-4.295.241-7.842-1.517-6.659,1.863-9.627,7.1-10.821,4.66-1.062,10.792-.614,16.013-.233,4.4.321,8.124.593,9.3-.085,2.187-1.256,1.478-3.532.16-5.828-.368-.639-.8-1.3-1.235-1.955q1.3.11,2.593.224.215.35.422.708c1.864,3.244,2.746,6.527-.916,8.632-1.735,1-5.738.7-10.471.358-5.088-.372-11.063-.808-15.418.184-4.081.93-6.718,3.227-5.548,8.365.922,4.044.639,7.043-.4,9.188a7.429,7.429,0,0,1-4,3.732,10.139,10.139,0,0,1-3.286.7Z" transform="translate(-201.447 -190.718)" fill="#f1f1f1" fill-rule="evenodd"/>
          <path id="Path_73" data-name="Path 73" d="M388.209,196.854l-7.467,41.463s-86.268,8.136-87.272,7.133,6.112-20.725,6.669-22.1S332.7,201.2,388.209,196.854Z" transform="translate(-160.233 -189.765)" fill="#fff" fill-rule="evenodd"/>
          <path id="Path_74" data-name="Path 74" d="M388.209,196.854l-1.975,10.966c-8.765.845-17.688,1.169-19.1,4.851-3.55,9.269,11.448,8.949,8.085,21.5a8.677,8.677,0,0,1-3.371,4.979c-22.051,2.045-77.577,7.107-78.381,6.3-.253-.253.011-1.7.556-3.739,17.8-6.406,39.585-4.707,39.585-9.859,0-6.914-15.186-5.621-13.213-13.44,1.921-7.62,33.048-8.463,34.64-16.678a242.77,242.77,0,0,1,33.171-4.88Zm-90.18,32.355c.44-1.263.847-2.411,1.186-3.354a14,14,0,0,1,7.24-.822c1.729.13,3.1.233,3.538-.656s-.419-2.378-1.367-3.983c-.356-.6-.72-1.218-1.047-1.847q.866-.468,1.83-.967c.3.6.649,1.192.989,1.766,1.246,2.11,2.389,4.045,1.44,5.948-1.062,2.13-3.037,1.98-5.536,1.791-2.4-.181-5.43-.409-8.273,2.123Z" transform="translate(-160.233 -189.765)" fill="#f1f1f1" fill-rule="evenodd"/>
          <path id="Path_75" data-name="Path 75" d="M286.109,237.752s-27.947,17.247-29.171,19.3,24,0,24,0a101.033,101.033,0,0,1,5.175-19.3Z" transform="translate(-149.957 -201.286)" fill="#fff" fill-rule="evenodd"/>
          <path id="Path_76" data-name="Path 76" d="M317.518,249c-.3,5.316-4.546,6.674-7.5,6.32s-10.273-2.9-10.273-6.32,4.251-7.2,8.886-7.2,9.146,2.451,8.885,7.2Z" transform="translate(-162.028 -202.427)" fill="#fc0" fill-rule="evenodd"/>
          <path id="Path_77" data-name="Path 77" d="M545.93,259.363c.06,2.184,2.48,3.189-5.018,2.952s-14.583,1.653-13.993-.649,5.7-3.838,9.7-3.838,9.732-1.063,9.314,1.535Z" transform="translate(-226.012 -206.88)" fill="#fff" fill-rule="evenodd"/>
          <path id="Path_78" data-name="Path 78" d="M410.641,267.746c.059,2.184,2.48,3.188-5.018,2.952s-14.583,1.654-13.993-.649,5.7-3.837,9.7-3.837,9.732-1.063,9.313,1.535Z" transform="translate(-187.902 -209.242)" fill="#fff" fill-rule="evenodd"/>
          <path id="Path_79" data-name="Path 79" d="M480.383,231.852s5.832,22.2,2.507,28.234-11.77,6.825-23.343,17.8S448.371,303.236,444.909,305s-61.225,1.669-61.225,1.669-88.57,3.251-91.218.791-2.647-28.957-2.647-36.387-.35-21,2.606-25.687m100.691-48.535-4.4,39.9c-1.512,5.958-5.033,41.382-5.033,69.917" transform="translate(-159.228 -189.765)" fill="none" stroke="#ea8e00" stroke-miterlimit="22.926" stroke-width="2.835"/>
          <path id="Path_80" data-name="Path 80" d="M114.457,313.834c0,.77,23.438,3.326,28.273,1.54s4.466-5.236-.708-5.236-10.934,2.123-16.909,2.526-10.656.4-10.656,1.17Z" transform="translate(-109.833 -221.677)" fill="#ffe45f" fill-rule="evenodd"/>
          <path id="Path_81" data-name="Path 81" d="M131.5,330.289s-.609,5.43-.166,7.259,1.274,3.546,3.436,3.49,5.529-2.881,5.529-7.2-8.8-3.546-8.8-3.546Z" transform="translate(-114.543 -227.338)" fill="#fff" fill-rule="evenodd"/>
          <path id="Path_82" data-name="Path 82" d="M126.153,328c5.6.554,11.74-.689,13.786,2.044,1.842,2.46,1.485,5.646-2.039,10.367" transform="translate(-113.128 -226.708)" fill="none" stroke="#ea8e00" stroke-miterlimit="22.926" stroke-width="2.126"/>
          <path id="Path_83" data-name="Path 83" d="M557.646,318.854a20.516,20.516,0,0,0-16.064,33.279,245.393,245.393,0,0,0,33.411-23.721,20.5,20.5,0,0,0-17.347-9.559Z" transform="translate(-228.898 -224.132)" fill="#333" fill-rule="evenodd"/>
          <path id="Path_84" data-name="Path 84" d="M583.407,331.626a17.906,17.906,0,0,0-9.056-7.5,20.42,20.42,0,0,1,2.62,10.036,20.626,20.626,0,0,1-.184,2.746q3.389-2.6,6.619-5.281Z" transform="translate(-239.384 -225.617)" fill="#666" fill-rule="evenodd"/>
          <path id="Path_85" data-name="Path 85" d="M209.34,318.854a20.517,20.517,0,1,0,20.517,20.517,20.517,20.517,0,0,0-20.517-20.517Z" transform="translate(-130.782 -224.132)" fill="#333" fill-rule="evenodd"/>
          <path id="Path_86" data-name="Path 86" d="M202.544,357.031a17.844,17.844,0,0,0,23.889-26.286,20.528,20.528,0,0,1-23.889,26.286Z" transform="translate(-134.647 -227.481)" fill="#666" fill-rule="evenodd"/>
          <path id="Path_87" data-name="Path 87" d="M155.655,279.029c-1.934,0-5.109,2.061-7.091,4.6s-2.023,4.6-.089,4.6,5.109-2.06,7.091-4.6,2.023-4.6.089-4.6Z" transform="translate(-119.015 -212.913)" fill="#ff6" fill-rule="evenodd"/>
          <path id="Path_88" data-name="Path 88" d="M302.252,255.436c1.889,1.063,3.321,1.446,1.6,6.007s-2.785,5.269-7.773,5.269-4.574-3.542-1.5-6.73,5.491-5.55,7.676-4.546Z" transform="translate(-159.929 -206.202)" fill="#fa0" fill-rule="evenodd"/>
        </g>
        <g id="Group_53" data-name="Group 53" transform="translate(212.237)">
          <path id="Path_89" data-name="Path 89" d="M422.856,138.42c2.9,0,5.258.469,5.258,1.049s-2.354,1.049-5.258,1.049-5.258-.469-5.258-1.049,2.354-1.049,5.258-1.049Z" transform="translate(-407.464 -87.012)" fill="#ccc" fill-rule="evenodd"/>
          <path id="Path_90" data-name="Path 90" d="M418.882,66.852a15.392,15.392,0,0,1,15.393,15.393c0,8.5-15.393,37.064-15.393,37.064s-15.393-28.563-15.393-37.064a15.392,15.392,0,0,1,15.393-15.393Z" transform="translate(-403.489 -66.852)" fill="#ff4646" fill-rule="evenodd"/>
          <path id="Path_91" data-name="Path 91" d="M422.856,80.961a5.258,5.258,0,1,1-5.258,5.258,5.258,5.258,0,0,1,5.258-5.258Z" transform="translate(-407.464 -70.826)" fill="#00c353" fill-rule="evenodd"/>
        </g>
      </g>
      <g id="Group_55" data-name="Group 55" transform="translate(0 30.241)">
        <path id="Path_92" data-name="Path 92" d="M197.328,127.083s-.2,6.725-2.548,8.763-3.26-8.865-3.26-8.865Z" transform="translate(-117.638 -114.031)" fill-rule="evenodd"/>
        <path id="Path_93" data-name="Path 93" d="M155.548,410.558H153.9c-36.027,0-65.232,2.016-65.232,4.5s29.206,4.5,65.232,4.5c12.8,0,24.731-.254,34.8-.694h0c18.284-.8,30.429-2.2,30.429-3.808C219.129,412.611,190.812,410.619,155.548,410.558Z" transform="translate(-88.664 -193.913)" fill="#e6e6e6" fill-rule="evenodd"/>
        <path id="Path_94" data-name="Path 94" d="M175.134,177.792c.027-2.74.117-5.818-1.4-8.278s-8.6-.914-13.94-1.108-17.978-3.557-19.864.915a9.137,9.137,0,0,0,0,7.748,40.133,40.133,0,0,0-7.541,8.615c-2.858,4.716-5.19,13.711-6.765,16.793s-3.091,10.735-2.158,15.933.7,11.117,2.683,13.042,7.989,3.974,16.736,4.466,28,4.784,28-7.172,8.549-19.676,4.248-50.954Z" transform="translate(-98.387 -125.307)" fill="#039" fill-rule="evenodd"/>
        <path id="Path_95" data-name="Path 95" d="M177.493,178.936a19.718,19.718,0,0,0-.68-6.767c-2.677.038-5.891.4-8.643.3-5.341-.193-17.978-3.557-19.864.914a9.137,9.137,0,0,0,0,7.748,40.11,40.11,0,0,0-7.541,8.615c-2.857,4.716-5.19,13.711-6.765,16.794s-3.091,10.735-2.158,15.933c.913,5.084.71,10.859,2.557,12.91a50.67,50.67,0,0,0,10.846,1.679c8.747.491,28,4.784,28-7.172s8.549-19.676,4.248-50.954Z" transform="translate(-100.746 -126.452)" fill="#00258b" fill-rule="evenodd"/>
        <path id="Path_96" data-name="Path 96" d="M229.05,407.816s.806,6.682-5.556,6.473A99.594,99.594,0,0,1,212,413.241v1.048H201.907v-4.758l27.143-1.715Z" transform="translate(-120.564 -193.141)" fill="#630" fill-rule="evenodd"/>
        <path id="Path_97" data-name="Path 97" d="M188.727,277.171l9.118,82.776h-10.4l-15.52-59.066-12.89,62.339H148.555l-.075-86.049Z" transform="translate(-105.514 -156.339)" fill-rule="evenodd"/>
        <path id="Path_98" data-name="Path 98" d="M197.334,224.833c2.226,6.37,6.679,12.432,13.951,11.82s0-19.6,0-19.6l-13.951,7.778Z" transform="translate(-119.276 -139.404)" fill="#fc9" fill-rule="evenodd"/>
        <path id="Path_99" data-name="Path 99" d="M216.295,223.933a66.719,66.719,0,0,0-2.133-6.878l-6.611,3.686c-.1,4.339,1.108,8.776,6.4,9l2.344-5.8Z" transform="translate(-122.152 -139.404)" fill="#ffba87" fill-rule="evenodd"/>
        <path id="Path_100" data-name="Path 100" d="M168.391,159.008,166.717,179H180.6s-3.17-11-3.17-16.638l-9.034-3.35Z" transform="translate(-110.651 -123.053)" fill="#fc9" fill-rule="evenodd"/>
        <path id="Path_101" data-name="Path 101" d="M168.911,159.008l-.349,4.169a33.651,33.651,0,0,0,10.493,7.447,45.216,45.216,0,0,1-1.11-8.266l-9.034-3.35Z" transform="translate(-111.171 -123.053)" fill="#f96" fill-rule="evenodd"/>
        <path id="Path_102" data-name="Path 102" d="M185.932,121.93s5.057,33.146-11.4,33.146S160,132.444,160,126.746V121.93Z" transform="translate(-108.74 -112.608)" fill="#fc9" fill-rule="evenodd"/>
        <path id="Path_103" data-name="Path 103" d="M155.154,131.673c5.093.405,8.821-2.965,8.821-5.751a12.878,12.878,0,0,0-1.562-5.522,19.756,19.756,0,0,0,14.073,5.68c8.76-.152,12.636-4.687,12.126-10.394-.331-3.7-3.722-6.734-6.846-6.734s-8.556,2.33-12.359,2.33-8.029-1.621-10.7.659-2.471,4.558-2.471,4.558-6.506,1.621-6.506,7.244,4.27,8.3,5.269,8.245Z" transform="translate(-105.865 -108.952)" fill-rule="evenodd"/>
        <path id="Path_104" data-name="Path 104" d="M176.575,143.413a1.047,1.047,0,1,1-1,1.046,1.024,1.024,0,0,1,1-1.046Z" transform="translate(-113.146 -118.66)" fill-rule="evenodd"/>
        <path id="Path_105" data-name="Path 105" d="M190.587,143.6a1.047,1.047,0,1,1-1,1.046,1.024,1.024,0,0,1,1-1.046Z" transform="translate(-117.093 -118.712)" fill-rule="evenodd"/>
        <path id="Path_106" data-name="Path 106" d="M184.611,143.731c1.626,2.928,2.717,5.247-2.311,6.142a.393.393,0,0,1-.471-.274c-.021-.178.157-.346.4-.373,4.207-.744,3.013-2.63,1.593-5.185-.1-.159,0-.357.216-.442a.486.486,0,0,1,.576.133Z" transform="translate(-114.908 -118.701)" fill="#f96" fill-rule="evenodd"/>
        <path id="Path_107" data-name="Path 107" d="M141.216,188.137c1.395-2.073,16.78-10.254,16.78-10.254s2.474,5.127,7.218,5.127,4.413-5.657,4.413-5.657,16.305,4.336,17.841,6.005,8.3,27.635,8.3,27.635-4.464,3.454-13.114,2.936c0,0,2.092,21.359,2.791,25.965s2.189,7.927,1.772,8.447c-2.834,3.518-11.94,4.836-15.956,5.378a51.122,51.122,0,0,1-29.318-4.8c-1.116-.575,1.717-25.089,2.554-29.465,0,0-10.533-2.533-10.6-3.224S139.891,189.979,141.216,188.137Z" transform="translate(-101.404 -128.22)" fill="#ffc52e" fill-rule="evenodd"/>
        <path id="Path_108" data-name="Path 108" d="M208.711,219.2a25.278,25.278,0,0,1-3.571.356l-.593-22.369c4.428,7.478,4.3,18.86,4.164,22.014Z" transform="translate(-121.308 -133.807)" fill="#ffc52e" fill-rule="evenodd"/>
        <path id="Path_109" data-name="Path 109" d="M165.181,178.848l.381-.206a10.958,10.958,0,0,0,3.467,4.044,7.71,7.71,0,0,0,5.291,1.682c3.561-.431,4.765-2.293,5.037-4.159a7.915,7.915,0,0,0-.088-2.544l.475.129a8.052,8.052,0,0,1,.057,2.458c-.294,2.012-1.589,4.018-5.417,4.482a8.2,8.2,0,0,1-5.652-1.771,11.448,11.448,0,0,1-3.553-4.115Z" transform="translate(-110.219 -128.308)" fill="#ea511e" fill-rule="evenodd"/>
        <path id="Path_110" data-name="Path 110" d="M212.917,215.692c-1.039,5.062.687,9.523,3.3,9.671s5.09-1.058,8.949-8.162,7.5-25.416,8.089-26.457,6.308-.062,7.94-2.082,2.746-11.309,0-11.309-11.551,3.653-13.456,10.941-9.792,13.07-14.817,27.4Z" transform="translate(-123.579 -128.22)" fill="#fc9" fill-rule="evenodd"/>
        <path id="Path_111" data-name="Path 111" d="M211.179,384.005c3.759,1.393,1.688,8.862,2.608,10.254s3.222,2.342,6.673,1.646,9.281-.063,9.281,4.115-1.481,5.7-9.281,5.7-18.588.013-19.064-1.456-.493-14.245.481-15.638c.306-.365,2.9.382,3.905-.5,1.5-1.327,1.9-4.313,5.4-4.114Z" transform="translate(-120.331 -186.431)" fill="#f63" fill-rule="evenodd"/>
        <path id="Path_112" data-name="Path 112" d="M228.647,400a4.973,4.973,0,0,0-3.5,2.8.481.481,0,0,1-.578.215.354.354,0,0,1-.26-.477,5.712,5.712,0,0,1,4.341-3.279.377.377,0,1,1,0,.74Z" transform="translate(-126.865 -190.729)" fill-rule="evenodd"/>
        <path id="Path_113" data-name="Path 113" d="M223.248,400.538a5.369,5.369,0,0,0-3.354,2.063.491.491,0,0,1-.593.185.347.347,0,0,1-.224-.489,6.187,6.187,0,0,1,4.172-2.5.377.377,0,1,1,0,.74Z" transform="translate(-125.389 -190.882)" fill-rule="evenodd"/>
        <path id="Path_114" data-name="Path 114" d="M219.029,399.453c-.623-.041-1.741.886-2.083,1.2a.505.505,0,0,1-.616.125.336.336,0,0,1-.152-.508c.713-.678,1.866-1.667,3.089-1.531a.367.367,0,0,1,.312.455.465.465,0,0,1-.551.257Z" transform="translate(-124.566 -190.581)" fill-rule="evenodd"/>
        <path id="Path_115" data-name="Path 115" d="M210.846,397.331a12.586,12.586,0,0,1,2.4-2.9c-2.886-.232-5.118-1.357-2.554-2.275.968-.347,2.676.116,4.4.828,2.844-1.92,5.529-2.4,4.277-.363a3.616,3.616,0,0,1-2.018,1.422,24.532,24.532,0,0,1,2.734,1.62.328.328,0,0,1-.063.521.515.515,0,0,1-.631-.052,32.918,32.918,0,0,0-3.251-1.8,11.2,11.2,0,0,1-1.5.135,16.39,16.39,0,0,0-2.918,3.026.458.458,0,0,1-.537.279.374.374,0,0,1-.338-.443Zm3.368-3.714.129-.1c-1.82-.75-3.488-1.16-3.747-.328.3.325,1.912.5,3.617.427Zm1.794-.233.081.038c1.383-.241,2.506-.7,2.6-1.441a6.989,6.989,0,0,0-2.68,1.4Z" transform="translate(-122.722 -188.488)" fill-rule="evenodd"/>
        <path id="Path_116" data-name="Path 116" d="M193.869,178.1c2.954.692,4.552,2.834,5.909,7.711s3.553,18.981,2.875,26.462a79.836,79.836,0,0,1-3,14.781s-1.436-14.385-1.8-17.549-4.033-22.211-5.71-26.231-2.795-4.563-2.516-5.173,4.233,0,4.233,0Z" transform="translate(-117.095 -128.353)" fill="#006" fill-rule="evenodd"/>
        <path id="Path_117" data-name="Path 117" d="M143.97,410.694l-1.914.064c.114,3.257-.721,7.842,9.422,7.978s9.421-3.311,9.461-6.935l-16.97-1.107Z" transform="translate(-103.704 -193.952)" fill="#630" fill-rule="evenodd"/>
        <path id="Path_118" data-name="Path 118" d="M153.221,180.976c2.781-1.452,4.105-1.279,4.434-.871a17.139,17.139,0,0,1,3.367,8.423c.575,4.879,1.525,15.334,1.067,21.87s-7.587,21.085-15.59,21.956V219.8c.647.164,1.189.289,1.547.348,1.979.327,6.85.459,8.847-.431,0,0,1.046-7.678,1.046-11.567,0-3.157-2.079-17.7-3.979-20.5s-2.816-3.369-2.885-3.834.317-1.771,2.146-2.846Z" transform="translate(-104.956 -128.914)" fill="#006" fill-rule="evenodd"/>
        <path id="Path_119" data-name="Path 119" d="M154.22,142.341a3.83,3.83,0,0,0,4.1,3.751c2.295,0,3.066-3.1,3.066-3.8s-1-3.515-3.583-3.515a3.4,3.4,0,0,0-3.584,3.564Z" transform="translate(-107.128 -117.354)" fill="#fc9" fill-rule="evenodd"/>
        <path id="Path_120" data-name="Path 120" d="M157.891,140.861a2.184,2.184,0,0,1,2.67,2.207c-.026.264-1.751.276-1.381.746a1.091,1.091,0,0,0,1.451.139c-.107.583-1.694,1.023-2.052,0-.174-.5.2-1.136,1.244-1.159a1.522,1.522,0,0,0-1.761-1.437c-1.526.228-1.688.942-1.792,1.386-.249-.581.136-1.7,1.621-1.879Z" transform="translate(-107.689 -117.935)" fill="#f96" fill-rule="evenodd"/>
        <path id="Path_121" data-name="Path 121" d="M137.305,233.008c-.869,2.819-1.815,7.267-.725,11.044,1.749,6.064,13.529,36.672,13.529,36.672l4.9-3.465s-6.292-31.952-6.642-34.718a30.3,30.3,0,0,0,2.88-7.262,25.762,25.762,0,0,1-6.131-.45c-1.35-.223-5.451-1.115-7.809-1.821Z" transform="translate(-102.024 -143.898)" fill="#fc9" fill-rule="evenodd"/>
        <path id="Path_122" data-name="Path 122" d="M236.756,160.442l9.974.756a1.2,1.2,0,0,1,1.216,1.207l-2.028,18.2a1.3,1.3,0,0,1-1.462,1l-9.974-.756a1.2,1.2,0,0,1-1.216-1.207l2.028-18.2a1.3,1.3,0,0,1,1.462-1Z" transform="translate(-129.396 -123.455)" fill="#ff4646" fill-rule="evenodd"/>
        <path id="Path_123" data-name="Path 123" d="M249.767,162.81h0a.927.927,0,0,1,.942.934l-.3,2.7a1.007,1.007,0,0,1-1.131.777h0a.926.926,0,0,1-.942-.935l.3-2.7a1.007,1.007,0,0,1,1.132-.776Z" transform="translate(-133.641 -124.122)" fill-rule="evenodd"/>
        <path id="Path_124" data-name="Path 124" d="M249.968,163.5a.592.592,0,0,1,.6.6.645.645,0,0,1-.726.5.592.592,0,0,1-.6-.6.645.645,0,0,1,.726-.5Z" transform="translate(-133.897 -124.318)" fill="#333" fill-rule="evenodd"/>
        <path id="Path_125" data-name="Path 125" d="M249.661,167.311a.35.35,0,0,1,.356.354.38.38,0,0,1-.429.295.349.349,0,0,1-.356-.354.381.381,0,0,1,.429-.294Z" transform="translate(-133.895 -125.391)" fill="#fff" fill-rule="evenodd"/>
        <path id="Path_126" data-name="Path 126" d="M249.756,165.406a.593.593,0,0,1,.6.6.644.644,0,0,1-.726.5.592.592,0,0,1-.6-.6.645.645,0,0,1,.726-.5Z" transform="translate(-133.838 -124.854)" fill="#333" fill-rule="evenodd"/>
        <path id="Path_127" data-name="Path 127" d="M152.771,391.733c7.231.289,4.957,6.328,4.724,8.939s3.324,3.478,3.441,5.788-1.983,5.073-9.243,5.073-9.651-2.635-9.651-6.564,3.926-4.293,3.926-6.7-2.07-6.375,6.8-6.532Z" transform="translate(-103.7 -188.61)" fill="#f63" fill-rule="evenodd"/>
        <path id="Path_128" data-name="Path 128" d="M150.227,408.538a6.141,6.141,0,0,1,5.827.094.327.327,0,0,1,0,.523.519.519,0,0,1-.634,0,5.333,5.333,0,0,0-4.581-.075.518.518,0,0,1-.634-.019.327.327,0,0,1,.022-.523Z" transform="translate(-105.966 -193.149)" fill-rule="evenodd"/>
        <path id="Path_129" data-name="Path 129" d="M151.007,405.232a5.158,5.158,0,0,1,4.825.131.326.326,0,0,1-.035.522.517.517,0,0,1-.633-.029,4.568,4.568,0,0,0-3.569-.066.516.516,0,0,1-.632-.037.326.326,0,0,1,.045-.521Z" transform="translate(-106.182 -192.263)" fill-rule="evenodd"/>
        <path id="Path_130" data-name="Path 130" d="M151.136,402.39c.955-1.088,3.816-1.191,4.993-.035a.333.333,0,0,1-.124.513.51.51,0,0,1-.622-.1,3.456,3.456,0,0,0-3.452-.035.5.5,0,0,1-.6.157.341.341,0,0,1-.191-.5Z" transform="translate(-106.248 -191.37)" fill-rule="evenodd"/>
        <path id="Path_131" data-name="Path 131" d="M148.5,400.7a15.546,15.546,0,0,1,3.39-3.039c-2.363-.649-4.048-1.893-2.829-2.787,1.081-.791,2.771.556,4.3,1.944,3.816-1.883,6.909-1.133,5.185.271a5.836,5.836,0,0,1-3.8,1,6.464,6.464,0,0,0,1.292.973,15.156,15.156,0,0,0,2.872,1.024.363.363,0,0,1,.3.462.472.472,0,0,1-.561.245l-1.549-.466a11.336,11.336,0,0,1-3.739-2.351,20.5,20.5,0,0,0-4.042,3.031.492.492,0,0,1-.595.182.346.346,0,0,1-.22-.491Zm3.846-3.655c-.986-.923-1.8-1.645-2.672-1.628-.024.014-.05.033-.056.052-.188.653,1.1,1.243,2.728,1.576Zm2.171.268c1.587.071,3.049-.153,3.478-.829-.294-.606-1.792-.079-3.478.829Z" transform="translate(-105.507 -189.429)" fill-rule="evenodd"/>
        <path id="Path_132" data-name="Path 132" d="M154.468,229.146a39.9,39.9,0,0,0,5.117-18.261,56.421,56.421,0,0,1,.6,6.018c0,3.889-1.046,11.567-1.046,11.567a13.6,13.6,0,0,1-4.67.676Z" transform="translate(-107.201 -137.666)" fill="#ffc52e" fill-rule="evenodd"/>
        <path id="Path_133" data-name="Path 133" d="M161.4,292.214c-2.611,3.075-4.79,5.347-9.461,5.837a.377.377,0,1,1,0-.74c4.225-.447,6.34-2.705,8.676-5.455a.5.5,0,0,1,.608-.145.339.339,0,0,1,.176.5Z" transform="translate(-106.362 -160.421)" fill-rule="evenodd"/>
        <path id="Path_134" data-name="Path 134" d="M250.234,176.443s-4.589-3.917-5.506-3,3.993,4.267,3.993,4.267-5.35-2.9-5.5-1.682,5.2,4.433,5.2,4.433-4.891-1.529-5.2-.153,4.586,2.141,4.586,2.141-5.044,0-5.35.764,6.573,2.445,6.573,2.445Z" transform="translate(-131.983 -127.08)" fill="#fc9" fill-rule="evenodd"/>
        <path id="Path_135" data-name="Path 135" d="M173.269,139.129a3.418,3.418,0,0,1,2.783-1.158" transform="translate(-112.497 -117.124)" fill="none" stroke="#000" stroke-miterlimit="10" stroke-width="0.342" fill-rule="evenodd"/>
        <path id="Path_136" data-name="Path 136" d="M188.936,140.751a3.413,3.413,0,0,1,2.975.481" transform="translate(-116.91 -117.867)" fill="none" stroke="#000" stroke-miterlimit="10" stroke-width="0.342" fill-rule="evenodd"/>
        <path id="Path_137" data-name="Path 137" d="M178.184,154.465a5.088,5.088,0,0,0,5.759.469" transform="translate(-113.881 -121.773)" fill="none" stroke="#000" stroke-miterlimit="10" stroke-width="0.342" fill-rule="evenodd"/>
      </g>
    </g>
  </g>
</svg>
