<svg xmlns="http://www.w3.org/2000/svg" width="22.032" height="16.384" viewBox="0 0 22.032 16.384">
  <g id="XMLID_2_" transform="translate(0 0)">
    <path id="XMLID_4_" d="M12.6,110.008H1a1,1,0,1,1,0-2H12.6l-1.295-1.295a1,1,0,0,1,1.416-1.416l3,3c.023.023.045.047.066.073l.014.019c.015.019.03.039.044.059l.011.018c.014.021.027.043.039.066l.007.014c.013.024.025.049.035.075l0,.01c.011.027.021.054.03.082l0,.011c.008.028.015.055.021.084,0,.008,0,.017,0,.026,0,.024.008.047.011.071a.988.988,0,0,1,0,.2c0,.024-.007.048-.011.072,0,.008,0,.017,0,.025-.006.029-.013.057-.021.085l0,.01c-.009.028-.019.056-.03.083l0,.009c-.011.026-.023.051-.036.075l-.006.013c-.012.023-.026.045-.04.066l-.011.018c-.014.021-.029.04-.044.06l-.014.019c-.021.025-.043.05-.066.073l-3,3a1,1,0,1,1-1.416-1.416Z" transform="translate(6.009 -100.814)" fill="#fff"/>
    <path id="XMLID_5_" d="M111.037,42.3a8.186,8.186,0,0,1,6.8,3.627,1,1,0,0,1-1.662,1.117,6.189,6.189,0,1,0-.008,6.907,1,1,0,0,1,1.66,1.121A8.192,8.192,0,1,1,111.037,42.3Z" transform="translate(-102.845 -42.299)" fill="#fff"/>
  </g>
</svg>
