<svg xmlns="http://www.w3.org/2000/svg" width="35" height="35" viewBox="0 0 35 35">
  <g id="Group_627" data-name="Group 627" transform="translate(-15 -581)">
    <path id="Path_533" data-name="Path 533" d="M35,17.5A17.5,17.5,0,0,1,3.8,28.392q-.353-.442-.676-.908A17.5,17.5,0,1,1,35,17.5Z" transform="translate(15 581)" fill="#f0efeb"/>
    <circle id="Ellipse_45" data-name="Ellipse 45" cx="8.941" cy="8.941" r="8.941" transform="translate(17.85 589.112)" fill="#ee0005"/>
    <circle id="Ellipse_46" data-name="Ellipse 46" cx="8.941" cy="8.941" r="8.941" transform="translate(29.268 589.112)" fill="#f9a000"/>
    <path id="Path_534" data-name="Path 534" d="M206.012,114.647a8.924,8.924,0,0,0,3.387,7.006,8.941,8.941,0,0,0,0-14.013A8.924,8.924,0,0,0,206.012,114.647Z" transform="translate(-176.899 483.416)" fill="#ff6300"/>
  </g>
</svg>
