<svg xmlns="http://www.w3.org/2000/svg" width="29.12" height="21.367" viewBox="0 0 29.12 21.367">
  <g id="menu" transform="translate(0 -2.694)">
    <g id="Group_463" data-name="Group 463" transform="translate(0 2.694)">
      <g id="Group_462" data-name="Group 462">
        <path id="Path_545" data-name="Path 545" d="M1.137,238.673H27.982a1.354,1.354,0,0,0,0-2.673H1.137a1.354,1.354,0,0,0,0,2.673Z" transform="translate(0 -236)"/>
      </g>
    </g>
    <g id="Group_465" data-name="Group 465" transform="translate(0 21.387)">
      <g id="Group_464" data-name="Group 464">
        <path id="Path_546" data-name="Path 546" d="M1.137,78.673H27.982a1.354,1.354,0,0,0,0-2.673H1.137a1.354,1.354,0,0,0,0,2.673Z" transform="translate(0 -76)"/>
      </g>
    </g>
    <g id="Group_467" data-name="Group 467" transform="translate(9.417 12)">
      <g id="Group_466" data-name="Group 466">
        <path id="Path_547" data-name="Path 547" d="M.77,398.673H18.933c.425,0,.77-.6.77-1.337S19.358,396,18.933,396H.77c-.425,0-.77.6-.77,1.337S.345,398.673.77,398.673Z" transform="translate(0 -396)"/>
      </g>
    </g>
  </g>
</svg>
