<svg xmlns="http://www.w3.org/2000/svg" width="21.975" height="16.05" viewBox="0 0 21.975 16.05">
  <g id="chat-box_1_" data-name="chat-box (1)" transform="translate(-135.19 -236.83)">
    <path id="Path_891" data-name="Path 891" d="M151.535,236.83H140.82a5.752,5.752,0,0,0,0,11.5h6.27l3.791,4.255A.876.876,0,0,0,152.41,252v-3.742a5.761,5.761,0,0,0-.875-11.433Zm-10.691,6.835a1.084,1.084,0,1,1,1.084-1.084A1.084,1.084,0,0,1,140.844,243.665Zm5.334,0a1.084,1.084,0,1,1,1.084-1.084A1.084,1.084,0,0,1,146.178,243.665Zm5.335,0a1.084,1.084,0,1,1,1.084-1.084A1.084,1.084,0,0,1,151.512,243.665Z" fill="#fff"/>
  </g>
</svg>
