<?xml version="1.0" encoding="iso-8859-1"?>
<!-- Generator: Adobe Illustrator 19.0.0, SVG Export Plug-In . SVG Version: 6.00 Build 0)  -->
<svg version="1.1" id="Layer_1" xmlns="http://www.w3.org/2000/svg" xmlns:xlink="http://www.w3.org/1999/xlink" x="0px" y="0px"
	 viewBox="0 0 300.16 300.16" style="enable-background:new 0 0 300.16 300.16;" xml:space="preserve">
<g>
	<g>
		<path style="fill:#F9BA48;" d="M38.731,19.365v4.841c0,8.007-6.516,14.524-14.524,14.524h-4.841v222.699h4.841
			c8.007,0,14.524,6.516,14.524,14.524v4.841h87.143V19.365H38.731z M121.033,196.271c-4.585,1.438-9.465,2.222-14.524,2.222
			c-26.738,0-48.413-21.674-48.413-48.413s21.674-48.413,48.413-48.413c5.059,0,9.939,0.784,14.524,2.222V196.271z"/>
		<path style="fill:#333333;" d="M275.953,0H0.001v300.16h140.397h4.841h130.715c13.347,0,24.206-10.859,24.206-24.206V24.206
			C300.16,10.859,289.301,0,275.953,0z M275.953,9.683c8.008,0,14.524,6.516,14.524,14.524V38.73H125.874V24.206
			c0-8.007,6.516-14.524,14.524-14.524h135.556V9.683z M116.192,192.567c-3.166,0.721-6.415,1.084-9.683,1.084
			c-24.022,0-43.572-19.549-43.572-43.572s19.549-43.572,43.572-43.572c3.268,0,6.516,0.363,9.683,1.084V192.567z M125.874,48.413
			h164.604v188.81H125.874V48.413z M9.684,9.683h111.475c-3.074,4.057-4.967,9.053-4.967,14.524v73.539
			c-3.186-0.586-6.42-0.92-9.683-0.92c-29.362,0-53.254,23.892-53.254,53.254s23.892,53.254,53.254,53.254
			c3.263,0,6.497-0.334,9.683-0.92v73.539c0,5.471,1.893,10.467,4.967,14.524H9.684V9.683z M275.953,290.477H145.24h-4.841
			c-8.007,0-14.524-6.516-14.524-14.524v-29.048h164.604v29.048C290.477,283.961,283.961,290.477,275.953,290.477z"/>
		<rect x="203.335" y="19.365" style="fill:#333333;" width="38.73" height="9.683"/>
		<rect x="174.286" y="19.365" style="fill:#333333;" width="9.683" height="9.683"/>
		<path style="fill:#333333;" d="M208.176,251.747c-9.344,0-16.945,7.601-16.945,16.944c0,9.344,7.601,16.945,16.945,16.945
			c9.344,0,16.945-7.601,16.945-16.945C225.12,259.348,217.52,251.747,208.176,251.747z M208.176,275.953
			c-4.004,0-7.262-3.258-7.262-7.262s3.258-7.262,7.262-7.262s7.262,3.258,7.262,7.262S212.18,275.953,208.176,275.953z"/>
		<path style="fill:#333333;" d="M271.112,58.095H145.24c-8.007,0-14.524,6.516-14.524,14.524v77.461
			c0,8.007,6.516,14.524,14.524,14.524h125.873c8.007,0,14.524-6.516,14.524-14.524V72.619
			C285.636,64.612,279.119,58.095,271.112,58.095z M145.24,67.778h125.873c2.668,0,4.841,2.174,4.841,4.841v43.572H140.398V72.619
			C140.398,69.952,142.572,67.778,145.24,67.778z M275.953,125.873v9.683H140.398v-9.683H275.953z M271.112,154.921H145.24
			c-2.668,0-4.841-2.174-4.841-4.841v-4.841h135.556v4.841C275.953,152.747,273.78,154.921,271.112,154.921z"/>
		<rect x="150.081" y="77.461" style="fill:#333333;" width="38.73" height="9.683"/>
		<rect x="164.605" y="91.984" style="fill:#333333;" width="24.206" height="9.683"/>
		<path style="fill:#333333;" d="M164.605,188.81H145.24v38.73h9.683v-9.683h9.683c8.007,0,14.524-6.516,14.524-14.524
			C179.129,195.326,172.611,188.81,164.605,188.81z M164.605,208.175h-9.683v-9.683h9.683c2.668,0,4.841,2.174,4.841,4.841
			S167.271,208.175,164.605,208.175z"/>
		<path style="fill:#333333;" d="M188.811,227.54h9.683v-9.683h14.524v9.683h9.683v-38.73h-33.89V227.54z M213.018,198.493v9.683
			h-14.524v-9.683H213.018z"/>
		<polygon style="fill:#333333;" points="261.429,203.334 242.064,203.334 242.064,188.81 232.383,188.81 232.383,213.017 
			246.907,213.017 246.907,227.54 256.589,227.54 256.589,213.017 271.112,213.017 271.112,188.81 261.429,188.81 		"/>
	</g>
</g>
<g>
</g>
<g>
</g>
<g>
</g>
<g>
</g>
<g>
</g>
<g>
</g>
<g>
</g>
<g>
</g>
<g>
</g>
<g>
</g>
<g>
</g>
<g>
</g>
<g>
</g>
<g>
</g>
<g>
</g>
</svg>
