<svg xmlns="http://www.w3.org/2000/svg" width="18.339" height="22.007" viewBox="0 0 18.339 22.007">
  <g id="notification_8_" data-name="notification (8)" transform="translate(-42.675)">
    <g id="Group_667" data-name="Group 667" transform="translate(42.675)">
      <g id="Group_666" data-name="Group 666" transform="translate(0)">
        <path id="Path_899" data-name="Path 899" d="M60.949,18.562l-1.574-2.624a7.8,7.8,0,0,1-1.111-4.011v-2.3A6.427,6.427,0,0,0,53.678,3.48V1.834a1.834,1.834,0,1,0-3.668,0V3.48a6.427,6.427,0,0,0-4.585,6.148v2.3a7.8,7.8,0,0,1-1.11,4.01l-1.574,2.624a.459.459,0,0,0,.392.7H60.555a.458.458,0,0,0,.393-.694Z" transform="translate(-42.675)" fill="#fff"/>
      </g>
    </g>
    <g id="Group_669" data-name="Group 669" transform="translate(48.957 20.173)">
      <g id="Group_668" data-name="Group 668" transform="translate(0)">
        <path id="Path_900" data-name="Path 900" d="M188.815,469.333a3.19,3.19,0,0,0,5.775,0Z" transform="translate(-188.815 -469.333)" fill="#fff"/>
      </g>
    </g>
  </g>
</svg>
