<svg xmlns="http://www.w3.org/2000/svg" width="45.249" height="60.332" viewBox="0 0 45.249 60.332">
  <path id="padlock" d="M42.593,22.625H40.708V15.083a15.083,15.083,0,0,0-30.166,0v7.542H8.656A5.663,5.663,0,0,0,3,28.281v26.4a5.663,5.663,0,0,0,5.656,5.656H42.593a5.663,5.663,0,0,0,5.656-5.656v-26.4A5.663,5.663,0,0,0,42.593,22.625ZM15.569,15.083a10.055,10.055,0,1,1,20.111,0v7.542H15.569ZM28.138,42.036v5.727a2.514,2.514,0,1,1-5.028,0V42.036a5.028,5.028,0,1,1,5.028,0Z" transform="translate(-3)" fill="#dbdbdb"/>
</svg>
