<svg id="Group_605" data-name="Group 605" xmlns="http://www.w3.org/2000/svg" width="21.256" height="18.948" viewBox="0 0 21.256 18.948">
  <path id="Path_856" data-name="Path 856" d="M186.239,36.011l-13.019-2.755a1.027,1.027,0,0,0-1.213.79l-.247,1.589,15.021,3.179.247-1.589A1.027,1.027,0,0,0,186.239,36.011Z" transform="translate(-165.794 -33.234)" fill="#fff"/>
  <path id="Path_857" data-name="Path 857" d="M14.97,168.4a1.036,1.036,0,0,0-1.272-.719l-2.471.686L5.4,167.13l-.641,3.027-4,1.111a1.036,1.036,0,0,0-.719,1.272l2.256,8.13a1.036,1.036,0,0,0,1.272.719L16.507,177.8a1.036,1.036,0,0,0,.719-1.272l-.387-1.4,1.451.307a1.026,1.026,0,0,0,1.213-.789l.918-4.339L15.194,169.2Zm1.495,4.132.32-1.513a.423.423,0,0,1,.5-.325l1.513.32a.422.422,0,0,1,.325.5l-.32,1.513a.422.422,0,0,1-.5.325l-1.513-.32A.422.422,0,0,1,16.465,172.529ZM.982,172.08l3.581-.994,8.45-2.345.909-.253a.19.19,0,0,1,.049-.007.2.2,0,0,1,.186.139l.107.385.335,1.205L1.29,173.9l-.441-1.59A.194.194,0,0,1,.982,172.08Zm15.433,4.671a.194.194,0,0,1-.133.235L3.34,180.578a.189.189,0,0,1-.049.007.2.2,0,0,1-.186-.14L1.789,175.7,15.1,172.009l.812,2.925Z" transform="translate(0 -162.479)" fill="#fff"/>
  <path id="Path_858" data-name="Path 858" d="M91.4,444.91a.422.422,0,0,0-.518-.293l-1.511.42a.422.422,0,0,0-.293.518l.419,1.511a.422.422,0,0,0,.518.293l1.511-.419a.422.422,0,0,0,.293-.518Z" transform="translate(-85.964 -430.313)" fill="#fff"/>
</svg>
