<svg id="paypal" xmlns="http://www.w3.org/2000/svg" width="35.616" height="35.616" viewBox="0 0 35.616 35.616">
  <path id="Path_548" data-name="Path 548" d="M35.616,17.808A17.81,17.81,0,0,1,19.1,35.57q-.639.046-1.289.046A17.808,17.808,0,1,1,35.616,17.808Z" fill="#f0efeb"/>
  <path id="Path_549" data-name="Path 549" d="M97.2,57.523c-.832,5.544-2.125,10.442-9.61,11.55a26.818,26.818,0,0,1-5.4.105,1.565,1.565,0,0,0-1.643,1.345l-1.42,10.023a17.813,17.813,0,0,1-6.81-4.379l3.608-25.48a1.508,1.508,0,0,1,1.493-1.3h12.2C93.136,49.392,98.033,51.98,97.2,57.523Z" transform="translate(-67.288 -45.956)" fill="#002c8d"/>
  <path id="Path_550" data-name="Path 550" d="M189.437,180.581c-2.356,4.482-7.439,4.7-8.639,4.7h-1.263a1.351,1.351,0,0,0-1.338,1.163l-.726,5.153q-.639.046-1.289.046a17.771,17.771,0,0,1-5.967-1.025l3.088-21.8a1.3,1.3,0,0,1,1.292-1.122h10.562c1.909,0,4.374,1.1,5.16,2.859S191.793,176.1,189.437,180.581Z" transform="translate(-158.374 -156.031)" fill="#008ee7"/>
  <path id="Path_551" data-name="Path 551" d="M207.137,168.463c-.848,5.181-2.381,9.634-9.474,10.685a26.9,26.9,0,0,1-5.4.105,1.563,1.563,0,0,0-1.644,1.344l1.667-11.781a1.306,1.306,0,0,1,1.292-1.121h10.563A6.753,6.753,0,0,1,207.137,168.463Z" transform="translate(-177.359 -156.03)" fill="#142171"/>
</svg>
