<svg xmlns="http://www.w3.org/2000/svg" width="24" height="23.506" viewBox="0 0 24 23.506">
  <g id="Group_648" data-name="Group 648" transform="translate(-26 -246)">
    <g id="fingerprint-scan" transform="translate(26.247 246)">
      <g id="Group_631" data-name="Group 631">
        <g id="Group_630" data-name="Group 630">
          <path id="Path_885" data-name="Path 885" d="M6.244,0H2.066A2.068,2.068,0,0,0,0,2.066V6.244a.689.689,0,0,0,1.377,0V2.066a.689.689,0,0,1,.689-.689H6.244A.689.689,0,0,0,6.244,0Z" fill="#fff"/>
        </g>
      </g>
      <g id="Group_633" data-name="Group 633" transform="translate(0 16.573)">
        <g id="Group_632" data-name="Group 632">
          <path id="Path_886" data-name="Path 886" d="M6.244,366.555H2.066a.689.689,0,0,1-.689-.689v-4.178a.689.689,0,1,0-1.377,0v4.178a2.068,2.068,0,0,0,2.066,2.066H6.244a.689.689,0,1,0,0-1.377Z" transform="translate(0 -361)" fill="#fff"/>
        </g>
      </g>
      <g id="Group_635" data-name="Group 635" transform="translate(16.573)">
        <g id="Group_634" data-name="Group 634">
          <path id="Path_887" data-name="Path 887" d="M365.866,0h-4.178a.689.689,0,1,0,0,1.377h4.178a.689.689,0,0,1,.689.689V6.244a.689.689,0,1,0,1.377,0V2.066A2.068,2.068,0,0,0,365.866,0Z" transform="translate(-361)" fill="#fff"/>
        </g>
      </g>
      <g id="Group_637" data-name="Group 637" transform="translate(16.573 16.573)">
        <g id="Group_636" data-name="Group 636">
          <path id="Path_888" data-name="Path 888" d="M367.244,361a.688.688,0,0,0-.689.689v4.178a.689.689,0,0,1-.689.689h-4.178a.689.689,0,1,0,0,1.377h4.178a2.068,2.068,0,0,0,2.066-2.066v-4.178A.688.688,0,0,0,367.244,361Z" transform="translate(-361 -361)" fill="#fff"/>
        </g>
      </g>
    </g>
    <line id="Line_43" data-name="Line 43" x2="23" transform="translate(26.5 257.5)" fill="none" stroke="#fff" stroke-linecap="round" stroke-width="1"/>
  </g>
</svg>
