<svg xmlns="http://www.w3.org/2000/svg" width="376" height="348.936" viewBox="0 0 376 348.936">
  <g id="Group_611" data-name="Group 611" transform="translate(0 -39.356)">
    <path id="Path_1" data-name="Path 1" d="M398.648,75.486A10.443,10.443,0,0,0,381.022,67.9a15.466,15.466,0,0,0-20.749-11.894,23.284,23.284,0,0,0-41.365-6.762A16.409,16.409,0,0,0,292.861,58.8a13.828,13.828,0,0,0-17.153,16.685Z" transform="translate(-137.278 0)" fill="#edf5fd"/>
    <rect id="Rectangle_3" data-name="Rectangle 3" width="376" height="172.061" transform="translate(0 216.232)" fill="#00c353"/>
    <path id="Path_2" data-name="Path 2" d="M610.51,142.072a13.4,13.4,0,0,0-5.688,1.26A19.467,19.467,0,0,0,567.1,140.5a16.734,16.734,0,0,0-25.16,13.908h81.983A13.461,13.461,0,0,0,610.51,142.072Z" transform="translate(-270.247 -43.724)" fill="#edf5fd"/>
    <path id="Path_3" data-name="Path 3" d="M139.293,101.289a12.623,12.623,0,0,0-4.245.732A18.532,18.532,0,0,0,114.661,89.26a26.623,26.623,0,0,0-51.2,10.231,14.448,14.448,0,0,0-14.4,13.313H151.89A12.65,12.65,0,0,0,139.293,101.289Z" transform="translate(-24.465 -16.713)" fill="#edf5fd"/>
    <path id="Path_4" data-name="Path 4" d="M371.217,415.306H88.984a4.557,4.557,0,0,0,0,9.115H371.217a4.557,4.557,0,1,0,0-9.115Z" transform="translate(-42.101 -187.474)" style="mix-blend-mode: multiply;isolation: isolate"/>
    <g id="Group_31" data-name="Group 31" transform="translate(55.238 81.799)">
      <g id="Group_4" data-name="Group 4" transform="translate(52.578 13.588)">
        <rect id="Rectangle_4" data-name="Rectangle 4" width="54.76" height="120.844" fill="#85afaf"/>
        <rect id="Rectangle_5" data-name="Rectangle 5" width="35.733" height="120.844" fill="#a7cccf"/>
        <g id="Group_2" data-name="Group 2" transform="translate(2.043 5.662)">
          <rect id="Rectangle_6" data-name="Rectangle 6" width="13.848" height="3.701" fill="#dbf1f3"/>
          <rect id="Rectangle_7" data-name="Rectangle 7" width="13.848" height="3.701" transform="translate(0 10.364)" fill="#dbf1f3"/>
          <rect id="Rectangle_8" data-name="Rectangle 8" width="13.848" height="3.701" transform="translate(0 20.728)" fill="#dbf1f3"/>
          <rect id="Rectangle_9" data-name="Rectangle 9" width="13.848" height="3.702" transform="translate(0 31.093)" fill="#dbf1f3"/>
          <rect id="Rectangle_10" data-name="Rectangle 10" width="13.848" height="3.701" transform="translate(0 41.457)" fill="#dbf1f3"/>
          <rect id="Rectangle_11" data-name="Rectangle 11" width="13.848" height="3.701" transform="translate(0 51.821)" fill="#dbf1f3"/>
          <rect id="Rectangle_12" data-name="Rectangle 12" width="13.848" height="3.702" transform="translate(0 62.185)" fill="#dbf1f3"/>
          <rect id="Rectangle_13" data-name="Rectangle 13" width="13.848" height="3.702" transform="translate(0 72.55)" fill="#dbf1f3"/>
          <rect id="Rectangle_14" data-name="Rectangle 14" width="13.848" height="3.701" transform="translate(0 82.914)" fill="#dbf1f3"/>
          <rect id="Rectangle_15" data-name="Rectangle 15" width="13.848" height="3.701" transform="translate(0 93.278)" fill="#dbf1f3"/>
          <rect id="Rectangle_16" data-name="Rectangle 16" width="13.848" height="3.701" transform="translate(0 103.642)" fill="#dbf1f3"/>
        </g>
        <g id="Group_3" data-name="Group 3" transform="translate(19.488 5.662)">
          <rect id="Rectangle_17" data-name="Rectangle 17" width="13.848" height="3.701" fill="#dbf1f3"/>
          <rect id="Rectangle_18" data-name="Rectangle 18" width="13.848" height="3.701" transform="translate(0 10.364)" fill="#dbf1f3"/>
          <rect id="Rectangle_19" data-name="Rectangle 19" width="13.848" height="3.701" transform="translate(0 20.728)" fill="#dbf1f3"/>
          <rect id="Rectangle_20" data-name="Rectangle 20" width="13.848" height="3.702" transform="translate(0 31.093)" fill="#dbf1f3"/>
          <rect id="Rectangle_21" data-name="Rectangle 21" width="13.848" height="3.701" transform="translate(0 41.457)" fill="#dbf1f3"/>
          <rect id="Rectangle_22" data-name="Rectangle 22" width="13.848" height="3.701" transform="translate(0 51.821)" fill="#dbf1f3"/>
          <rect id="Rectangle_23" data-name="Rectangle 23" width="13.848" height="3.702" transform="translate(0 62.185)" fill="#dbf1f3"/>
          <rect id="Rectangle_24" data-name="Rectangle 24" width="13.848" height="3.702" transform="translate(0 72.55)" fill="#dbf1f3"/>
          <rect id="Rectangle_25" data-name="Rectangle 25" width="13.848" height="3.701" transform="translate(0 82.914)" fill="#dbf1f3"/>
          <rect id="Rectangle_26" data-name="Rectangle 26" width="13.848" height="3.701" transform="translate(0 93.278)" fill="#dbf1f3"/>
          <rect id="Rectangle_27" data-name="Rectangle 27" width="13.848" height="3.701" transform="translate(0 103.642)" fill="#dbf1f3"/>
        </g>
      </g>
      <g id="Group_7" data-name="Group 7" transform="translate(0 39.387)">
        <rect id="Rectangle_28" data-name="Rectangle 28" width="43.07" height="95.045" fill="#85afaf"/>
        <rect id="Rectangle_29" data-name="Rectangle 29" width="28.104" height="95.045" fill="#a7cccf"/>
        <g id="Group_5" data-name="Group 5" transform="translate(1.607 4.453)">
          <rect id="Rectangle_30" data-name="Rectangle 30" width="10.892" height="2.911" fill="#dbf1f3"/>
          <rect id="Rectangle_31" data-name="Rectangle 31" width="10.892" height="2.911" transform="translate(0 8.152)" fill="#dbf1f3"/>
          <rect id="Rectangle_32" data-name="Rectangle 32" width="10.892" height="2.911" transform="translate(0 16.303)" fill="#dbf1f3"/>
          <rect id="Rectangle_33" data-name="Rectangle 33" width="10.892" height="2.911" transform="translate(0 24.455)" fill="#dbf1f3"/>
          <rect id="Rectangle_34" data-name="Rectangle 34" width="10.892" height="2.911" transform="translate(0 32.606)" fill="#dbf1f3"/>
          <rect id="Rectangle_35" data-name="Rectangle 35" width="10.892" height="2.911" transform="translate(0 40.758)" fill="#dbf1f3"/>
          <rect id="Rectangle_36" data-name="Rectangle 36" width="10.892" height="2.911" transform="translate(0 48.909)" fill="#dbf1f3"/>
          <rect id="Rectangle_37" data-name="Rectangle 37" width="10.892" height="2.911" transform="translate(0 57.061)" fill="#dbf1f3"/>
          <rect id="Rectangle_38" data-name="Rectangle 38" width="10.892" height="2.911" transform="translate(0 65.212)" fill="#dbf1f3"/>
          <rect id="Rectangle_39" data-name="Rectangle 39" width="10.892" height="2.911" transform="translate(0 73.364)" fill="#dbf1f3"/>
          <rect id="Rectangle_40" data-name="Rectangle 40" width="10.892" height="2.911" transform="translate(0 81.516)" fill="#dbf1f3"/>
        </g>
        <g id="Group_6" data-name="Group 6" transform="translate(15.327 4.453)">
          <rect id="Rectangle_41" data-name="Rectangle 41" width="10.892" height="2.911" fill="#dbf1f3"/>
          <rect id="Rectangle_42" data-name="Rectangle 42" width="10.892" height="2.911" transform="translate(0 8.152)" fill="#dbf1f3"/>
          <rect id="Rectangle_43" data-name="Rectangle 43" width="10.892" height="2.911" transform="translate(0 16.303)" fill="#dbf1f3"/>
          <rect id="Rectangle_44" data-name="Rectangle 44" width="10.892" height="2.911" transform="translate(0 24.455)" fill="#dbf1f3"/>
          <rect id="Rectangle_45" data-name="Rectangle 45" width="10.892" height="2.911" transform="translate(0 32.606)" fill="#dbf1f3"/>
          <rect id="Rectangle_46" data-name="Rectangle 46" width="10.892" height="2.911" transform="translate(0 40.758)" fill="#dbf1f3"/>
          <rect id="Rectangle_47" data-name="Rectangle 47" width="10.892" height="2.911" transform="translate(0 48.909)" fill="#dbf1f3"/>
          <rect id="Rectangle_48" data-name="Rectangle 48" width="10.892" height="2.911" transform="translate(0 57.061)" fill="#dbf1f3"/>
          <rect id="Rectangle_49" data-name="Rectangle 49" width="10.892" height="2.911" transform="translate(0 65.212)" fill="#dbf1f3"/>
          <rect id="Rectangle_50" data-name="Rectangle 50" width="10.892" height="2.911" transform="translate(0 73.364)" fill="#dbf1f3"/>
          <rect id="Rectangle_51" data-name="Rectangle 51" width="10.892" height="2.911" transform="translate(0 81.516)" fill="#dbf1f3"/>
        </g>
      </g>
      <g id="Group_14" data-name="Group 14" transform="translate(34.744 70.761)">
        <rect id="Rectangle_52" data-name="Rectangle 52" width="103.689" height="63.671" fill="#85afaf"/>
        <rect id="Rectangle_53" data-name="Rectangle 53" width="67.661" height="63.671" fill="#a7cccf"/>
        <g id="Group_13" data-name="Group 13" transform="translate(5.038 2.095)">
          <g id="Group_8" data-name="Group 8">
            <rect id="Rectangle_54" data-name="Rectangle 54" width="6.181" height="8.102" fill="#dbf1f3"/>
            <rect id="Rectangle_55" data-name="Rectangle 55" width="6.181" height="8.102" transform="translate(12.362)" fill="#dbf1f3"/>
            <rect id="Rectangle_56" data-name="Rectangle 56" width="6.181" height="8.102" transform="translate(24.724)" fill="#dbf1f3"/>
            <rect id="Rectangle_57" data-name="Rectangle 57" width="6.181" height="8.102" transform="translate(37.086)" fill="#dbf1f3"/>
            <rect id="Rectangle_58" data-name="Rectangle 58" width="6.181" height="8.102" transform="translate(49.448)" fill="#dbf1f3"/>
          </g>
          <g id="Group_9" data-name="Group 9" transform="translate(0 12.067)">
            <rect id="Rectangle_59" data-name="Rectangle 59" width="6.181" height="8.102" fill="#dbf1f3"/>
            <rect id="Rectangle_60" data-name="Rectangle 60" width="6.181" height="8.102" transform="translate(12.362)" fill="#dbf1f3"/>
            <rect id="Rectangle_61" data-name="Rectangle 61" width="6.181" height="8.102" transform="translate(24.724)" fill="#dbf1f3"/>
            <rect id="Rectangle_62" data-name="Rectangle 62" width="6.181" height="8.102" transform="translate(37.086)" fill="#dbf1f3"/>
            <rect id="Rectangle_63" data-name="Rectangle 63" width="6.181" height="8.102" transform="translate(49.448)" fill="#dbf1f3"/>
          </g>
          <g id="Group_10" data-name="Group 10" transform="translate(0 24.135)">
            <rect id="Rectangle_64" data-name="Rectangle 64" width="6.181" height="8.102" fill="#dbf1f3"/>
            <rect id="Rectangle_65" data-name="Rectangle 65" width="6.181" height="8.102" transform="translate(12.362)" fill="#dbf1f3"/>
            <rect id="Rectangle_66" data-name="Rectangle 66" width="6.181" height="8.102" transform="translate(24.724)" fill="#dbf1f3"/>
            <rect id="Rectangle_67" data-name="Rectangle 67" width="6.181" height="8.102" transform="translate(37.086)" fill="#dbf1f3"/>
            <rect id="Rectangle_68" data-name="Rectangle 68" width="6.181" height="8.102" transform="translate(49.448)" fill="#dbf1f3"/>
          </g>
          <g id="Group_11" data-name="Group 11" transform="translate(0 36.202)">
            <rect id="Rectangle_69" data-name="Rectangle 69" width="6.181" height="8.102" fill="#dbf1f3"/>
            <rect id="Rectangle_70" data-name="Rectangle 70" width="6.181" height="8.102" transform="translate(12.362)" fill="#dbf1f3"/>
            <rect id="Rectangle_71" data-name="Rectangle 71" width="6.181" height="8.102" transform="translate(24.724)" fill="#dbf1f3"/>
            <rect id="Rectangle_72" data-name="Rectangle 72" width="6.181" height="8.102" transform="translate(37.086)" fill="#dbf1f3"/>
            <rect id="Rectangle_73" data-name="Rectangle 73" width="6.181" height="8.102" transform="translate(49.448)" fill="#dbf1f3"/>
          </g>
          <g id="Group_12" data-name="Group 12" transform="translate(0 48.27)">
            <rect id="Rectangle_74" data-name="Rectangle 74" width="6.181" height="8.102" fill="#dbf1f3"/>
            <rect id="Rectangle_75" data-name="Rectangle 75" width="6.181" height="8.102" transform="translate(12.362)" fill="#dbf1f3"/>
            <rect id="Rectangle_76" data-name="Rectangle 76" width="6.181" height="8.102" transform="translate(24.724)" fill="#dbf1f3"/>
            <rect id="Rectangle_77" data-name="Rectangle 77" width="6.181" height="8.102" transform="translate(37.086)" fill="#dbf1f3"/>
            <rect id="Rectangle_78" data-name="Rectangle 78" width="6.181" height="8.102" transform="translate(49.448)" fill="#dbf1f3"/>
          </g>
        </g>
      </g>
      <g id="Group_24" data-name="Group 24" transform="translate(135.36)">
        <g id="Group_17" data-name="Group 17" transform="translate(11.461)">
          <rect id="Rectangle_79" data-name="Rectangle 79" width="32.609" height="35.041" fill="#85afaf"/>
          <rect id="Rectangle_80" data-name="Rectangle 80" width="21.278" height="35.041" fill="#a7cccf"/>
          <g id="Group_15" data-name="Group 15" transform="translate(1.217 1.642)">
            <rect id="Rectangle_81" data-name="Rectangle 81" width="8.246" height="1.073" fill="#dbf1f3"/>
            <rect id="Rectangle_82" data-name="Rectangle 82" width="8.246" height="1.073" transform="translate(0 3.005)" fill="#dbf1f3"/>
            <rect id="Rectangle_83" data-name="Rectangle 83" width="8.246" height="1.073" transform="translate(0 6.011)" fill="#dbf1f3"/>
            <rect id="Rectangle_84" data-name="Rectangle 84" width="8.246" height="1.073" transform="translate(0 9.016)" fill="#dbf1f3"/>
            <rect id="Rectangle_85" data-name="Rectangle 85" width="8.246" height="1.073" transform="translate(0 12.021)" fill="#dbf1f3"/>
            <rect id="Rectangle_86" data-name="Rectangle 86" width="8.246" height="1.073" transform="translate(0 15.027)" fill="#dbf1f3"/>
            <rect id="Rectangle_87" data-name="Rectangle 87" width="8.246" height="1.073" transform="translate(0 18.032)" fill="#dbf1f3"/>
            <rect id="Rectangle_88" data-name="Rectangle 88" width="8.246" height="1.073" transform="translate(0 21.037)" fill="#dbf1f3"/>
            <rect id="Rectangle_89" data-name="Rectangle 89" width="8.246" height="1.073" transform="translate(0 24.043)" fill="#dbf1f3"/>
            <rect id="Rectangle_90" data-name="Rectangle 90" width="8.246" height="1.073" transform="translate(0 27.048)" fill="#dbf1f3"/>
            <rect id="Rectangle_91" data-name="Rectangle 91" width="8.246" height="1.073" transform="translate(0 30.053)" fill="#dbf1f3"/>
          </g>
          <g id="Group_16" data-name="Group 16" transform="translate(11.605 1.642)">
            <rect id="Rectangle_92" data-name="Rectangle 92" width="8.246" height="1.073" fill="#dbf1f3"/>
            <rect id="Rectangle_93" data-name="Rectangle 93" width="8.246" height="1.073" transform="translate(0 3.005)" fill="#dbf1f3"/>
            <rect id="Rectangle_94" data-name="Rectangle 94" width="8.246" height="1.073" transform="translate(0 6.011)" fill="#dbf1f3"/>
            <rect id="Rectangle_95" data-name="Rectangle 95" width="8.246" height="1.073" transform="translate(0 9.016)" fill="#dbf1f3"/>
            <rect id="Rectangle_96" data-name="Rectangle 96" width="8.246" height="1.073" transform="translate(0 12.021)" fill="#dbf1f3"/>
            <rect id="Rectangle_97" data-name="Rectangle 97" width="8.246" height="1.073" transform="translate(0 15.027)" fill="#dbf1f3"/>
            <rect id="Rectangle_98" data-name="Rectangle 98" width="8.246" height="1.073" transform="translate(0 18.032)" fill="#dbf1f3"/>
            <rect id="Rectangle_99" data-name="Rectangle 99" width="8.246" height="1.073" transform="translate(0 21.037)" fill="#dbf1f3"/>
            <rect id="Rectangle_100" data-name="Rectangle 100" width="8.246" height="1.073" transform="translate(0 24.043)" fill="#dbf1f3"/>
            <rect id="Rectangle_101" data-name="Rectangle 101" width="8.246" height="1.073" transform="translate(0 27.048)" fill="#dbf1f3"/>
            <rect id="Rectangle_102" data-name="Rectangle 102" width="8.246" height="1.073" transform="translate(0 30.053)" fill="#dbf1f3"/>
          </g>
        </g>
        <g id="Group_20" data-name="Group 20" transform="translate(6.489 34.379)">
          <rect id="Rectangle_103" data-name="Rectangle 103" width="42.554" height="45.727" fill="#85afaf"/>
          <rect id="Rectangle_104" data-name="Rectangle 104" width="27.768" height="45.727" fill="#a7cccf"/>
          <g id="Group_18" data-name="Group 18" transform="translate(1.588 2.142)">
            <rect id="Rectangle_105" data-name="Rectangle 105" width="10.761" height="1.401" fill="#dbf1f3"/>
            <rect id="Rectangle_106" data-name="Rectangle 106" width="10.761" height="1.401" transform="translate(0 3.922)" fill="#dbf1f3"/>
            <rect id="Rectangle_107" data-name="Rectangle 107" width="10.761" height="1.401" transform="translate(0 7.844)" fill="#dbf1f3"/>
            <rect id="Rectangle_108" data-name="Rectangle 108" width="10.761" height="1.401" transform="translate(0 11.765)" fill="#dbf1f3"/>
            <rect id="Rectangle_109" data-name="Rectangle 109" width="10.761" height="1.401" transform="translate(0 15.687)" fill="#dbf1f3"/>
            <rect id="Rectangle_110" data-name="Rectangle 110" width="10.761" height="1.401" transform="translate(0 19.609)" fill="#dbf1f3"/>
            <rect id="Rectangle_111" data-name="Rectangle 111" width="10.761" height="1.401" transform="translate(0 23.531)" fill="#dbf1f3"/>
            <rect id="Rectangle_112" data-name="Rectangle 112" width="10.761" height="1.401" transform="translate(0 27.453)" fill="#dbf1f3"/>
            <rect id="Rectangle_113" data-name="Rectangle 113" width="10.761" height="1.401" transform="translate(0 31.375)" fill="#dbf1f3"/>
            <rect id="Rectangle_114" data-name="Rectangle 114" width="10.761" height="1.401" transform="translate(0 35.296)" fill="#dbf1f3"/>
            <rect id="Rectangle_115" data-name="Rectangle 115" width="10.761" height="1.401" transform="translate(0 39.218)" fill="#dbf1f3"/>
          </g>
          <g id="Group_19" data-name="Group 19" transform="translate(15.144 2.142)">
            <rect id="Rectangle_116" data-name="Rectangle 116" width="10.761" height="1.401" fill="#dbf1f3"/>
            <rect id="Rectangle_117" data-name="Rectangle 117" width="10.761" height="1.401" transform="translate(0 3.922)" fill="#dbf1f3"/>
            <rect id="Rectangle_118" data-name="Rectangle 118" width="10.761" height="1.401" transform="translate(0 7.844)" fill="#dbf1f3"/>
            <rect id="Rectangle_119" data-name="Rectangle 119" width="10.761" height="1.401" transform="translate(0 11.765)" fill="#dbf1f3"/>
            <rect id="Rectangle_120" data-name="Rectangle 120" width="10.761" height="1.401" transform="translate(0 15.687)" fill="#dbf1f3"/>
            <rect id="Rectangle_121" data-name="Rectangle 121" width="10.761" height="1.401" transform="translate(0 19.609)" fill="#dbf1f3"/>
            <rect id="Rectangle_122" data-name="Rectangle 122" width="10.761" height="1.401" transform="translate(0 23.531)" fill="#dbf1f3"/>
            <rect id="Rectangle_123" data-name="Rectangle 123" width="10.761" height="1.401" transform="translate(0 27.453)" fill="#dbf1f3"/>
            <rect id="Rectangle_124" data-name="Rectangle 124" width="10.761" height="1.401" transform="translate(0 31.375)" fill="#dbf1f3"/>
            <rect id="Rectangle_125" data-name="Rectangle 125" width="10.761" height="1.401" transform="translate(0 35.296)" fill="#dbf1f3"/>
            <rect id="Rectangle_126" data-name="Rectangle 126" width="10.761" height="1.401" transform="translate(0 39.218)" fill="#dbf1f3"/>
          </g>
        </g>
        <g id="Group_23" data-name="Group 23" transform="translate(0 74.76)">
          <rect id="Rectangle_127" data-name="Rectangle 127" width="55.531" height="59.673" fill="#85afaf"/>
          <rect id="Rectangle_128" data-name="Rectangle 128" width="36.236" height="59.673" fill="#a7cccf"/>
          <g id="Group_21" data-name="Group 21" transform="translate(2.072 2.796)">
            <rect id="Rectangle_129" data-name="Rectangle 129" width="14.043" height="1.828" fill="#dbf1f3"/>
            <rect id="Rectangle_130" data-name="Rectangle 130" width="14.043" height="1.828" transform="translate(0 5.118)" fill="#dbf1f3"/>
            <rect id="Rectangle_131" data-name="Rectangle 131" width="14.043" height="1.828" transform="translate(0 10.236)" fill="#dbf1f3"/>
            <rect id="Rectangle_132" data-name="Rectangle 132" width="14.043" height="1.828" transform="translate(0 15.354)" fill="#dbf1f3"/>
            <rect id="Rectangle_133" data-name="Rectangle 133" width="14.043" height="1.828" transform="translate(0 20.471)" fill="#dbf1f3"/>
            <rect id="Rectangle_134" data-name="Rectangle 134" width="14.043" height="1.828" transform="translate(0 25.589)" fill="#dbf1f3"/>
            <rect id="Rectangle_135" data-name="Rectangle 135" width="14.043" height="1.828" transform="translate(0 30.707)" fill="#dbf1f3"/>
            <rect id="Rectangle_136" data-name="Rectangle 136" width="14.043" height="1.828" transform="translate(0 35.825)" fill="#dbf1f3"/>
            <rect id="Rectangle_137" data-name="Rectangle 137" width="14.043" height="1.828" transform="translate(0 40.943)" fill="#dbf1f3"/>
            <rect id="Rectangle_138" data-name="Rectangle 138" width="14.043" height="1.828" transform="translate(0 46.061)" fill="#dbf1f3"/>
            <rect id="Rectangle_139" data-name="Rectangle 139" width="14.043" height="1.828" transform="translate(0 51.178)" fill="#dbf1f3"/>
          </g>
          <g id="Group_22" data-name="Group 22" transform="translate(19.762 2.796)">
            <rect id="Rectangle_140" data-name="Rectangle 140" width="14.043" height="1.828" fill="#dbf1f3"/>
            <rect id="Rectangle_141" data-name="Rectangle 141" width="14.043" height="1.828" transform="translate(0 5.118)" fill="#dbf1f3"/>
            <rect id="Rectangle_142" data-name="Rectangle 142" width="14.043" height="1.828" transform="translate(0 10.236)" fill="#dbf1f3"/>
            <rect id="Rectangle_143" data-name="Rectangle 143" width="14.043" height="1.828" transform="translate(0 15.354)" fill="#dbf1f3"/>
            <rect id="Rectangle_144" data-name="Rectangle 144" width="14.043" height="1.828" transform="translate(0 20.471)" fill="#dbf1f3"/>
            <rect id="Rectangle_145" data-name="Rectangle 145" width="14.043" height="1.828" transform="translate(0 25.589)" fill="#dbf1f3"/>
            <rect id="Rectangle_146" data-name="Rectangle 146" width="14.043" height="1.828" transform="translate(0 30.707)" fill="#dbf1f3"/>
            <rect id="Rectangle_147" data-name="Rectangle 147" width="14.043" height="1.828" transform="translate(0 35.825)" fill="#dbf1f3"/>
            <rect id="Rectangle_148" data-name="Rectangle 148" width="14.043" height="1.828" transform="translate(0 40.943)" fill="#dbf1f3"/>
            <rect id="Rectangle_149" data-name="Rectangle 149" width="14.043" height="1.828" transform="translate(0 46.061)" fill="#dbf1f3"/>
            <rect id="Rectangle_150" data-name="Rectangle 150" width="14.043" height="1.828" transform="translate(0 51.178)" fill="#dbf1f3"/>
          </g>
        </g>
      </g>
      <g id="Group_27" data-name="Group 27" transform="translate(187.59 41.238)">
        <rect id="Rectangle_151" data-name="Rectangle 151" width="42.231" height="93.194" fill="#85afaf"/>
        <rect id="Rectangle_152" data-name="Rectangle 152" width="27.557" height="93.194" fill="#a7cccf"/>
        <g id="Group_25" data-name="Group 25" transform="translate(1.576 4.366)">
          <rect id="Rectangle_153" data-name="Rectangle 153" width="10.68" height="2.855" fill="#dbf1f3"/>
          <rect id="Rectangle_154" data-name="Rectangle 154" width="10.68" height="2.855" transform="translate(0 7.993)" fill="#dbf1f3"/>
          <rect id="Rectangle_155" data-name="Rectangle 155" width="10.68" height="2.855" transform="translate(0 15.986)" fill="#dbf1f3"/>
          <rect id="Rectangle_156" data-name="Rectangle 156" width="10.68" height="2.855" transform="translate(0 23.978)" fill="#dbf1f3"/>
          <rect id="Rectangle_157" data-name="Rectangle 157" width="10.68" height="2.855" transform="translate(0 31.971)" fill="#dbf1f3"/>
          <rect id="Rectangle_158" data-name="Rectangle 158" width="10.68" height="2.855" transform="translate(0 39.964)" fill="#dbf1f3"/>
          <rect id="Rectangle_159" data-name="Rectangle 159" width="10.68" height="2.855" transform="translate(0 47.957)" fill="#dbf1f3"/>
          <rect id="Rectangle_160" data-name="Rectangle 160" width="10.68" height="2.855" transform="translate(0 55.95)" fill="#dbf1f3"/>
          <rect id="Rectangle_161" data-name="Rectangle 161" width="10.68" height="2.855" transform="translate(0 63.943)" fill="#dbf1f3"/>
          <rect id="Rectangle_162" data-name="Rectangle 162" width="10.68" height="2.855" transform="translate(0 71.935)" fill="#dbf1f3"/>
          <rect id="Rectangle_163" data-name="Rectangle 163" width="10.68" height="2.855" transform="translate(0 79.928)" fill="#dbf1f3"/>
        </g>
        <g id="Group_26" data-name="Group 26" transform="translate(15.029 4.366)">
          <rect id="Rectangle_164" data-name="Rectangle 164" width="10.68" height="2.855" fill="#dbf1f3"/>
          <rect id="Rectangle_165" data-name="Rectangle 165" width="10.68" height="2.855" transform="translate(0 7.993)" fill="#dbf1f3"/>
          <rect id="Rectangle_166" data-name="Rectangle 166" width="10.68" height="2.855" transform="translate(0 15.986)" fill="#dbf1f3"/>
          <rect id="Rectangle_167" data-name="Rectangle 167" width="10.68" height="2.855" transform="translate(0 23.978)" fill="#dbf1f3"/>
          <rect id="Rectangle_168" data-name="Rectangle 168" width="10.68" height="2.855" transform="translate(0 31.971)" fill="#dbf1f3"/>
          <rect id="Rectangle_169" data-name="Rectangle 169" width="10.68" height="2.855" transform="translate(0 39.964)" fill="#dbf1f3"/>
          <rect id="Rectangle_170" data-name="Rectangle 170" width="10.68" height="2.855" transform="translate(0 47.957)" fill="#dbf1f3"/>
          <rect id="Rectangle_171" data-name="Rectangle 171" width="10.68" height="2.855" transform="translate(0 55.95)" fill="#dbf1f3"/>
          <rect id="Rectangle_172" data-name="Rectangle 172" width="10.68" height="2.855" transform="translate(0 63.943)" fill="#dbf1f3"/>
          <rect id="Rectangle_173" data-name="Rectangle 173" width="10.68" height="2.855" transform="translate(0 71.935)" fill="#dbf1f3"/>
          <rect id="Rectangle_174" data-name="Rectangle 174" width="10.68" height="2.855" transform="translate(0 79.928)" fill="#dbf1f3"/>
        </g>
      </g>
      <g id="Group_30" data-name="Group 30" transform="translate(220.688 68.283)">
        <rect id="Rectangle_175" data-name="Rectangle 175" width="29.976" height="66.15" fill="#85afaf"/>
        <rect id="Rectangle_176" data-name="Rectangle 176" width="19.56" height="66.15" fill="#a7cccf"/>
        <g id="Group_28" data-name="Group 28" transform="translate(1.118 3.099)">
          <rect id="Rectangle_177" data-name="Rectangle 177" width="7.58" height="2.026" fill="#dbf1f3"/>
          <rect id="Rectangle_178" data-name="Rectangle 178" width="7.58" height="2.026" transform="translate(0 5.673)" fill="#dbf1f3"/>
          <rect id="Rectangle_179" data-name="Rectangle 179" width="7.58" height="2.026" transform="translate(0 11.347)" fill="#dbf1f3"/>
          <rect id="Rectangle_180" data-name="Rectangle 180" width="7.58" height="2.026" transform="translate(0 17.02)" fill="#dbf1f3"/>
          <rect id="Rectangle_181" data-name="Rectangle 181" width="7.58" height="2.026" transform="translate(0 22.693)" fill="#dbf1f3"/>
          <rect id="Rectangle_182" data-name="Rectangle 182" width="7.58" height="2.026" transform="translate(0 28.367)" fill="#dbf1f3"/>
          <rect id="Rectangle_183" data-name="Rectangle 183" width="7.58" height="2.026" transform="translate(0 34.04)" fill="#dbf1f3"/>
          <rect id="Rectangle_184" data-name="Rectangle 184" width="7.58" height="2.026" transform="translate(0 39.713)" fill="#dbf1f3"/>
          <rect id="Rectangle_185" data-name="Rectangle 185" width="7.58" height="2.026" transform="translate(0 45.387)" fill="#dbf1f3"/>
          <rect id="Rectangle_186" data-name="Rectangle 186" width="7.58" height="2.026" transform="translate(0 51.06)" fill="#dbf1f3"/>
          <rect id="Rectangle_187" data-name="Rectangle 187" width="7.58" height="2.026" transform="translate(0 56.733)" fill="#dbf1f3"/>
        </g>
        <g id="Group_29" data-name="Group 29" transform="translate(10.667 3.099)">
          <rect id="Rectangle_188" data-name="Rectangle 188" width="7.58" height="2.026" fill="#dbf1f3"/>
          <rect id="Rectangle_189" data-name="Rectangle 189" width="7.58" height="2.026" transform="translate(0 5.673)" fill="#dbf1f3"/>
          <rect id="Rectangle_190" data-name="Rectangle 190" width="7.58" height="2.026" transform="translate(0 11.347)" fill="#dbf1f3"/>
          <rect id="Rectangle_191" data-name="Rectangle 191" width="7.58" height="2.026" transform="translate(0 17.02)" fill="#dbf1f3"/>
          <rect id="Rectangle_192" data-name="Rectangle 192" width="7.58" height="2.026" transform="translate(0 22.693)" fill="#dbf1f3"/>
          <rect id="Rectangle_193" data-name="Rectangle 193" width="7.58" height="2.026" transform="translate(0 28.367)" fill="#dbf1f3"/>
          <rect id="Rectangle_194" data-name="Rectangle 194" width="7.58" height="2.026" transform="translate(0 34.04)" fill="#dbf1f3"/>
          <rect id="Rectangle_195" data-name="Rectangle 195" width="7.58" height="2.026" transform="translate(0 39.713)" fill="#dbf1f3"/>
          <rect id="Rectangle_196" data-name="Rectangle 196" width="7.58" height="2.026" transform="translate(0 45.387)" fill="#dbf1f3"/>
          <rect id="Rectangle_197" data-name="Rectangle 197" width="7.58" height="2.026" transform="translate(0 51.06)" fill="#dbf1f3"/>
          <rect id="Rectangle_198" data-name="Rectangle 198" width="7.58" height="2.026" transform="translate(0 56.733)" fill="#dbf1f3"/>
        </g>
      </g>
    </g>
    <g id="Group_32" data-name="Group 32" transform="translate(33.671 159.789)">
      <path id="Path_5" data-name="Path 5" d="M83.538,279.582c-9.044,0-16.375,23.117-16.375,31.613s7.331,15.382,16.375,15.382,16.375-6.887,16.375-15.382S92.582,279.582,83.538,279.582Z" transform="translate(-67.163 -279.582)" fill="#00c353"/>
      <path id="Path_6" data-name="Path 6" d="M88.794,328.838v-4.7l8.743-9.471-1.12-1.034-7.624,8.258V306.641H87.27v11.609l-6.237-5.633-1.021,1.131L87.27,320.3v12.707l-10.2-7.364-.892,1.236,11.1,8.008v14.629h1.524V330.757l9.826-7.523-.926-1.21Z" transform="translate(-71.657 -293.075)" fill="#fff"/>
    </g>
    <path id="Path_7" data-name="Path 7" d="M90.71,383.149c-.785.392,0-1.177-.589-3.138s-4.511,3.53-4.708,4.119-.2-.785-.393-3.727-5.688,2.55-5.688,2.55a22.941,22.941,0,0,0-.589-4.315c-.588-2.746-4.119,3.138-4.708,4.119s-.588-1.765-2.354-3.923-2.158,3.923-2.158,3.923a11.843,11.843,0,0,0-5.884-3.923c-3.923-1.177.392,4.119.392,4.119l-3.334-.981c-3.334-.981-5.1,3.087-5.1,3.087H94.225a10.179,10.179,0,0,0-1.358-5.048C91.495,378.049,91.495,382.756,90.71,383.149Z" transform="translate(-27.726 -168.827)" fill="#00c353"/>
    <g id="Group_33" data-name="Group 33" transform="translate(317.76 156.415)">
      <path id="Path_8" data-name="Path 8" d="M651.184,272.852c-9.584,0-17.354,24.5-17.354,33.5s7.769,16.3,17.354,16.3,17.354-7.3,17.354-16.3S660.768,272.852,651.184,272.852Z" transform="translate(-633.83 -272.852)" fill="#00c353"/>
      <path id="Path_9" data-name="Path 9" d="M656.753,325.052v-4.981l9.266-10.037-1.186-1.1-8.079,8.752V301.529h-1.615v12.3l-6.61-5.97-1.082,1.2,7.692,6.948v13.466l-10.813-7.8-.945,1.309,11.758,8.487v15.5h1.615V327.086l10.414-7.973-.982-1.282Z" transform="translate(-638.592 -287.152)" fill="#fff"/>
    </g>
    <path id="Path_10" data-name="Path 10" d="M670.114,379.005a27.616,27.616,0,0,0-1.177,2.942s-.981-6.277-2.746-5.1-2.158,4.512-2.158,4.512-3.334-5.885-3.727-4.315a23.318,23.318,0,0,0-.392,4.315s-3.138-5.3-3.138-3.727a7.312,7.312,0,0,1-1.177,3.334s-.392-6.669-1.765-4.708a22.323,22.323,0,0,0-2.354,5.492s-2.354-4.511-2.55-3.334a24.817,24.817,0,0,0-.2,3.138s-5.689-5.688-5.689-3.727a35.948,35.948,0,0,0,.589,5.1s-2.942-2.55-3.334-1.766a7.656,7.656,0,0,0-.146,2.891H672.86S670.7,377.828,670.114,379.005Z" transform="translate(-319.185 -167.822)" fill="#00c353"/>
    <g id="Group_34" data-name="Group 34" transform="translate(295.321 163.795)">
      <path id="Path_11" data-name="Path 11" d="M604.284,287.573c-8.4,0-15.213,21.477-15.213,29.369s6.811,14.29,15.213,14.29,15.212-6.4,15.212-14.29S612.685,287.573,604.284,287.573Z" transform="translate(-589.071 -287.573)" fill="#00c353"/>
      <path id="Path_12" data-name="Path 12" d="M609.167,333.333v-4.366l8.122-8.8-1.04-.96-7.082,7.672V312.711h-1.416V323.5l-5.794-5.234-.949,1.05,6.743,6.091v11.8l-9.479-6.842-.829,1.148,10.308,7.44v13.591h1.416V335.116l9.129-6.989L617.435,327Z" transform="translate(-593.246 -300.109)" fill="#fff"/>
    </g>
    <g id="Group_38" data-name="Group 38" transform="translate(63.142 92.161)">
      <g id="Group_37" data-name="Group 37">
        <g id="Group_36" data-name="Group 36">
          <g id="Group_35" data-name="Group 35">
            <rect id="Rectangle_199" data-name="Rectangle 199" width="74.055" height="140.919" rx="10" fill="#212e3e"/>
          </g>
          <path id="Path_13" data-name="Path 13" d="M194.728,151.043h-16.4v1.95a2.532,2.532,0,0,1-2.532,2.532H156.5a2.532,2.532,0,0,1-2.532-2.532v-1.95h-16.4a5.264,5.264,0,0,0-5.258,5.258V278.015a5.264,5.264,0,0,0,5.258,5.258h57.164a5.264,5.264,0,0,0,5.258-5.258V156.3A5.264,5.264,0,0,0,194.728,151.043Z" transform="translate(-129.119 -147.856)" fill="#fff"/>
          <rect id="Rectangle_200" data-name="Rectangle 200" width="67.68" height="104.916" transform="translate(3.187 12.987)" fill="#00c353"/>
          <path id="Path_14" data-name="Path 14" d="M184.844,191.606a33.348,33.348,0,0,1-22.223,16.807l-8.165,1.8-8.738-39.624h-4.74l3.95,17.909-12.622,2.783v3.555l13.369-2.948,4.261,19.322-17.63,3.888v4.74l18.627-4.108,2.553,11.579-21.18,4.67v3.555l21.928-4.835,5.169,23.44-27.1,5.975v4.74l28.094-6.195,3.714,16.846h4.74l-3.934-17.843,24.057-5.3,5.1,23.148h3.555l-5.269-23.9,7.619-1.68v-4.74l-8.616,1.9-5.169-23.44,13.785-3.04v-3.555l-17.923,3.953h0l-24.057,5.305-2.553-11.578,8.165-1.8a37.971,37.971,0,0,0,25.3-19.138l11.064-20.605v-2.6h-3.857ZM182.811,224.4l5.169,23.44-24.057,5.305-5.169-23.44Z" transform="translate(-129.119 -157.603)" fill="#fff"/>
        </g>
        <path id="Path_15" data-name="Path 15" d="M170.621,183.551a5.1,5.1,0,0,0-5.095,5.095c0,.107,0,.213.011.318l-.011-.008c.246,4.231,5.095,7.3,5.095,7.3s4.849-3.069,5.095-7.3l-.011.008c.007-.105.011-.211.011-.318A5.094,5.094,0,0,0,170.621,183.551Zm0,7.946a2.851,2.851,0,1,1,2.852-2.851A2.851,2.851,0,0,1,170.621,191.5Z" transform="translate(-145.684 -164.066)" fill="#f6e038"/>
        <path id="Path_16" data-name="Path 16" d="M180.783,341.857a5.094,5.094,0,0,0-5.095,5.095c0,.107,0,.213.011.317l-.011-.008c.246,4.232,5.095,7.3,5.095,7.3s4.849-3.069,5.095-7.3l-.011.008c.007-.1.011-.211.011-.317A5.094,5.094,0,0,0,180.783,341.857Zm0,7.946a2.851,2.851,0,1,1,2.851-2.851A2.851,2.851,0,0,1,180.783,349.8Z" transform="translate(-150.752 -243.008)" fill="#c3422d"/>
      </g>
      <rect id="Rectangle_201" data-name="Rectangle 201" width="29.997" height="6.933" rx="3.467" transform="translate(22.029 122.786)" fill="#f6e038"/>
    </g>
    <g id="Group_45" data-name="Group 45" transform="translate(118.715 147.143)">
      <g id="Group_43" data-name="Group 43">
        <path id="Path_17" data-name="Path 17" d="M416.865,254.356H400.373a3.551,3.551,0,0,0-3.551,3.551v5h23.594v-5A3.551,3.551,0,0,0,416.865,254.356Z" transform="translate(-316.597 -254.356)" fill="#fafcf7"/>
        <path id="Path_18" data-name="Path 18" d="M418.921,269.483h-24.2a1.5,1.5,0,0,0-1.5,1.5V273.7h27.205v-2.709A1.5,1.5,0,0,0,418.921,269.483Z" transform="translate(-314.801 -261.899)" fill="#212e3e"/>
        <path id="Path_19" data-name="Path 19" d="M429.219,349.518c-7.747-3.935-131.578-3.977-138.776,3.221s-1.514,19.719-1.514,19.719l146.944.7C442.973,366.058,436.966,353.453,429.219,349.518Z" transform="translate(-261.732 -300.488)" fill="#19232f"/>
        <circle id="Ellipse_1" data-name="Ellipse 1" cx="16.189" cy="16.189" r="16.189" transform="translate(140.357 53.56)" fill="#212e3e"/>
        <g id="Group_39" data-name="Group 39" transform="translate(143.13 56.333)">
          <circle id="Ellipse_2" data-name="Ellipse 2" cx="10.941" cy="10.941" r="10.941" transform="translate(0 5.706) rotate(-15.115)" fill="#fff"/>
          <path id="Path_20" data-name="Path 20" d="M543.342,375.439l2.866,7.677,2.866-7.677a11.037,11.037,0,0,0-5.731,0Z" transform="translate(-532.792 -370.88)" fill="#212e3e"/>
          <path id="Path_21" data-name="Path 21" d="M530.636,390.632a11.035,11.035,0,0,0,.378,2.866l7.678-2.866-7.678-2.866A11.035,11.035,0,0,0,530.636,390.632Z" transform="translate(-526.456 -377.216)" fill="#212e3e"/>
          <path id="Path_22" data-name="Path 22" d="M543.342,403.513a11.038,11.038,0,0,0,5.731,0l-2.866-7.678Z" transform="translate(-532.792 -381.24)" fill="#212e3e"/>
          <path id="Path_23" data-name="Path 23" d="M551.411,390.632l7.678,2.866a11.051,11.051,0,0,0,0-5.731Z" transform="translate(-536.816 -377.216)" fill="#212e3e"/>
          <circle id="Ellipse_3" data-name="Ellipse 3" cx="3.332" cy="3.332" r="3.332" transform="translate(10.083 10.083)" fill="#cedeed"/>
        </g>
        <path id="Path_24" data-name="Path 24" d="M432.258,305.1c-3.85-1.585-49.153-12-49.153-12s-24.617-17.934-29.43-19.4-53.8-.955-57.761,1.125c-5.2,2.726-20.163,17.246-20.163,17.246-1.8,0-25.181,1.1-27.931,3.85s-6.326,9.379-6.326,14.041V322.4h28.437a17.836,17.836,0,0,1,28.218,0h83.428a17.836,17.836,0,0,1,28.218,0h28.353S436.109,306.682,432.258,305.1Z" transform="translate(-239.14 -263.588)" fill="#ffc52e"/>
        <path id="Path_25" data-name="Path 25" d="M351.039,367.839a17.546,17.546,0,0,1,5.29,15.343c22.9.16,51.262.333,76.384.409a17.593,17.593,0,0,1,5.227-15.752Z" transform="translate(-293.767 -310.946)" fill="#dbc431"/>
        <g id="Group_40" data-name="Group 40" transform="translate(52.702 51.862)">
          <path id="Path_26" data-name="Path 26" d="M538.154,358.72a17.821,17.821,0,0,1,5.466-.855h-5.466Z" transform="translate(-439.776 -357.835)" fill="#212e3e"/>
          <path id="Path_27" data-name="Path 27" d="M516.355,363.331h3.537l1.925-1.73v-3.736h-5.462Z" transform="translate(-428.906 -357.835)" fill="#212e3e"/>
          <rect id="Rectangle_202" data-name="Rectangle 202" width="5.466" height="5.466" transform="translate(76.548)" fill="#212e3e"/>
          <rect id="Rectangle_203" data-name="Rectangle 203" width="5.466" height="5.466" transform="translate(65.617)" fill="#212e3e"/>
          <rect id="Rectangle_204" data-name="Rectangle 204" width="5.466" height="5.466" transform="translate(54.654 0.031)" fill="#212e3e"/>
          <rect id="Rectangle_205" data-name="Rectangle 205" width="5.466" height="5.466" transform="translate(43.723 0.031)" fill="#212e3e"/>
          <rect id="Rectangle_206" data-name="Rectangle 206" width="5.466" height="5.466" transform="translate(32.792 0.031)" fill="#212e3e"/>
          <rect id="Rectangle_207" data-name="Rectangle 207" width="5.465" height="5.466" transform="translate(21.861 0.031)" fill="#212e3e"/>
          <rect id="Rectangle_208" data-name="Rectangle 208" width="5.466" height="5.466" transform="translate(10.93 0.031)" fill="#212e3e"/>
          <path id="Path_28" data-name="Path 28" d="M341.922,359.655a17.85,17.85,0,0,1,5.055,3.677h.411v-5.467h-5.466Z" transform="translate(-341.922 -357.835)" fill="#212e3e"/>
          <path id="Path_29" data-name="Path 29" d="M505.451,374.235h5.4l.068-.156v-5.31h-5.466Z" transform="translate(-423.469 -363.272)" fill="#212e3e"/>
          <rect id="Rectangle_209" data-name="Rectangle 209" width="5.465" height="5.466" transform="translate(71.082 5.466)" fill="#212e3e"/>
          <rect id="Rectangle_210" data-name="Rectangle 210" width="5.466" height="5.466" transform="translate(60.151 5.466)" fill="#212e3e"/>
          <rect id="Rectangle_211" data-name="Rectangle 211" width="5.466" height="5.465" transform="translate(49.189 5.497)" fill="#212e3e"/>
          <rect id="Rectangle_212" data-name="Rectangle 212" width="5.466" height="5.465" transform="translate(38.258 5.497)" fill="#212e3e"/>
          <rect id="Rectangle_213" data-name="Rectangle 213" width="5.466" height="5.465" transform="translate(27.327 5.497)" fill="#212e3e"/>
          <rect id="Rectangle_214" data-name="Rectangle 214" width="5.466" height="5.465" transform="translate(16.396 5.497)" fill="#212e3e"/>
          <path id="Path_30" data-name="Path 30" d="M352.825,369.209a17.843,17.843,0,0,1,3.194,5.026h2.268v-5.466h-5.462Z" transform="translate(-347.359 -363.272)" fill="#212e3e"/>
        </g>
        <path id="Path_31" data-name="Path 31" d="M607.068,370.192a2.689,2.689,0,0,0-2.694-2.353H573.736a17.6,17.6,0,0,1,5.224,15.776c16.056-.044,26.818-.193,27.322-.508,2.1-1.315,1.315-7.89.789-12.887Z" transform="translate(-404.818 -310.946)" fill="#dbc431"/>
        <path id="Path_32" data-name="Path 32" d="M238.666,367.839a1.819,1.819,0,0,0-1.817,1.718c-.21,3.87.173,7.824,2.325,9.343,4.471,3.156,15.254,3.945,16.043,3.945l8.779.072a17.6,17.6,0,0,1,5.331-15.077Z" transform="translate(-236.799 -310.946)" fill="#dbc431"/>
        <circle id="Ellipse_4" data-name="Ellipse 4" cx="16.189" cy="16.189" r="16.189" transform="translate(25.464 57.65) rotate(-13.098)" fill="#212e3e"/>
        <g id="Group_41" data-name="Group 41" transform="translate(31.756 56.604)">
          <circle id="Ellipse_5" data-name="Ellipse 5" cx="10.941" cy="10.941" r="10.941" transform="matrix(0.974, -0.228, 0.228, 0.974, 0, 4.981)" fill="#fff"/>
          <path id="Path_33" data-name="Path 33" d="M320.644,375.439l2.866,7.677,2.866-7.677a11.037,11.037,0,0,0-5.731,0Z" transform="translate(-310.366 -371.151)" fill="#212e3e"/>
          <path id="Path_34" data-name="Path 34" d="M307.938,390.632a11.012,11.012,0,0,0,.379,2.866l7.678-2.866-7.678-2.866A11.012,11.012,0,0,0,307.938,390.632Z" transform="translate(-304.029 -377.487)" fill="#212e3e"/>
          <path id="Path_35" data-name="Path 35" d="M320.645,403.513a11.036,11.036,0,0,0,5.731,0l-2.865-7.678Z" transform="translate(-310.366 -381.511)" fill="#212e3e"/>
          <path id="Path_36" data-name="Path 36" d="M328.713,390.632l7.678,2.866a11.038,11.038,0,0,0,0-5.731Z" transform="translate(-314.389 -377.487)" fill="#212e3e"/>
          <circle id="Ellipse_6" data-name="Ellipse 6" cx="3.332" cy="3.332" r="3.332" transform="translate(9.812 9.812)" fill="#cedeed"/>
        </g>
        <path id="Rectangle_215" data-name="Rectangle 215" d="M1.868,0H11.994a1.868,1.868,0,0,1,1.868,1.868v0a1.868,1.868,0,0,1-1.868,1.868H1.868A1.868,1.868,0,0,1,0,1.868v0A1.868,1.868,0,0,1,1.868,0Z" transform="translate(95.595 37.773)" fill="#dbc431"/>
        <rect id="Rectangle_216" data-name="Rectangle 216" width="13.862" height="3.737" rx="1.868" transform="translate(47.205 37.773)" fill="#dbc431"/>
        <g id="Group_42" data-name="Group 42" transform="translate(85.09 1.414)">
          <path id="Path_37" data-name="Path 37" d="M408.779,261.876h-.988v-3.839h-1.266v-.822h3.52v.822h-1.266Z" transform="translate(-406.525 -257.196)" fill="#212e3e"/>
          <path id="Path_38" data-name="Path 38" d="M417.247,261.857l-.338-1.109h-1.7l-.338,1.109h-1.065l1.645-4.68h1.209l1.651,4.68Zm-.574-1.938q-.468-1.509-.527-1.706t-.085-.312q-.1.408-.6,2.018Z" transform="translate(-410.156 -257.177)" fill="#212e3e"/>
          <path id="Path_39" data-name="Path 39" d="M427.148,261.876h-1.129l-1.084-1.763-1.084,1.763h-1.058l1.546-2.4-1.447-2.258h1.09l1,1.677.985-1.677h1.065l-1.463,2.312Z" transform="translate(-414.637 -257.196)" fill="#212e3e"/>
          <path id="Path_40" data-name="Path 40" d="M432.65,261.876v-4.661h.989v4.661Z" transform="translate(-419.553 -257.196)" fill="#212e3e"/>
        </g>
      </g>
      <g id="Group_44" data-name="Group 44" transform="translate(40.339 11.32)">
        <path id="Path_41" data-name="Path 41" d="M335.773,278.514c-4.021,1.126-18.512,16.774-18.512,16.774h48.391l-1.927-18.174C350.329,277.435,335.773,278.514,335.773,278.514Z" transform="translate(-317.261 -277.025)" fill="#212e3e"/>
        <path id="Path_42" data-name="Path 42" d="M414.363,276.979l6,18.22h36.36s-19.066-15.773-24.023-17.275C429.7,277.015,422.408,276.838,414.363,276.979Z" transform="translate(-365.683 -276.936)" fill="#212e3e"/>
      </g>
      <path id="Path_43" data-name="Path 43" d="M462.116,277.142c-.362.361,22.888,17.079,24.16,17.4a59.447,59.447,0,0,0,6.844.319c-16.427-13.213-27.376-18.465-27.376-18.465S462.477,276.781,462.116,277.142Z" transform="translate(-349.155 -265.345)" fill="#212e3e"/>
      <path id="Path_44" data-name="Path 44" d="M612.064,343.108H598.431a1.411,1.411,0,0,0-1.174,2.193l4.653,6.98a4.271,4.271,0,0,0,3.554,1.9h9.243a2.03,2.03,0,0,0,2.032-2.1,13.333,13.333,0,0,0-3.148-8.288A2.019,2.019,0,0,0,612.064,343.108Z" transform="translate(-416.428 -298.614)" fill="#fff"/>
      <path id="Path_45" data-name="Path 45" d="M612.064,343.108H598.431a1.411,1.411,0,0,0-1.174,2.193l4.653,6.98a4.271,4.271,0,0,0,3.554,1.9h9.243a2.03,2.03,0,0,0,2.032-2.1,13.333,13.333,0,0,0-3.148-8.288A2.019,2.019,0,0,0,612.064,343.108Z" transform="translate(-416.428 -298.614)" fill="#fff"/>
      <path id="Path_46" data-name="Path 46" d="M598.431,343.108a1.411,1.411,0,0,0-1.174,2.193l4.653,6.98a4.271,4.271,0,0,0,3.554,1.9h3.08l-4.318-11.075Z" transform="translate(-416.428 -298.614)" fill="#d45a1c"/>
      <rect id="Rectangle_217" data-name="Rectangle 217" width="9.853" height="11.823" rx="2.57" transform="translate(1.051 43.538)" fill="#c3422d"/>
      <rect id="Rectangle_218" data-name="Rectangle 218" width="5.57" height="11.823" rx="2.57" transform="translate(7.152 43.538)" fill="#d45a1c"/>
      <path id="Path_47" data-name="Path 47" d="M462.115,277.142c-.194.193,6.379,5.073,12.724,9.617.534-.284,1.064-.588,1.589-.917a20.263,20.263,0,0,1,2.651-1.4,117.168,117.168,0,0,0-13.336-8.049S462.477,276.781,462.115,277.142Z" transform="translate(-349.154 -265.345)" fill="#2a3d51"/>
      <path id="Path_48" data-name="Path 48" d="M414.363,276.979l2.019,6.131a30.322,30.322,0,0,1,8.12,3c7.249,3.869,15.778,5.207,23.64,2.226-5.739-4.458-12.719-9.59-15.442-10.415C429.7,277.015,422.408,276.838,414.363,276.979Z" transform="translate(-325.344 -265.616)" fill="#2a3d51"/>
      <path id="Path_49" data-name="Path 49" d="M344.78,278.514c-1.8.5-5.7,3.92-9.456,7.539,1.805.645,3.822,1.275,6.041,1.86,10.521,2.778,16.442-.98,21.861-3.432a21.416,21.416,0,0,1,10.1-1.769l-.594-5.6C359.336,277.435,344.78,278.514,344.78,278.514Z" transform="translate(-285.93 -265.705)" fill="#2a3d51"/>
      <rect id="Rectangle_219" data-name="Rectangle 219" width="4.64" height="9.236" rx="2.255" transform="translate(199.008 60.513)" fill="#d45a1c"/>
    </g>
  </g>
</svg>
