<svg xmlns="http://www.w3.org/2000/svg" width="113.378" height="43.638" viewBox="0 0 113.378 43.638">
  <g id="Group_624" data-name="Group 624" transform="translate(0 0)">
    <path id="Path_708" data-name="Path 708" d="M1387.581,1690.777l-18.817-.511-31.344-6.647-17.744,7.363-19.84-.2-3.822-3.477,5.99-12.477,79.394,2.045,11.215,7.977Z" transform="translate(-1284.543 -1653.322)" fill="#2b2a25"/>
    <g id="Group_568" data-name="Group 568" transform="translate(85.238 26.918)">
      <g id="Group_567" data-name="Group 567" transform="translate(0 0)">
        <circle id="Ellipse_52" data-name="Ellipse 52" cx="8.36" cy="8.36" r="8.36" fill="#777464"/>
        <path id="Path_709" data-name="Path 709" d="M1387.049,1726.152c-2.43,1.462-4.574,3.875-4.689,6.916-.158,4.164,1.706,8.886,8.749,8.7a10.411,10.411,0,0,0,3.388-.7,9.575,9.575,0,0,1-4.653,1.118,8.006,8.006,0,0,1-8.011-8.286A8.362,8.362,0,0,1,1387.049,1726.152Z" transform="translate(-1381.833 -1725.487)" fill="#424038"/>
        <path id="Path_710" data-name="Path 710" d="M1375.121,1753.162a5.1,5.1,0,1,0,5.1-5.1A5.1,5.1,0,0,0,1375.121,1753.162Z" transform="translate(-1371.86 -1744.802)" fill="#b7b29e"/>
        <path id="Path_711" data-name="Path 711" d="M1378.623,1756.249a4.684,4.684,0,1,0,4.684-4.684A4.684,4.684,0,0,0,1378.623,1756.249Z" transform="translate(-1374.947 -1747.889)" fill="#969283"/>
        <path id="Path_712" data-name="Path 712" d="M1390.132,1766.394a3.32,3.32,0,1,0,3.321-3.32A3.32,3.32,0,0,0,1390.132,1766.394Z" transform="translate(-1385.093 -1758.034)" fill="#777464"/>
        <g id="Group_566" data-name="Group 566" transform="translate(5.672 5.672)">
          <g id="Group_564" data-name="Group 564">
            <path id="Path_713" data-name="Path 713" d="M1414.1,1773.306a.48.48,0,0,0,.48.48h0a.48.48,0,0,0,.48-.48v-4.416a.48.48,0,0,0-.48-.48h0a.48.48,0,0,0-.48.48Z" transform="translate(-1411.895 -1768.41)" fill="#969283"/>
            <path id="Path_714" data-name="Path 714" d="M1395.948,1786.64a.48.48,0,0,0-.48.48h0a.48.48,0,0,0,.48.48h4.416a.48.48,0,0,0,.48-.48h0a.48.48,0,0,0-.48-.48Z" transform="translate(-1395.468 -1784.48)" fill="#969283"/>
          </g>
          <g id="Group_565" data-name="Group 565" transform="translate(0.63 0.63)">
            <path id="Path_715" data-name="Path 715" d="M1401.21,1777.274a.481.481,0,0,0,0,.679h0a.48.48,0,0,0,.679,0l3.123-3.123a.48.48,0,0,0,0-.679h0a.479.479,0,0,0-.678,0Z" transform="translate(-1401.07 -1773.977)" fill="#969283"/>
            <path id="Path_716" data-name="Path 716" d="M1401.6,1773.865a.481.481,0,0,0-.679,0h0a.48.48,0,0,0,0,.679l3.123,3.123a.48.48,0,0,0,.679,0h0a.48.48,0,0,0,0-.679Z" transform="translate(-1400.748 -1773.724)" fill="#969283"/>
          </g>
          <path id="Path_717" data-name="Path 717" d="M1401.951,1776.813a1.92,1.92,0,1,0,1.92-1.92A1.92,1.92,0,0,0,1401.951,1776.813Z" transform="translate(-1401.183 -1774.125)" fill="#969283"/>
        </g>
        <path id="Path_718" data-name="Path 718" d="M1363.089,1734.406l-.711-.553a6.415,6.415,0,0,0-2.648-4.546,8.1,8.1,0,0,0-5.218-1.463l-.277-.554a9.062,9.062,0,0,1,6.088,1.582A6.968,6.968,0,0,1,1363.089,1734.406Z" transform="translate(-1347.16 -1726.456)" fill="#969283" opacity="0.4"/>
        <path id="Path_719" data-name="Path 719" d="M1416.237,1770.262a.227.227,0,1,0,.227-.227A.227.227,0,0,0,1416.237,1770.262Z" transform="translate(-1408.105 -1764.171)" fill="#b7b29e"/>
        <path id="Path_720" data-name="Path 720" d="M1429.581,1775.6a.227.227,0,1,0,.227-.227A.227.227,0,0,0,1429.581,1775.6Z" transform="translate(-1423.03 -1768.876)" fill="#b7b29e"/>
        <path id="Path_721" data-name="Path 721" d="M1435.919,1789.111a.227.227,0,1,0,.228-.227A.227.227,0,0,0,1435.919,1789.111Z" transform="translate(-1430.119 -1780.786)" fill="#b7b29e"/>
        <path id="Path_722" data-name="Path 722" d="M1430.248,1803.624a.227.227,0,1,0,.227-.227A.227.227,0,0,0,1430.248,1803.624Z" transform="translate(-1423.776 -1793.579)" fill="#b7b29e"/>
        <path id="Path_723" data-name="Path 723" d="M1416.07,1808.627a.227.227,0,1,0,.227-.227A.227.227,0,0,0,1416.07,1808.627Z" transform="translate(-1407.918 -1797.99)" fill="#b7b29e"/>
        <path id="Path_724" data-name="Path 724" d="M1402.726,1802.79a.227.227,0,1,0,.227-.227A.227.227,0,0,0,1402.726,1802.79Z" transform="translate(-1392.993 -1792.844)" fill="#b7b29e"/>
        <path id="Path_725" data-name="Path 725" d="M1397.388,1789.278a.227.227,0,1,0,.228-.227A.227.227,0,0,0,1397.388,1789.278Z" transform="translate(-1387.022 -1780.933)" fill="#b7b29e"/>
        <path id="Path_726" data-name="Path 726" d="M1402.726,1775.6a.227.227,0,1,0,.227-.227A.228.228,0,0,0,1402.726,1775.6Z" transform="translate(-1392.993 -1768.876)" fill="#b7b29e"/>
      </g>
      <path id="Path_727" data-name="Path 727" d="M1409.257,1783.253a1.054,1.054,0,1,0,1.054-1.054A1.054,1.054,0,0,0,1409.257,1783.253Z" transform="translate(-1401.951 -1774.893)" fill="#b7b29e"/>
    </g>
    <g id="Group_573" data-name="Group 573" transform="translate(16.413 26.918)">
      <g id="Group_572" data-name="Group 572" transform="translate(0 0)">
        <circle id="Ellipse_53" data-name="Ellipse 53" cx="8.36" cy="8.36" r="8.36" transform="translate(0)" fill="#777464"/>
        <path id="Path_728" data-name="Path 728" d="M1967.893,1726.152c-2.43,1.462-4.574,3.875-4.689,6.916-.158,4.164,1.706,8.886,8.749,8.7a10.41,10.41,0,0,0,3.388-.7,9.572,9.572,0,0,1-4.653,1.118,8.006,8.006,0,0,1-8.011-8.286A8.362,8.362,0,0,1,1967.893,1726.152Z" transform="translate(-1962.677 -1725.487)" fill="#424038"/>
        <path id="Path_729" data-name="Path 729" d="M1955.965,1753.162a5.1,5.1,0,1,0,5.1-5.1A5.1,5.1,0,0,0,1955.965,1753.162Z" transform="translate(-1952.704 -1744.802)" fill="#b7b29e"/>
        <path id="Path_730" data-name="Path 730" d="M1959.468,1756.249a4.684,4.684,0,1,0,4.684-4.684A4.684,4.684,0,0,0,1959.468,1756.249Z" transform="translate(-1955.792 -1747.889)" fill="#969283"/>
        <path id="Path_731" data-name="Path 731" d="M1970.977,1766.394a3.32,3.32,0,1,0,3.321-3.32A3.32,3.32,0,0,0,1970.977,1766.394Z" transform="translate(-1965.937 -1758.034)" fill="#777464"/>
        <g id="Group_571" data-name="Group 571" transform="translate(5.672 5.672)">
          <g id="Group_569" data-name="Group 569">
            <path id="Path_732" data-name="Path 732" d="M1994.947,1773.306a.48.48,0,0,0,.48.48h0a.48.48,0,0,0,.48-.48v-4.416a.48.48,0,0,0-.48-.48h0a.48.48,0,0,0-.48.48Z" transform="translate(-1992.739 -1768.41)" fill="#969283"/>
            <path id="Path_733" data-name="Path 733" d="M1976.794,1786.64a.48.48,0,0,0-.48.48h0a.48.48,0,0,0,.48.48h4.416a.48.48,0,0,0,.48-.48h0a.48.48,0,0,0-.48-.48Z" transform="translate(-1976.314 -1784.48)" fill="#969283"/>
          </g>
          <g id="Group_570" data-name="Group 570" transform="translate(0.63 0.63)">
            <path id="Path_734" data-name="Path 734" d="M1982.055,1777.274a.48.48,0,0,0,0,.679h0a.48.48,0,0,0,.679,0l3.122-3.123a.48.48,0,0,0,0-.679h0a.48.48,0,0,0-.679,0Z" transform="translate(-1981.915 -1773.977)" fill="#969283"/>
            <path id="Path_735" data-name="Path 735" d="M1982.447,1773.865a.48.48,0,0,0-.679,0h0a.481.481,0,0,0,0,.679l3.123,3.123a.48.48,0,0,0,.679,0h0a.48.48,0,0,0,0-.679Z" transform="translate(-1981.594 -1773.724)" fill="#969283"/>
          </g>
          <path id="Path_736" data-name="Path 736" d="M1982.8,1776.813a1.92,1.92,0,1,0,1.92-1.92A1.92,1.92,0,0,0,1982.8,1776.813Z" transform="translate(-1982.028 -1774.125)" fill="#969283"/>
        </g>
        <path id="Path_737" data-name="Path 737" d="M1943.934,1734.406l-.711-.553a6.416,6.416,0,0,0-2.649-4.546,8.1,8.1,0,0,0-5.218-1.463l-.277-.554a9.061,9.061,0,0,1,6.087,1.582A6.967,6.967,0,0,1,1943.934,1734.406Z" transform="translate(-1928.004 -1726.456)" fill="#969283" opacity="0.4"/>
        <path id="Path_738" data-name="Path 738" d="M1997.082,1770.262a.227.227,0,1,0,.227-.227A.227.227,0,0,0,1997.082,1770.262Z" transform="translate(-1988.949 -1764.171)" fill="#b7b29e"/>
        <path id="Path_739" data-name="Path 739" d="M2010.426,1775.6a.227.227,0,1,0,.228-.227A.228.228,0,0,0,2010.426,1775.6Z" transform="translate(-2003.875 -1768.876)" fill="#b7b29e"/>
        <path id="Path_740" data-name="Path 740" d="M2016.764,1789.111a.227.227,0,1,0,.227-.227A.228.228,0,0,0,2016.764,1789.111Z" transform="translate(-2010.963 -1780.786)" fill="#b7b29e"/>
        <path id="Path_741" data-name="Path 741" d="M2011.093,1803.624a.227.227,0,1,0,.227-.227A.227.227,0,0,0,2011.093,1803.624Z" transform="translate(-2004.621 -1793.579)" fill="#b7b29e"/>
        <path id="Path_742" data-name="Path 742" d="M1996.915,1808.627a.227.227,0,1,0,.227-.227A.227.227,0,0,0,1996.915,1808.627Z" transform="translate(-1988.763 -1797.99)" fill="#b7b29e"/>
        <path id="Path_743" data-name="Path 743" d="M1983.57,1802.79a.227.227,0,1,0,.228-.227A.228.228,0,0,0,1983.57,1802.79Z" transform="translate(-1973.837 -1792.844)" fill="#b7b29e"/>
        <path id="Path_744" data-name="Path 744" d="M1978.232,1789.278a.227.227,0,1,0,.227-.227A.227.227,0,0,0,1978.232,1789.278Z" transform="translate(-1967.866 -1780.933)" fill="#b7b29e"/>
        <path id="Path_745" data-name="Path 745" d="M1983.57,1775.6a.227.227,0,1,0,.228-.227A.228.228,0,0,0,1983.57,1775.6Z" transform="translate(-1973.837 -1768.876)" fill="#b7b29e"/>
      </g>
      <path id="Path_746" data-name="Path 746" d="M1990.1,1783.253a1.054,1.054,0,1,0,1.054-1.054A1.054,1.054,0,0,0,1990.1,1783.253Z" transform="translate(-1982.796 -1774.893)" fill="#b7b29e"/>
    </g>
    <path id="Path_747" data-name="Path 747" d="M1362.9,1530.823s8.181-.92,9-2.045a1.119,1.119,0,0,0-.2-1.738s.818-9.1-.1-10.329-5.931-5.113-13.4-6.852a39.221,39.221,0,0,0-8.079-1.125s-4.909-2.659-11.25-5.931-10.628-7.036-21.067-7.977c-11.351-1.023-23.419-2.147-35.589-.92s-14.829,2.25-14.829,2.25a41.968,41.968,0,0,0-4.091,10.329c-1.943,6.954-2.045,9.409-2.045,9.409l.1,2.557-1.33,1.431s-.511,3.579.307,5.42a15.837,15.837,0,0,0,3.17,3.989l11.658,1.533s.236-4.628.92-6.34a8.69,8.69,0,0,1,8.028-5.011c3.886.1,7.925,1.278,9.255,5.983a14.13,14.13,0,0,1,.716,5.574l50.008-.716a15.829,15.829,0,0,1,.869-5.625,8.333,8.333,0,0,1,7.312-5.42c5.267-.358,8.079,2.045,9.408,4.6S1362.9,1530.823,1362.9,1530.823Z" transform="translate(-1259.865 -1493.369)" fill="#fc8730"/>
    <path id="Path_748" data-name="Path 748" d="M1545.374,1523.446s-10.238-5.323-16.087-9.013c-6.862-4.329-17.044-4.94-23.361-5.625-10.7-1.159-34.369-.151-36.312,1.281s-4.731,6.833-3.708,7.651a5.509,5.509,0,0,0,2.942,1.6c1.534.307,23.924,2.246,38.169,2.284C1532.379,1521.694,1547.015,1524.968,1545.374,1523.446Z" transform="translate(-1457.533 -1506.533)" fill="#2b2a25"/>
    <path id="Path_749" data-name="Path 749" d="M1508.527,1560.513c.179-.357,3.272,1.159,7.551,3.8,3.133,1.934,6.153,4.244,6.153,4.244l-1.023.886-4.21-.426s-.785-.856-2.335-2.573C1510.879,1562.252,1508.323,1560.922,1508.527,1560.513Z" transform="translate(-1439.34 -1552.512)" fill="#97c1bf"/>
    <path id="Path_750" data-name="Path 750" d="M1605.163,1529.691l3.272,4.7-19.379-.852-2.864-11.914s4.96.511,8.539,1.176a21.271,21.271,0,0,1,5.931,1.977Z" transform="translate(-1534.748 -1518.281)" fill="#97c1bf"/>
    <path id="Path_751" data-name="Path 751" d="M1814.934,1516.884l1.176,11.914-11.829-.358-10.09-.614s.494-4.142,1.005-6.6a42.945,42.945,0,0,1,1.227-4.551s2.045-.2,8.079-.255A93.316,93.316,0,0,1,1814.934,1516.884Z" transform="translate(-1767.069 -1513.689)" fill="#97c1bf"/>
    <path id="Path_752" data-name="Path 752" d="M2000.465,1518.7c1.08.175-.051,2.455-.307,4.244s-.409,4.5-1.074,4.857-3.638.248-6.545.154c-4.7-.154-7.721-.972-7.875-1.841s1.006-4.329,3.2-5.761S1998.573,1518.395,2000.465,1518.7Z" transform="translate(-1974.451 -1515.626)" fill="#97c1bf"/>
    <path id="Path_753" data-name="Path 753" d="M1451.776,1617.995c.921.614,8.311,3.045,8.311,3.045l-87.139-2.455-3.543-6.266Z" transform="translate(-1360.712 -1598.224)" fill="#ffac48"/>
    <path id="Path_754" data-name="Path 754" d="M1554.7,1744.372l-45.25.409,15.646-2.147,25.463.051Z" transform="translate(-1471.921 -1713.098)" fill="#ffac48"/>
    <g id="Group_574" data-name="Group 574" transform="translate(1.373 33.422)">
      <path id="Path_755" data-name="Path 755" d="M1260.186,1779.463a23.029,23.029,0,0,0-.321-4.032H1269c-.013.16-.021.248-.021.248a1.119,1.119,0,0,1,.2,1.739C1268.367,1778.543,1260.186,1779.463,1260.186,1779.463Z" transform="translate(-1158.521 -1775.431)" fill="#686866"/>
      <path id="Path_756" data-name="Path 756" d="M2090.011,1775.431c-.283,1.9-.392,4.032-.392,4.032l-11.658-1.534a20.24,20.24,0,0,1-2.263-2.5Z" transform="translate(-2075.698 -1775.431)" fill="#686866"/>
      <path id="Path_757" data-name="Path 757" d="M1545.52,1775.431a16.121,16.121,0,0,0-.291,3.521l-50.008.716a12.269,12.269,0,0,0-.378-4.237Z" transform="translate(-1462.381 -1775.431)" fill="#686866"/>
    </g>
    <path id="Path_758" data-name="Path 758" d="M1251.234,1692.979c.252-.762,8.075-.4,8.075-.4a1.949,1.949,0,0,1,1.277,1.7c.864,4.858-1.392,5.569-1.392,5.569l-1.827.033S1250.982,1693.742,1251.234,1692.979Z" transform="translate(-1147.406 -1668.897)" fill="#97c1bf"/>
    <path id="Path_759" data-name="Path 759" d="M1260.482,1699.258a7.362,7.362,0,0,1,1.137,1.655,16.5,16.5,0,0,1,.207,2.668l-.827.062a3.675,3.675,0,0,0-3.061-4.364Z" transform="translate(-1149.244 -1674.862)" fill="#fff"/>
    <path id="Path_760" data-name="Path 760" d="M2151.073,1654.627s3.7-.221,4.065-.221a1.008,1.008,0,0,1,.91.9c0,.5-.273,3.72-.364,4.122a1.3,1.3,0,0,1-1.274.8c-.637,0-3.823.1-3.823.1l-.093-2.533Z" transform="translate(-2149.226 -1635.324)" fill="#b52c1a"/>
    <path id="Path_761" data-name="Path 761" d="M2159.618,1659.439l-.327,4.46h-1.3l.326-4.5Z" transform="translate(-2153.683 -1639.722)" fill="#f23325"/>
    <g id="Group_575" data-name="Group 575" transform="translate(50.887 13.729)">
      <path id="Path_762" data-name="Path 762" d="M1570.266,1629.238l.024-.127c.014-.076,1.366-7.619-.466-13.115a19.314,19.314,0,0,0-2.323-4.8l-.248.181a19.01,19.01,0,0,1,2.279,4.713c1.677,5.032.645,11.824.477,12.835l-26.511-.3a32.084,32.084,0,0,0,1.177-9.83c-.457-6.849-1.5-9.451-1.545-9.559l-.284.117c.01.026,1.07,2.675,1.523,9.462a31.971,31.971,0,0,1-1.221,9.915l-.06.2.205,0Z" transform="translate(-1542.846 -1609.237)" fill="#2b2a25"/>
    </g>
    <g id="Group_576" data-name="Group 576" transform="translate(24.283 11.906)">
      <path id="Path_763" data-name="Path 763" d="M1786.244,1615.521l15.628-.155,0-.307-15.36.152a12.2,12.2,0,0,0-1.69-4.378c-2.485-3.8-8.311-4.451-8.956-4.512-.167-.183-.947-1.191-.683-3.825a70.184,70.184,0,0,1,1.836-8.564l-.3-.082a70.487,70.487,0,0,0-1.846,8.615c-.311,3.112.773,4.08.82,4.12l.038.033.05,0c.062,0,6.244.5,8.78,4.379a12.038,12.038,0,0,1,1.664,4.385Z" transform="translate(-1774.818 -1593.85)" fill="#2b2a25"/>
    </g>
    <g id="Group_577" data-name="Group 577" transform="translate(15.748 15.168)">
      <path id="Path_764" data-name="Path 764" d="M2024.014,1625.983c1.776,0,3.221-1.032,3.221-2.3s-1.445-2.3-3.221-2.3-3.221,1.032-3.221,2.3S2022.238,1625.983,2024.014,1625.983Zm0-4.295c1.607,0,2.914.895,2.914,1.994s-1.307,1.994-2.914,1.994-2.915-.895-2.915-1.994S2022.407,1621.688,2024.014,1621.688Z" transform="translate(-2020.793 -1621.381)" fill="#2b2a25"/>
    </g>
    <path id="Path_765" data-name="Path 765" d="M1690.174,1649.984a1.092,1.092,0,0,0,.96,1.21l4.34.5a1.093,1.093,0,0,0,1.21-.96l.042-.362a1.093,1.093,0,0,0-.96-1.21l-4.339-.5a1.092,1.092,0,0,0-1.21.96Z" transform="translate(-1635.365 -1630.255)" fill="#fc8730"/>
    <path id="Path_766" data-name="Path 766" d="M1681.2,1644.9a.591.591,0,0,0,.52.656l6.78.785a.592.592,0,0,0,.656-.52h0a.592.592,0,0,0-.52-.656l-6.781-.785a.592.592,0,0,0-.656.52Z" transform="translate(-1626.729 -1626.48)" fill="#2b2a25"/>
    <path id="Path_767" data-name="Path 767" d="M1919.256,1635.677a1.092,1.092,0,0,0,.96,1.21l4.34.5a1.092,1.092,0,0,0,1.21-.96l.042-.362a1.092,1.092,0,0,0-.96-1.21l-4.34-.5a1.092,1.092,0,0,0-1.21.96Z" transform="translate(-1891.592 -1617.644)" fill="#fc8730"/>
    <path id="Path_768" data-name="Path 768" d="M1910.283,1630.59a.591.591,0,0,0,.52.656l6.78.785a.591.591,0,0,0,.656-.52h0a.592.592,0,0,0-.52-.656l-6.78-.785a.591.591,0,0,0-.656.52Z" transform="translate(-1882.957 -1613.869)" fill="#2b2a25"/>
  </g>
</svg>
