<svg id="visa" xmlns="http://www.w3.org/2000/svg" width="35.037" height="35.037" viewBox="0 0 35.037 35.037">
  <path id="Path_561" data-name="Path 561" d="M35.037,17.519a17.557,17.557,0,0,1-.162,2.389,17.314,17.314,0,0,1-.8,3.364A17.523,17.523,0,0,1,.684,12.655q.131-.456.286-.9a17.522,17.522,0,0,1,34.067,5.765Z" fill="#f0efeb"/>
  <g id="Group_475" data-name="Group 475" transform="translate(0.684 11.752)">
    <path id="Path_562" data-name="Path 562" d="M174.381,183.242h2.956l1.849-11.51h-2.955Z" transform="translate(-163.132 -171.732)" fill="#191b73"/>
    <path id="Path_563" data-name="Path 563" d="M21.907,171.732l-4.649,11.5H14.13l-2.282-8.512a3.1,3.1,0,0,0-1.665-2c-.061-.029-.122-.058-.184-.085q.131-.456.286-.9h2.383a1.932,1.932,0,0,1,1.923,1.482l1,4.881-.012-.031.3,1.486,2.9-7.82h3.128Z" transform="translate(-10 -171.731)" fill="#191b73"/>
    <path id="Path_564" data-name="Path 564" d="M373.04,172.251h-2.287a1.466,1.466,0,0,0-1.546.926l-4.391,10.549h3.1l.855-2.284h3.472l.443,2.292h1.233a17.314,17.314,0,0,0,.8-3.364Zm-3.407,6.886c.061,0,1.191-3.728,1.191-3.728l.9,3.728Z" transform="translate(-340.535 -172.215)" fill="#191b73"/>
    <path id="Path_565" data-name="Path 565" d="M250.575,176.626c-1.033-.51-1.666-.855-1.666-1.376.013-.474.536-.961,1.7-.961a5.145,5.145,0,0,1,2.2.426l.268.12.4-2.408a7.462,7.462,0,0,0-2.654-.474c-2.92,0-4.975,1.518-4.988,3.689-.024,1.6,1.472,2.491,2.591,3.024,1.144.547,1.533.9,1.533,1.388-.013.746-.925,1.091-1.776,1.091a6.012,6.012,0,0,1-2.774-.593l-.389-.177-.413,2.5a9.235,9.235,0,0,0,3.3.594c3.1,0,5.122-1.495,5.147-3.809C253.069,178.392,252.28,177.42,250.575,176.626Z" transform="translate(-228.559 -171.937)" fill="#191b73"/>
  </g>
</svg>
