<svg xmlns="http://www.w3.org/2000/svg" width="33.729" height="12.706" viewBox="0 0 33.729 12.706">
  <g id="sedan-car-model" transform="translate(0.001 -31.876)">
    <g id="Group_604" data-name="Group 604" transform="translate(-0.001 31.876)">
      <path id="Path_851" data-name="Path 851" d="M12.352,52.156A2.545,2.545,0,0,0,9.807,54.7a2.472,2.472,0,0,0,.022.32,2.543,2.543,0,0,0,5.057-.1c.006-.071.011-.144.011-.217A2.544,2.544,0,0,0,12.352,52.156Zm-1.274,1.586.519.519a.879.879,0,0,0-.092.224h-.731A1.572,1.572,0,0,1,11.078,53.742Zm-.308,1.183h.737a.853.853,0,0,0,.092.221l-.52.52A1.592,1.592,0,0,1,10.77,54.925Zm1.362,1.357a1.586,1.586,0,0,1-.738-.306l.517-.518a.876.876,0,0,0,.221.09Zm0-2.428a.884.884,0,0,0-.225.094l-.518-.518a1.582,1.582,0,0,1,.743-.307Zm.441-.733a1.584,1.584,0,0,1,.743.308l-.518.518a.884.884,0,0,0-.225-.094v-.732Zm0,3.16v-.733a.869.869,0,0,0,.221-.09l.518.518A1.586,1.586,0,0,1,12.573,56.282Zm1.054-.613-.522-.522a.86.86,0,0,0,.095-.22h.731A1.588,1.588,0,0,1,13.626,55.668ZM13.2,54.485a.891.891,0,0,0-.092-.224l.519-.519a1.589,1.589,0,0,1,.3.743H13.2Z" transform="translate(-6.464 -44.54)" fill="#fff"/>
      <path id="Path_852" data-name="Path 852" d="M74.361,52.156A2.545,2.545,0,0,0,71.816,54.7a2.472,2.472,0,0,0,.022.32,2.543,2.543,0,0,0,5.057-.1c.006-.071.011-.144.011-.217A2.544,2.544,0,0,0,74.361,52.156Zm-1.274,1.586.518.519a.879.879,0,0,0-.092.224h-.731A1.576,1.576,0,0,1,73.087,53.742Zm-.308,1.183h.737a.853.853,0,0,0,.092.221l-.52.52A1.579,1.579,0,0,1,72.779,54.925Zm1.362,1.357a1.586,1.586,0,0,1-.738-.306l.517-.518a.875.875,0,0,0,.221.09Zm0-2.428a.883.883,0,0,0-.225.094L73.4,53.43a1.58,1.58,0,0,1,.743-.307Zm.441-.733a1.584,1.584,0,0,1,.743.308l-.518.518a.86.86,0,0,0-.225-.094Zm0,3.16v-.733a.869.869,0,0,0,.221-.09l.518.518A1.588,1.588,0,0,1,74.582,56.282Zm1.053-.613-.522-.522a.85.85,0,0,0,.095-.22h.731A1.585,1.585,0,0,1,75.635,55.668Zm-.426-1.184a.879.879,0,0,0-.092-.224l.519-.519a1.589,1.589,0,0,1,.305.743h-.732Z" transform="translate(-47.34 -44.54)" fill="#fff"/>
      <path id="Path_853" data-name="Path 853" d="M33.132,37.854V35.842a.644.644,0,0,0-.519-.648,23.648,23.648,0,0,1-2.563-.535c-.82-.27-3.988-1.7-5.085-1.973s-6.045-1.706-10.784.049c-.8.3-4.409,2.14-6.531,3.1-.625.015-6.808,1.392-7.137,2.336a16.04,16.04,0,0,0-.493,1.642A4.1,4.1,0,0,0,.478,42a6.994,6.994,0,0,0,2.412.6c-.012-.068-.025-.135-.033-.2a3.344,3.344,0,0,1-.027-.41,3.17,3.17,0,0,1,3.056-3.267,3.17,3.17,0,0,1,3.056,3.267c0,.093-.006.184-.012.275a3.376,3.376,0,0,1-.1.587H8.84l15.172-.326c-.007-.042-.016-.083-.021-.126a3.33,3.33,0,0,1-.027-.41,3.063,3.063,0,1,1,6.113,0c0,.007,0,.013,0,.019L30.141,42l2.594-.522a2.389,2.389,0,0,0,.993-2.12A1.916,1.916,0,0,0,33.132,37.854Zm-15.05-1.908-5.666.185c.1-.907-.4-1.111-.4-1.111,2.252-2.185,6.792-2.259,6.792-2.259Zm6.359-.277-5.163.185.468-3.092a11.519,11.519,0,0,1,4.193.592l.762,1.315Zm2.911-.019H25.913L24.475,33.54a26.428,26.428,0,0,1,2.457,1.2A.876.876,0,0,1,27.352,35.65Z" transform="translate(0.001 -31.876)" fill="#fff"/>
    </g>
  </g>
</svg>
